$MeshFormat
4.1 0 8
$EndMeshFormat
$PhysicalNames
3
1 5 "velocity-inlet"
1 6 "slip-wall"
1 7 "pressure-outlet"
$EndPhysicalNames
$Entities
4 4 1 0
1 0 5 0 0 
2 0 -5 0 0 
3 25 -5 0 0 
4 25 5 0 0 
1 0 -5 0 0 5 0 1 5 2 1 -2 
2 0 -5 0 25 -5 0 1 6 2 2 -3 
3 25 -5 0 25 5 0 1 7 2 3 -4 
4 0 5 0 25 5 0 1 6 2 4 -1 
1 0 -5 0 25 5 0 0 4 1 2 3 4 
$EndEntities
$Nodes
9 1000 1 1000
0 1 0 1
1
0 5 0
0 2 0 1
2
0 -5 0
0 3 0 1
3
25 -5 0
0 4 0 1
4
25 5 0
1 1 1 18
5
6
7
8
9
10
11
12
13
14
15
16
17
18
19
20
21
22
0 4.473684210525666 0 0.05263157894743344
0 3.947368421051332 0 0.1052631578948669
0 3.421052631578458 0 0.1578947368421542
0 2.894736842106461 0 0.2105263157893539
0 2.368421052634464 0 0.2631578947365537
0 1.842105263162467 0 0.3157894736837533
0 1.31578947369047 0 0.368421052630953
0 0.7894736842176417 0 0.4210526315782358
0 0.2631578947433075 0 0.4736842105256692
0 -0.2631578947310249 0 0.5263157894731025
0 -0.7894736842053547 0 0.5789473684205355
0 -1.315789473679684 0 0.6315789473679685
0 -1.842105263154017 0 0.6842105263154017
0 -2.368421052628347 0 0.7368421052628347
0 -2.894736842102679 0 0.7894736842102679
0 -3.421052631577009 0 0.8421052631577008
0 -3.947368421051339 0 0.8947368421051338
0 -4.47368421052567 0 0.947368421052567
1 2 1 48
23
24
25
26
27
28
29
30
31
32
33
34
35
36
37
38
39
40
41
42
43
44
45
46
47
48
49
50
51
52
53
54
55
56
57
58
59
60
61
62
63
64
65
66
67
68
69
70
0.5102040816306519 -5 0 0.02040816326522608
1.02040816326123 -5 0 0.04081632653044921
1.530612244891724 -5 0 0.06122448979566898
2.040816326522571 -5 0 0.08163265306090282
2.551020408153481 -5 0 0.1020408163261392
3.061224489784333 -5 0 0.1224489795913733
3.57142857141451 -5 0 0.1428571428565804
4.081632653044514 -5 0 0.1632653061217805
4.591836734674517 -5 0 0.1836734693869807
5.102040816304521 -5 0 0.2040816326521808
5.612244897934526 -5 0 0.2244897959173811
6.12244897956453 -5 0 0.2448979591825812
6.632653061194536 -5 0 0.2653061224477815
7.142857142824542 -5 0 0.2857142857129817
7.653061224454548 -5 0 0.3061224489781819
8.163265306085453 -5 0 0.3265306122434181
8.673469387717271 -5 0 0.3469387755086908
9.18367346934909 -5 0 0.3673469387739636
9.693877550980908 -5 0 0.3877551020392363
10.20408163261273 -5 0 0.4081632653045091
10.71428571424455 -5 0 0.4285714285697819
11.22448979587636 -5 0 0.4489795918350546
11.73469387750818 -5 0 0.4693877551003273
12.24489795914 -5 0 0.4897959183656
12.75510204077182 -5 0 0.5102040816308728
13.26530612240364 -5 0 0.5306122448961456
13.77551020403546 -5 0 0.5510204081614183
14.28571428566728 -5 0 0.5714285714266911
14.79591836729909 -5 0 0.5918367346919637
15.30612244893091 -5 0 0.6122448979572366
15.81632653056273 -5 0 0.6326530612225092
16.32653061219746 -5 0 0.6530612244878982
16.8367346938329 -5 0 0.673469387753316
17.34693877546834 -5 0 0.6938775510187336
17.85714285710378 -5 0 0.7142857142841514
18.36734693873923 -5 0 0.7346938775495692
18.87755102037467 -5 0 0.7551020408149869
19.38775510201011 -5 0 0.7755102040804046
19.89795918364556 -5 0 0.7959183673458224
20.408163265281 -5 0 0.8163265306112402
20.91836734691645 -5 0 0.8367346938766579
21.42857142855189 -5 0 0.8571428571420757
21.93877551018734 -5 0 0.8775510204074934
22.44897959182278 -5 0 0.8979591836729112
22.95918367345822 -5 0 0.9183673469383289
23.46938775509367 -5 0 0.9387755102037467
23.97959183672911 -5 0 0.9591836734691644
24.48979591836455 -5 0 0.9795918367345822
1 3 1 18
71
72
73
74
75
76
77
78
79
80
81
82
83
84
85
86
87
88
25 -4.473684210525666 0 0.05263157894743344
25 -3.947368421051332 0 0.1052631578948669
25 -3.421052631578458 0 0.1578947368421542
25 -2.894736842106461 0 0.2105263157893539
25 -2.368421052634464 0 0.2631578947365537
25 -1.842105263162467 0 0.3157894736837533
25 -1.31578947369047 0 0.368421052630953
25 -0.7894736842176417 0 0.4210526315782358
25 -0.2631578947433075 0 0.4736842105256692
25 0.2631578947310249 0 0.5263157894731025
25 0.7894736842053547 0 0.5789473684205355
25 1.315789473679684 0 0.6315789473679685
25 1.842105263154017 0 0.6842105263154017
25 2.368421052628347 0 0.7368421052628347
25 2.894736842102679 0 0.7894736842102679
25 3.421052631577009 0 0.8421052631577008
25 3.947368421051339 0 0.8947368421051338
25 4.47368421052567 0 0.947368421052567
1 4 1 48
89
90
91
92
93
94
95
96
97
98
99
100
101
102
103
104
105
106
107
108
109
110
111
112
113
114
115
116
117
118
119
120
121
122
123
124
125
126
127
128
129
130
131
132
133
134
135
136
24.48979591837097 5 0 0.0204081632651611
23.97959183674195 5 0 0.0408163265303222
23.46938775511292 5 0 0.0612244897954833
22.95918367348389 5 0 0.08163265306064442
22.44897959185486 5 0 0.1020408163258055
21.93877551022583 5 0 0.1224489795909667
21.4285714285968 5 0 0.1428571428561278
20.91836734696778 5 0 0.1632653061212889
20.40816326533875 5 0 0.18367346938645
19.89795918370972 5 0 0.2040816326516111
19.38775510208069 5 0 0.2244897959167723
18.87755102045167 5 0 0.2448979591819334
18.36734693882264 5 0 0.2653061224470945
17.85714285719361 5 0 0.2857142857122557
17.34693877556458 5 0 0.3061224489774167
16.83673469393555 5 0 0.3265306122425778
16.32653061230653 5 0 0.346938775507739
15.81632653067678 5 0 0.367346938772929
15.30612244904412 5 0 0.3877551020382351
14.79591836741147 5 0 0.4081632653035412
14.28571428577882 5 0 0.4285714285688473
13.77551020414616 5 0 0.4489795918341535
13.26530612251351 5 0 0.4693877550994596
12.75510204088086 5 0 0.4897959183647657
12.2448979592482 5 0 0.5102040816300718
11.73469387761555 5 0 0.5306122448953779
11.2244897959829 5 0 0.5510204081606841
10.71428571435024 5 0 0.5714285714259902
10.20408163271759 5 0 0.5918367346912963
9.69387755108494 5 0 0.6122448979566024
9.183673469452286 5 0 0.6326530612219086
8.673469387816731 5 0 0.6530612244873308
8.163265306180449 5 0 0.673469387752782
7.653061224544171 5 0 0.6938775510182331
7.142857142907893 5 0 0.7142857142836843
6.632653061271618 5 0 0.7346938775491353
6.122448979635337 5 0 0.7551020408145865
5.612244897999059 5 0 0.7755102040800377
5.102040816362781 5 0 0.7959183673454888
4.591836734726503 5 0 0.81632653061094
4.081632653090221 5 0 0.8367346938763911
3.571428571453946 5 0 0.8571428571418421
3.061224489817668 5 0 0.8775510204072933
2.55102040818139 5 0 0.8979591836727444
2.040816326545109 5 0 0.9183673469381957
1.530612244908831 5 0 0.9387755102036468
1.020408163272553 5 0 0.9591836734690979
0.5102040816362745 5 0 0.979591836734549
2 1 1 864
137
138
139
140
141
142
143
144
145
146
147
148
149
150
151
152
153
154
155
156
157
158
159
160
161
162
163
164
165
166
167
168
169
170
171
172
173
174
175
176
177
178
179
180
181
182
183
184
185
186
187
188
189
190
191
192
193
194
195
196
197
198
199
200
201
202
203
204
205
206
207
208
209
210
211
212
213
214
215
216
217
218
219
220
221
222
223
224
225
226
227
228
229
230
231
232
233
234
235
236
237
238
239
240
241
242
243
244
245
246
247
248
249
250
251
252
253
254
255
256
257
258
259
260
261
262
263
264
265
266
267
268
269
270
271
272
273
274
275
276
277
278
279
280
281
282
283
284
285
286
287
288
289
290
291
292
293
294
295
296
297
298
299
300
301
302
303
304
305
306
307
308
309
310
311
312
313
314
315
316
317
318
319
320
321
322
323
324
325
326
327
328
329
330
331
332
333
334
335
336
337
338
339
340
341
342
343
344
345
346
347
348
349
350
351
352
353
354
355
356
357
358
359
360
361
362
363
364
365
366
367
368
369
370
371
372
373
374
375
376
377
378
379
380
381
382
383
384
385
386
387
388
389
390
391
392
393
394
395
396
397
398
399
400
401
402
403
404
405
406
407
408
409
410
411
412
413
414
415
416
417
418
419
420
421
422
423
424
425
426
427
428
429
430
431
432
433
434
435
436
437
438
439
440
441
442
443
444
445
446
447
448
449
450
451
452
453
454
455
456
457
458
459
460
461
462
463
464
465
466
467
468
469
470
471
472
473
474
475
476
477
478
479
480
481
482
483
484
485
486
487
488
489
490
491
492
493
494
495
496
497
498
499
500
501
502
503
504
505
506
507
508
509
510
511
512
513
514
515
516
517
518
519
520
521
522
523
524
525
526
527
528
529
530
531
532
533
534
535
536
537
538
539
540
541
542
543
544
545
546
547
548
549
550
551
552
553
554
555
556
557
558
559
560
561
562
563
564
565
566
567
568
569
570
571
572
573
574
575
576
577
578
579
580
581
582
583
584
585
586
587
588
589
590
591
592
593
594
595
596
597
598
599
600
601
602
603
604
605
606
607
608
609
610
611
612
613
614
615
616
617
618
619
620
621
622
623
624
625
626
627
628
629
630
631
632
633
634
635
636
637
638
639
640
641
642
643
644
645
646
647
648
649
650
651
652
653
654
655
656
657
658
659
660
661
662
663
664
665
666
667
668
669
670
671
672
673
674
675
676
677
678
679
680
681
682
683
684
685
686
687
688
689
690
691
692
693
694
695
696
697
698
699
700
701
702
703
704
705
706
707
708
709
710
711
712
713
714
715
716
717
718
719
720
721
722
723
724
725
726
727
728
729
730
731
732
733
734
735
736
737
738
739
740
741
742
743
744
745
746
747
748
749
750
751
752
753
754
755
756
757
758
759
760
761
762
763
764
765
766
767
768
769
770
771
772
773
774
775
776
777
778
779
780
781
782
783
784
785
786
787
788
789
790
791
792
793
794
795
796
797
798
799
800
801
802
803
804
805
806
807
808
809
810
811
812
813
814
815
816
817
818
819
820
821
822
823
824
825
826
827
828
829
830
831
832
833
834
835
836
837
838
839
840
841
842
843
844
845
846
847
848
849
850
851
852
853
854
855
856
857
858
859
860
861
862
863
864
865
866
867
868
869
870
871
872
873
874
875
876
877
878
879
880
881
882
883
884
885
886
887
888
889
890
891
892
893
894
895
896
897
898
899
900
901
902
903
904
905
906
907
908
909
910
911
912
913
914
915
916
917
918
919
920
921
922
923
924
925
926
927
928
929
930
931
932
933
934
935
936
937
938
939
940
941
942
943
944
945
946
947
948
949
950
951
952
953
954
955
956
957
958
959
960
961
962
963
964
965
966
967
968
969
970
971
972
973
974
975
976
977
978
979
980
981
982
983
984
985
986
987
988
989
990
991
992
993
994
995
996
997
998
999
1000
0.5102040816359785 4.473684210525666 0 4.473684210525666 0.5102040816359785
1.020408163271956 4.473684210525665 0 4.473684210525665 1.020408163271956
1.53061224490793 4.473684210525665 0 4.473684210525665 1.53061224490793
2.040816326543922 4.473684210525665 0 4.473684210525665 2.040816326543922
2.551020408179921 4.473684210525667 0 4.473684210525667 2.551020408179921
3.061224489815914 4.473684210525668 0 4.473684210525668 3.061224489815914
3.57142857145187 4.473684210525668 0 4.473684210525668 3.57142857145187
4.081632653087815 4.473684210525667 0 4.473684210525667 4.081632653087815
4.591836734723768 4.473684210525668 0 4.473684210525668 4.591836734723768
5.102040816359714 4.473684210525667 0 4.473684210525667 5.102040816359714
5.612244897995662 4.473684210525667 0 4.473684210525667 5.612244897995662
6.12244897963161 4.473684210525667 0 4.473684210525667 6.12244897963161
6.632653061267562 4.473684210525668 0 4.473684210525668 6.632653061267562
7.142857142903506 4.473684210525667 0 4.473684210525667 7.142857142903506
7.653061224539454 4.473684210525667 0 4.473684210525667 7.653061224539454
8.163265306175452 4.473684210525668 0 4.473684210525668 8.163265306175452
8.673469387811497 4.473684210525668 0 4.473684210525668 8.673469387811497
9.183673469446855 4.473684210525667 0 4.473684210525667 9.183673469446855
9.693877551079463 4.473684210525669 0 4.473684210525669 9.693877551079463
10.20408163271208 4.473684210525668 0 4.473684210525668 10.20408163271208
10.71428571434468 4.473684210525668 0 4.473684210525668 10.71428571434468
11.22448979597729 4.473684210525668 0 4.473684210525668 11.22448979597729
11.7346938776099 4.473684210525668 0 4.473684210525668 11.7346938776099
12.24489795924251 4.47368421052567 0 4.47368421052567 12.24489795924251
12.75510204087512 4.473684210525669 0 4.473684210525669 12.75510204087512
13.26530612250773 4.473684210525668 0 4.473684210525668 13.26530612250773
13.77551020414034 4.473684210525668 0 4.473684210525668 13.77551020414034
14.28571428577295 4.473684210525669 0 4.473684210525669 14.28571428577295
14.79591836740555 4.473684210525669 0 4.473684210525669 14.79591836740555
15.30612244903816 4.473684210525669 0 4.473684210525669 15.30612244903816
15.81632653067078 4.473684210525668 0 4.473684210525668 15.81632653067078
16.32653061230078 4.473684210525669 0 4.473684210525669 16.32653061230078
16.83673469393015 4.473684210525668 0 4.473684210525668 16.83673469393015
17.34693877555951 4.473684210525669 0 4.473684210525669 17.34693877555951
17.85714285718888 4.473684210525668 0 4.473684210525668 17.85714285718888
18.36734693881825 4.473684210525668 0 4.473684210525668 18.36734693881825
18.87755102044762 4.473684210525669 0 4.473684210525669 18.87755102044762
19.38775510207697 4.473684210525669 0 4.473684210525669 19.38775510207697
19.89795918370634 4.473684210525668 0 4.473684210525668 19.89795918370634
20.40816326533571 4.473684210525671 0 4.473684210525671 20.40816326533571
20.91836734696508 4.473684210525669 0 4.473684210525669 20.91836734696508
21.42857142859443 4.473684210525671 0 4.473684210525671 21.42857142859443
21.93877551022381 4.473684210525669 0 4.473684210525669 21.93877551022381
22.44897959185317 4.473684210525668 0 4.473684210525668 22.44897959185317
22.95918367348253 4.473684210525668 0 4.473684210525668 22.95918367348253
23.4693877551119 4.473684210525671 0 4.473684210525671 23.4693877551119
23.97959183674127 4.473684210525668 0 4.473684210525668 23.97959183674127
24.48979591837063 4.473684210525671 0 4.473684210525671 24.48979591837063
0.5102040816356828 3.947368421051332 0 3.947368421051332 0.5102040816356828
1.020408163271361 3.947368421051332 0 3.947368421051332 1.020408163271361
1.53061224490703 3.947368421051332 0 3.947368421051332 1.53061224490703
2.040816326542736 3.947368421051332 0 3.947368421051332 2.040816326542736
2.551020408178452 3.947368421051332 0 3.947368421051332 2.551020408178452
3.06122448981416 3.947368421051334 0 3.947368421051334 3.06122448981416
3.571428571449797 3.947368421051333 0 3.947368421051333 3.571428571449797
4.08163265308541 3.947368421051333 0 3.947368421051333 4.08163265308541
4.59183673472103 3.947368421051332 0 3.947368421051332 4.59183673472103
5.102040816356648 3.947368421051333 0 3.947368421051333 5.102040816356648
5.612244897992266 3.947368421051333 0 3.947368421051333 5.612244897992266
6.122448979627883 3.947368421051333 0 3.947368421051333 6.122448979627883
6.632653061263504 3.947368421051334 0 3.947368421051334 6.632653061263504
7.14285714289912 3.947368421051333 0 3.947368421051333 7.14285714289912
7.653061224534737 3.947368421051335 0 3.947368421051335 7.653061224534737
8.16326530617045 3.947368421051334 0 3.947368421051334 8.16326530617045
8.673469387806261 3.947368421051333 0 3.947368421051333 8.673469387806261
9.183673469441423 3.947368421051336 0 3.947368421051336 9.183673469441423
9.693877551073992 3.947368421051335 0 3.947368421051335 9.693877551073992
10.20408163270655 3.947368421051334 0 3.947368421051334 10.20408163270655
10.71428571433912 3.947368421051336 0 3.947368421051336 10.71428571433912
11.22448979597169 3.947368421051335 0 3.947368421051335 11.22448979597169
11.73469387760425 3.947368421051334 0 3.947368421051334 11.73469387760425
12.24489795923681 3.947368421051336 0 3.947368421051336 12.24489795923681
12.75510204086938 3.947368421051335 0 3.947368421051335 12.75510204086938
13.26530612250194 3.947368421051336 0 3.947368421051336 13.26530612250194
13.77551020413451 3.947368421051336 0 3.947368421051336 13.77551020413451
14.28571428576707 3.947368421051336 0 3.947368421051336 14.28571428576707
14.79591836739964 3.947368421051335 0 3.947368421051335 14.79591836739964
15.30612244903221 3.947368421051337 0 3.947368421051337 15.30612244903221
15.81632653066477 3.947368421051337 0 3.947368421051337 15.81632653066477
16.32653061229504 3.947368421051336 0 3.947368421051336 16.32653061229504
16.83673469392475 3.947368421051336 0 3.947368421051336 16.83673469392475
17.34693877555445 3.947368421051337 0 3.947368421051337 17.34693877555445
17.85714285718415 3.947368421051337 0 3.947368421051337 17.85714285718415
18.36734693881386 3.947368421051337 0 3.947368421051337 18.36734693881386
18.87755102044356 3.947368421051337 0 3.947368421051337 18.87755102044356
19.38775510207326 3.947368421051337 0 3.947368421051337 19.38775510207326
19.89795918370297 3.947368421051339 0 3.947368421051339 19.89795918370297
20.40816326533267 3.947368421051337 0 3.947368421051337 20.40816326533267
20.91836734696237 3.947368421051337 0 3.947368421051337 20.91836734696237
21.42857142859208 3.947368421051338 0 3.947368421051338 21.42857142859208
21.93877551022179 3.947368421051339 0 3.947368421051339 21.93877551022179
22.44897959185149 3.947368421051338 0 3.947368421051338 22.44897959185149
22.95918367348118 3.947368421051338 0 3.947368421051338 22.95918367348118
23.4693877551109 3.947368421051338 0 3.947368421051338 23.4693877551109
23.97959183674059 3.947368421051338 0 3.947368421051338 23.97959183674059
24.48979591837029 3.947368421051339 0 3.947368421051339 24.48979591837029
0.5102040816353866 3.421052631578428 0 3.421052631578428 0.5102040816353866
1.020408163270765 3.421052631578398 0 3.421052631578398 1.020408163270765
1.53061224490613 3.42105263157837 0 3.42105263157837 1.53061224490613
2.04081632654155 3.421052631578339 0 3.421052631578339 2.04081632654155
2.551020408176983 3.42105263157831 0 3.42105263157831 2.551020408176983
3.061224489812405 3.42105263157828 0 3.42105263157828 3.061224489812405
3.57142857144772 3.42105263157825 0 3.42105263157825 3.57142857144772
4.081632653083005 3.42105263157822 0 3.42105263157822 4.081632653083005
4.591836734718294 3.421052631578191 0 3.421052631578191 4.591836734718294
5.102040816353581 3.421052631578163 0 3.421052631578163 5.102040816353581
5.612244897988869 3.421052631578132 0 3.421052631578132 5.612244897988869
6.122448979624156 3.421052631578102 0 3.421052631578102 6.122448979624156
6.632653061259448 3.421052631578074 0 3.421052631578074 6.632653061259448
7.142857142894733 3.421052631578044 0 3.421052631578044 7.142857142894733
7.65306122453002 3.421052631578014 0 3.421052631578014 7.65306122453002
8.163265306165448 3.421052631577985 0 3.421052631577985 8.163265306165448
8.673469387801028 3.421052631577954 0 3.421052631577954 8.673469387801028
9.183673469435991 3.421052631577925 0 3.421052631577925 9.183673469435991
9.693877551068514 3.421052631577896 0 3.421052631577896 9.693877551068514
10.20408163270104 3.421052631577866 0 3.421052631577866 10.20408163270104
10.71428571433355 3.421052631577837 0 3.421052631577837 10.71428571433355
11.22448979596608 3.421052631577807 0 3.421052631577807 11.22448979596608
11.7346938775986 3.421052631577777 0 3.421052631577777 11.7346938775986
12.24489795923112 3.421052631577747 0 3.421052631577747 12.24489795923112
12.75510204086364 3.421052631577719 0 3.421052631577719 12.75510204086364
13.26530612249616 3.421052631577689 0 3.421052631577689 13.26530612249616
13.77551020412868 3.421052631577659 0 3.421052631577659 13.77551020412868
14.2857142857612 3.421052631577629 0 3.421052631577629 14.2857142857612
14.79591836739372 3.4210526315776 0 3.4210526315776 14.79591836739372
15.30612244902625 3.421052631577572 0 3.421052631577572 15.30612244902625
15.81632653065877 3.421052631577542 0 3.421052631577542 15.81632653065877
16.3265306122893 3.421052631577511 0 3.421052631577511 16.3265306122893
16.83673469391935 3.421052631577483 0 3.421052631577483 16.83673469391935
17.34693877554939 3.421052631577453 0 3.421052631577453 17.34693877554939
17.85714285717943 3.421052631577422 0 3.421052631577422 17.85714285717943
18.36734693880947 3.421052631577393 0 3.421052631577393 18.36734693880947
18.87755102043952 3.421052631577363 0 3.421052631577363 18.87755102043952
19.38775510206955 3.421052631577334 0 3.421052631577334 19.38775510206955
19.89795918369959 3.421052631577305 0 3.421052631577305 19.89795918369959
20.40816326532963 3.421052631577275 0 3.421052631577275 20.40816326532963
20.91836734695967 3.421052631577245 0 3.421052631577245 20.91836734695967
21.42857142858971 3.421052631577216 0 3.421052631577216 21.42857142858971
21.93877551021976 3.421052631577186 0 3.421052631577186 21.93877551021976
22.4489795918498 3.421052631577156 0 3.421052631577156 22.4489795918498
22.95918367347983 3.421052631577127 0 3.421052631577127 22.95918367347983
23.46938775510988 3.421052631577097 0 3.421052631577097 23.46938775510988
23.97959183673992 3.421052631577068 0 3.421052631577068 23.97959183673992
24.48979591836996 3.421052631577038 0 3.421052631577038 24.48979591836996
0.5102040816350908 2.894736842106383 0 2.894736842106383 0.5102040816350908
1.020408163270169 2.894736842106306 0 2.894736842106306 1.020408163270169
1.53061224490523 2.894736842106229 0 2.894736842106229 1.53061224490523
2.040816326540364 2.894736842106153 0 2.894736842106153 2.040816326540364
2.551020408175514 2.894736842106075 0 2.894736842106075 2.551020408175514
3.06122448981065 2.894736842105997 0 2.894736842105997 3.06122448981065
3.571428571445644 2.89473684210592 0 2.89473684210592 3.571428571445644
4.0816326530806 2.894736842105843 0 2.894736842105843 4.0816326530806
4.591836734715558 2.894736842105765 0 2.894736842105765 4.591836734715558
5.102040816350515 2.894736842105689 0 2.894736842105689 5.102040816350515
5.612244897985473 2.894736842105612 0 2.894736842105612 5.612244897985473
6.12244897962043 2.894736842105535 0 2.894736842105535 6.12244897962043
6.63265306125539 2.894736842105456 0 2.894736842105456 6.63265306125539
7.142857142890344 2.894736842105379 0 2.894736842105379 7.142857142890344
7.653061224525304 2.894736842105302 0 2.894736842105302 7.653061224525304
8.163265306160453 2.894736842105226 0 2.894736842105226 8.163265306160453
8.673469387795791 2.894736842105148 0 2.894736842105148 8.673469387795791
9.183673469430559 2.894736842105071 0 2.894736842105071 9.183673469430559
9.693877551063039 2.894736842104994 0 2.894736842104994 9.693877551063039
10.20408163269552 2.894736842104917 0 2.894736842104917 10.20408163269552
10.71428571432799 2.89473684210484 0 2.89473684210484 10.71428571432799
11.22448979596047 2.894736842104762 0 2.894736842104762 11.22448979596047
11.73469387759295 2.894736842104686 0 2.894736842104686 11.73469387759295
12.24489795922542 2.894736842104608 0 2.894736842104608 12.24489795922542
12.7551020408579 2.89473684210453 0 2.89473684210453 12.7551020408579
13.26530612249038 2.894736842104454 0 2.894736842104454 13.26530612249038
13.77551020412286 2.894736842104376 0 2.894736842104376 13.77551020412286
14.28571428575533 2.8947368421043 0 2.8947368421043 14.28571428575533
14.79591836738781 2.894736842104223 0 2.894736842104223 14.79591836738781
15.30612244902029 2.894736842104146 0 2.894736842104146 15.30612244902029
15.81632653065277 2.894736842104068 0 2.894736842104068 15.81632653065277
16.32653061228357 2.894736842103991 0 2.894736842103991 16.32653061228357
16.83673469391394 2.894736842103913 0 2.894736842103913 16.83673469391394
17.34693877554432 2.894736842103836 0 2.894736842103836 17.34693877554432
17.8571428571747 2.894736842103759 0 2.894736842103759 17.8571428571747
18.36734693880507 2.894736842103683 0 2.894736842103683 18.36734693880507
18.87755102043545 2.894736842103605 0 2.894736842103605 18.87755102043545
19.38775510206583 2.894736842103528 0 2.894736842103528 19.38775510206583
19.89795918369622 2.894736842103451 0 2.894736842103451 19.89795918369622
20.40816326532659 2.894736842103374 0 2.894736842103374 20.40816326532659
20.91836734695696 2.894736842103296 0 2.894736842103296 20.91836734695696
21.42857142858735 2.894736842103219 0 2.894736842103219 21.42857142858735
21.93877551021773 2.894736842103142 0 2.894736842103142 21.93877551021773
22.44897959184811 2.894736842103064 0 2.894736842103064 22.44897959184811
22.95918367347848 2.894736842102988 0 2.894736842102988 22.95918367347848
23.46938775510886 2.89473684210291 0 2.89473684210291 23.46938775510886
23.97959183673924 2.894736842102834 0 2.894736842102834 23.97959183673924
24.48979591836962 2.894736842102755 0 2.894736842102755 24.48979591836962
0.5102040816347948 2.368421052634339 0 2.368421052634339 0.5102040816347948
1.020408163269573 2.368421052634214 0 2.368421052634214 1.020408163269573
1.530612244904329 2.368421052634089 0 2.368421052634089 1.530612244904329
2.040816326539178 2.368421052633964 0 2.368421052633964 2.040816326539178
2.551020408174045 2.36842105263384 0 2.36842105263384 2.551020408174045
3.061224489808896 2.368421052633714 0 2.368421052633714 3.061224489808896
3.571428571443568 2.368421052633591 0 2.368421052633591 3.571428571443568
4.081632653078192 2.368421052633464 0 2.368421052633464 4.081632653078192
4.591836734712822 2.36842105263334 0 2.36842105263334 4.591836734712822
5.102040816347448 2.368421052633216 0 2.368421052633216 5.102040816347448
5.612244897982078 2.368421052633091 0 2.368421052633091 5.612244897982078
6.122448979616703 2.368421052632965 0 2.368421052632965 6.122448979616703
6.632653061251334 2.368421052632841 0 2.368421052632841 6.632653061251334
7.142857142885957 2.368421052632717 0 2.368421052632717 7.142857142885957
7.653061224520586 2.368421052632591 0 2.368421052632591 7.653061224520586
8.16326530615545 2.368421052632466 0 2.368421052632466 8.16326530615545
8.673469387790554 2.368421052632341 0 2.368421052632341 8.673469387790554
9.183673469425131 2.368421052632216 0 2.368421052632216 9.183673469425131
9.693877551057565 2.368421052632093 0 2.368421052632093 9.693877551057565
10.20408163269 2.368421052631967 0 2.368421052631967 10.20408163269
10.71428571432243 2.368421052631842 0 2.368421052631842 10.71428571432243
11.22448979595486 2.368421052631717 0 2.368421052631717 11.22448979595486
11.7346938775873 2.368421052631592 0 2.368421052631592 11.7346938775873
12.24489795921973 2.368421052631468 0 2.368421052631468 12.24489795921973
12.75510204085217 2.368421052631343 0 2.368421052631343 12.75510204085217
13.2653061224846 2.368421052631218 0 2.368421052631218 13.2653061224846
13.77551020411703 2.368421052631093 0 2.368421052631093 13.77551020411703
14.28571428574947 2.368421052630968 0 2.368421052630968 14.28571428574947
14.79591836738189 2.368421052630843 0 2.368421052630843 14.79591836738189
15.30612244901433 2.368421052630718 0 2.368421052630718 15.30612244901433
15.81632653064676 2.368421052630594 0 2.368421052630594 15.81632653064676
16.32653061227782 2.368421052630469 0 2.368421052630469 16.32653061227782
16.83673469390854 2.368421052630345 0 2.368421052630345 16.83673469390854
17.34693877553925 2.368421052630219 0 2.368421052630219 17.34693877553925
17.85714285716997 2.368421052630093 0 2.368421052630093 17.85714285716997
18.36734693880069 2.368421052629969 0 2.368421052629969 18.36734693880069
18.8775510204314 2.368421052629845 0 2.368421052629845 18.8775510204314
19.38775510206212 2.36842105262972 0 2.36842105262972 19.38775510206212
19.89795918369284 2.368421052629595 0 2.368421052629595 19.89795918369284
20.40816326532356 2.368421052629471 0 2.368421052629471 20.40816326532356
20.91836734695427 2.368421052629345 0 2.368421052629345 20.91836734695427
21.42857142858499 2.36842105262922 0 2.36842105262922 21.42857142858499
21.93877551021571 2.368421052629095 0 2.368421052629095 21.93877551021571
22.44897959184642 2.368421052628971 0 2.368421052628971 22.44897959184642
22.95918367347713 2.368421052628846 0 2.368421052628846 22.95918367347713
23.46938775510785 2.368421052628721 0 2.368421052628721 23.46938775510785
23.97959183673857 2.368421052628596 0 2.368421052628596 23.97959183673857
24.48979591836928 2.368421052628472 0 2.368421052628472 24.48979591836928
0.5102040816344988 1.842105263162295 0 1.842105263162295 0.5102040816344988
1.020408163268977 1.842105263162122 0 1.842105263162122 1.020408163268977
1.530612244903429 1.84210526316195 0 1.84210526316195 1.530612244903429
2.040816326537992 1.842105263161777 0 1.842105263161777 2.040816326537992
2.551020408172577 1.842105263161605 0 1.842105263161605 2.551020408172577
3.061224489807142 1.842105263161431 0 1.842105263161431 3.061224489807142
3.571428571441492 1.84210526316126 0 1.84210526316126 3.571428571441492
4.081632653075787 1.842105263161087 0 1.842105263161087 4.081632653075787
4.591836734710086 1.842105263160915 0 1.842105263160915 4.591836734710086
5.102040816344382 1.842105263160742 0 1.842105263160742 5.102040816344382
5.61224489797868 1.84210526316057 0 1.84210526316057 5.61224489797868
6.122448979612975 1.842105263160397 0 1.842105263160397 6.122448979612975
6.632653061247277 1.842105263160225 0 1.842105263160225 6.632653061247277
7.14285714288157 1.842105263160052 0 1.842105263160052 7.14285714288157
7.653061224515868 1.842105263159881 0 1.842105263159881 7.653061224515868
8.163265306150448 1.842105263159708 0 1.842105263159708 8.163265306150448
8.673469387785325 1.842105263159535 0 1.842105263159535 8.673469387785325
9.183673469419695 1.842105263159362 0 1.842105263159362 9.183673469419695
9.693877551052086 1.842105263159191 0 1.842105263159191 9.693877551052086
10.20408163268448 1.842105263159018 0 1.842105263159018 10.20408163268448
10.71428571431687 1.842105263158845 0 1.842105263158845 10.71428571431687
11.22448979594925 1.842105263158673 0 1.842105263158673 11.22448979594925
11.73469387758164 1.8421052631585 0 1.8421052631585 11.73469387758164
12.24489795921404 1.842105263158328 0 1.842105263158328 12.24489795921404
12.75510204084642 1.842105263158156 0 1.842105263158156 12.75510204084642
13.26530612247881 1.842105263157983 0 1.842105263157983 13.26530612247881
13.7755102041112 1.84210526315781 0 1.84210526315781 13.7755102041112
14.2857142857436 1.842105263157638 0 1.842105263157638 14.2857142857436
14.79591836737598 1.842105263157465 0 1.842105263157465 14.79591836737598
15.30612244900837 1.842105263157293 0 1.842105263157293 15.30612244900837
15.81632653064076 1.842105263157121 0 1.842105263157121 15.81632653064076
16.32653061227209 1.842105263156949 0 1.842105263156949 16.32653061227209
16.83673469390314 1.842105263156775 0 1.842105263156775 16.83673469390314
17.34693877553419 1.842105263156603 0 1.842105263156603 17.34693877553419
17.85714285716524 1.842105263156432 0 1.842105263156432 17.85714285716524
18.3673469387963 1.842105263156258 0 1.842105263156258 18.3673469387963
18.87755102042735 1.842105263156086 0 1.842105263156086 18.87755102042735
19.38775510205841 1.842105263155914 0 1.842105263155914 19.38775510205841
19.89795918368947 1.842105263155742 0 1.842105263155742 19.89795918368947
20.40816326532052 1.842105263155569 0 1.842105263155569 20.40816326532052
20.91836734695157 1.842105263155396 0 1.842105263155396 20.91836734695157
21.42857142858262 1.842105263155223 0 1.842105263155223 21.42857142858262
21.93877551021367 1.842105263155052 0 1.842105263155052 21.93877551021367
22.44897959184473 1.84210526315488 0 1.84210526315488 22.44897959184473
22.95918367347578 1.842105263154706 0 1.842105263154706 22.95918367347578
23.46938775510684 1.842105263154534 0 1.842105263154534 23.46938775510684
23.97959183673789 1.842105263154361 0 1.842105263154361 23.97959183673789
24.48979591836894 1.842105263154189 0 1.842105263154189 24.48979591836894
0.5102040816342031 1.31578947369025 0 1.31578947369025 0.5102040816342031
1.020408163268381 1.315789473690029 0 1.315789473690029 1.020408163268381
1.530612244902528 1.315789473689809 0 1.315789473689809 1.530612244902528
2.040816326536805 1.315789473689589 0 1.315789473689589 2.040816326536805
2.551020408171108 1.315789473689369 0 1.315789473689369 2.551020408171108
3.061224489805387 1.315789473689149 0 1.315789473689149 3.061224489805387
3.571428571439417 1.315789473688929 0 1.315789473688929 3.571428571439417
4.08163265307338 1.315789473688709 0 1.315789473688709 4.08163265307338
4.591836734707351 1.315789473688489 0 1.315789473688489 4.591836734707351
5.102040816341317 1.315789473688268 0 1.315789473688268 5.102040816341317
5.612244897975284 1.315789473688048 0 1.315789473688048 5.612244897975284
6.122448979609251 1.315789473687828 0 1.315789473687828 6.122448979609251
6.632653061243219 1.315789473687608 0 1.315789473687608 6.632653061243219
7.142857142877185 1.315789473687388 0 1.315789473687388 7.142857142877185
7.653061224511154 1.315789473687168 0 1.315789473687168 7.653061224511154
8.163265306145453 1.315789473686948 0 1.315789473686948 8.163265306145453
8.673469387780088 1.315789473686727 0 1.315789473686727 8.673469387780088
9.183673469414266 1.315789473686508 0 1.315789473686508 9.183673469414266
9.693877551046612 1.315789473686288 0 1.315789473686288 9.693877551046612
10.20408163267896 1.315789473686067 0 1.315789473686067 10.20408163267896
10.7142857143113 1.315789473685847 0 1.315789473685847 10.7142857143113
11.22448979594365 1.315789473685627 0 1.315789473685627 11.22448979594365
11.73469387757599 1.315789473685406 0 1.315789473685406 11.73469387757599
12.24489795920834 1.315789473685187 0 1.315789473685187 12.24489795920834
12.75510204084069 1.315789473684967 0 1.315789473684967 12.75510204084069
13.26530612247303 1.315789473684747 0 1.315789473684747 13.26530612247303
13.77551020410538 1.315789473684526 0 1.315789473684526 13.77551020410538
14.28571428573773 1.315789473684306 0 1.315789473684306 14.28571428573773
14.79591836737007 1.315789473684086 0 1.315789473684086 14.79591836737007
15.30612244900241 1.315789473683866 0 1.315789473683866 15.30612244900241
15.81632653063476 1.315789473683646 0 1.315789473683646 15.81632653063476
16.32653061226635 1.315789473683426 0 1.315789473683426 16.32653061226635
16.83673469389773 1.315789473683206 0 1.315789473683206 16.83673469389773
17.34693877552913 1.315789473682986 0 1.315789473682986 17.34693877552913
17.85714285716052 1.315789473682766 0 1.315789473682766 17.85714285716052
18.36734693879191 1.315789473682545 0 1.315789473682545 18.36734693879191
18.8775510204233 1.315789473682325 0 1.315789473682325 18.8775510204233
19.38775510205469 1.315789473682105 0 1.315789473682105 19.38775510205469
19.89795918368609 1.315789473681885 0 1.315789473681885 19.89795918368609
20.40816326531748 1.315789473681665 0 1.315789473681665 20.40816326531748
20.91836734694887 1.315789473681445 0 1.315789473681445 20.91836734694887
21.42857142858026 1.315789473681225 0 1.315789473681225 21.42857142858026
21.93877551021166 1.315789473681005 0 1.315789473681005 21.93877551021166
22.44897959184305 1.315789473680784 0 1.315789473680784 22.44897959184305
22.95918367347443 1.315789473680565 0 1.315789473680565 22.95918367347443
23.46938775510583 1.315789473680344 0 1.315789473680344 23.46938775510583
23.97959183673721 1.315789473680124 0 1.315789473680124 23.97959183673721
24.48979591836861 1.315789473679905 0 1.315789473679905 24.48979591836861
0.5102040816339071 0.7894736842173912 0 0.7894736842173912 0.5102040816339071
1.020408163267785 0.7894736842171405 0 0.7894736842171405 1.020408163267785
1.530612244901628 0.7894736842168895 0 0.7894736842168895 1.530612244901628
2.040816326535619 0.7894736842166389 0 0.7894736842166389 2.040816326535619
2.551020408169639 0.7894736842163879 0 0.7894736842163879 2.551020408169639
3.061224489803633 0.7894736842161376 0 0.7894736842161376 3.061224489803633
3.571428571437341 0.7894736842158865 0 0.7894736842158865 3.571428571437341
4.081632653070976 0.789473684215636 0 0.789473684215636 4.081632653070976
4.591836734704615 0.7894736842153851 0 0.7894736842153851 4.591836734704615
5.102040816338251 0.7894736842151348 0 0.7894736842151348 5.102040816338251
5.612244897971888 0.7894736842148835 0 0.7894736842148835 5.612244897971888
6.122448979605522 0.7894736842146329 0 0.7894736842146329 6.122448979605522
6.632653061239163 0.7894736842143816 0 0.7894736842143816 6.632653061239163
7.142857142872798 0.7894736842141316 0 0.7894736842141316 7.142857142872798
7.653061224506436 0.7894736842138808 0 0.7894736842138808 7.653061224506436
8.163265306140453 0.7894736842136295 0 0.7894736842136295 8.163265306140453
8.673469387774851 0.7894736842133792 0 0.7894736842133792 8.673469387774851
9.183673469408834 0.7894736842131286 0 0.7894736842131286 9.183673469408834
9.693877551041137 0.7894736842128777 0 0.7894736842128777 9.693877551041137
10.20408163267344 0.7894736842126269 0 0.7894736842126269 10.20408163267344
10.71428571430574 0.7894736842123761 0 0.7894736842123761 10.71428571430574
11.22448979593804 0.789473684212125 0 0.789473684212125 11.22448979593804
11.73469387757035 0.7894736842118742 0 0.7894736842118742 11.73469387757035
12.24489795920264 0.7894736842116237 0 0.7894736842116237 12.24489795920264
12.75510204083495 0.789473684211373 0 0.789473684211373 12.75510204083495
13.26530612246725 0.7894736842111225 0 0.7894736842111225 13.26530612246725
13.77551020409955 0.7894736842108712 0 0.7894736842108712 13.77551020409955
14.28571428573185 0.7894736842106209 0 0.7894736842106209 14.28571428573185
14.79591836736415 0.7894736842103701 0 0.7894736842103701 14.79591836736415
15.30612244899645 0.7894736842101194 0 0.7894736842101194 15.30612244899645
15.81632653062875 0.7894736842098686 0 0.7894736842098686 15.81632653062875
16.3265306122606 0.7894736842096175 0 0.7894736842096175 16.3265306122606
16.83673469389232 0.7894736842093668 0 0.7894736842093668 16.83673469389232
17.34693877552406 0.7894736842091166 0 0.7894736842091166 17.34693877552406
17.85714285715579 0.7894736842088652 0 0.7894736842088652 17.85714285715579
18.36734693878752 0.7894736842086145 0 0.7894736842086145 18.36734693878752
18.87755102041925 0.7894736842083643 0 0.7894736842083643 18.87755102041925
19.38775510205098 0.7894736842081134 0 0.7894736842081134 19.38775510205098
19.89795918368271 0.7894736842078627 0 0.7894736842078627 19.89795918368271
20.40816326531444 0.7894736842076115 0 0.7894736842076115 20.40816326531444
20.91836734694616 0.7894736842073611 0 0.7894736842073611 20.91836734694616
21.4285714285779 0.7894736842071102 0 0.7894736842071102 21.4285714285779
21.93877551020962 0.789473684206859 0 0.789473684206859 21.93877551020962
22.44897959184136 0.7894736842066088 0 0.7894736842066088 22.44897959184136
22.95918367347308 0.7894736842063579 0 0.7894736842063579 22.95918367347308
23.46938775510482 0.7894736842061074 0 0.7894736842061074 23.46938775510482
23.97959183673655 0.7894736842058563 0 0.7894736842058563 23.97959183673655
24.48979591836827 0.7894736842056056 0 0.7894736842056056 24.48979591836827
0.5102040816336111 0.2631578947430565 0 0.2631578947430565 0.5102040816336111
1.020408163267189 0.2631578947428063 0 0.2631578947428063 1.020408163267189
1.530612244900728 0.2631578947425556 0 0.2631578947425556 1.530612244900728
2.040816326534433 0.2631578947423046 0 0.2631578947423046 2.040816326534433
2.55102040816817 0.2631578947420539 0 0.2631578947420539 2.55102040816817
3.061224489801878 0.2631578947418031 0 0.2631578947418031 3.061224489801878
3.571428571435265 0.2631578947415525 0 0.2631578947415525 3.571428571435265
4.08163265306857 0.2631578947413023 0 0.2631578947413023 4.08163265306857
4.591836734701878 0.2631578947410513 0 0.2631578947410513 4.591836734701878
5.102040816335185 0.263157894740801 0 0.263157894740801 5.102040816335185
5.612244897968491 0.2631578947405502 0 0.2631578947405502 5.612244897968491
6.122448979601797 0.2631578947402994 0 0.2631578947402994 6.122448979601797
6.632653061235104 0.2631578947400485 0 0.2631578947400485 6.632653061235104
7.14285714286841 0.263157894739798 0 0.263157894739798 7.14285714286841
7.653061224501717 0.2631578947395469 0 0.2631578947395469 7.653061224501717
8.163265306135449 0.2631578947392962 0 0.2631578947392962 8.163265306135449
8.673469387769618 0.2631578947390462 0 0.2631578947390462 8.673469387769618
9.183673469403402 0.2631578947387956 0 0.2631578947387956 9.183673469403402
9.693877551035662 0.2631578947385445 0 0.2631578947385445 9.693877551035662
10.20408163266792 0.2631578947382943 0 0.2631578947382943 10.20408163266792
10.71428571430017 0.2631578947380433 0 0.2631578947380433 10.71428571430017
11.22448979593243 0.2631578947377927 0 0.2631578947377927 11.22448979593243
11.73469387756469 0.2631578947375423 0 0.2631578947375423 11.73469387756469
12.24489795919695 0.2631578947372909 0 0.2631578947372909 12.24489795919695
12.75510204082921 0.2631578947370407 0 0.2631578947370407 12.75510204082921
13.26530612246146 0.26315789473679 0 0.26315789473679 13.26530612246146
13.77551020409372 0.2631578947365394 0 0.2631578947365394 13.77551020409372
14.28571428572598 0.2631578947362885 0 0.2631578947362885 14.28571428572598
14.79591836735824 0.263157894736038 0 0.263157894736038 14.79591836735824
15.3061224489905 0.2631578947357873 0 0.2631578947357873 15.3061224489905
15.81632653062276 0.2631578947355366 0 0.2631578947355366 15.81632653062276
16.32653061225487 0.2631578947352857 0 0.2631578947352857 16.32653061225487
16.83673469388692 0.2631578947350356 0 0.2631578947350356 16.83673469388692
17.346938775519 0.2631578947347845 0 0.2631578947347845 17.346938775519
17.85714285715106 0.2631578947345342 0 0.2631578947345342 17.85714285715106
18.36734693878313 0.2631578947342835 0 0.2631578947342835 18.36734693878313
18.8775510204152 0.2631578947340323 0 0.2631578947340323 18.8775510204152
19.38775510204726 0.263157894733782 0 0.263157894733782 19.38775510204726
19.89795918367934 0.2631578947335316 0 0.2631578947335316 19.89795918367934
20.40816326531139 0.2631578947332804 0 0.2631578947332804 20.40816326531139
20.91836734694346 0.2631578947330302 0 0.2631578947330302 20.91836734694346
21.42857142857553 0.2631578947327796 0 0.2631578947327796 21.42857142857553
21.9387755102076 0.2631578947325289 0 0.2631578947325289 21.9387755102076
22.44897959183967 0.2631578947322778 0 0.2631578947322778 22.44897959183967
22.95918367347173 0.2631578947320271 0 0.2631578947320271 22.95918367347173
23.4693877551038 0.263157894731777 0 0.263157894731777 23.4693877551038
23.97959183673586 0.2631578947315263 0 0.2631578947315263 23.97959183673586
24.48979591836793 0.2631578947312752 0 0.2631578947312752 24.48979591836793
0.5102040816333153 -0.2631578947312761 0 -0.2631578947312761 0.5102040816333153
1.020408163266593 -0.2631578947315271 0 -0.2631578947315271 1.020408163266593
1.530612244899827 -0.2631578947317775 0 -0.2631578947317775 1.530612244899827
2.040816326533246 -0.2631578947320276 0 -0.2631578947320276 2.040816326533246
2.551020408166701 -0.2631578947322787 0 -0.2631578947322787 2.551020408166701
3.061224489800124 -0.2631578947325292 0 -0.2631578947325292 3.061224489800124
3.571428571433191 -0.2631578947327797 0 -0.2631578947327797 3.571428571433191
4.081632653066165 -0.2631578947330305 0 -0.2631578947330305 4.081632653066165
4.59183673469914 -0.2631578947332816 0 -0.2631578947332816 4.59183673469914
5.102040816332119 -0.2631578947335318 0 -0.2631578947335318 5.102040816332119
5.612244897965095 -0.2631578947337829 0 -0.2631578947337829 5.612244897965095
6.122448979598071 -0.2631578947340331 0 -0.2631578947340331 6.122448979598071
6.632653061231049 -0.263157894734284 0 -0.263157894734284 6.632653061231049
7.142857142864022 -0.2631578947345344 0 -0.2631578947345344 7.142857142864022
7.653061224497001 -0.2631578947347852 0 -0.2631578947347852 7.653061224497001
8.163265306130453 -0.2631578947350361 0 -0.2631578947350361 8.163265306130453
8.673469387764385 -0.2631578947352866 0 -0.2631578947352866 8.673469387764385
9.183673469397974 -0.2631578947355373 0 -0.2631578947355373 9.183673469397974
9.693877551030187 -0.263157894735788 0 -0.263157894735788 9.693877551030187
10.2040816326624 -0.2631578947360382 0 -0.2631578947360382 10.2040816326624
10.71428571429461 -0.2631578947362896 0 -0.2631578947362896 10.71428571429461
11.22448979592683 -0.2631578947365401 0 -0.2631578947365401 11.22448979592683
11.73469387755904 -0.2631578947367909 0 -0.2631578947367909 11.73469387755904
12.24489795919125 -0.2631578947370411 0 -0.2631578947370411 12.24489795919125
12.75510204082347 -0.263157894737292 0 -0.263157894737292 12.75510204082347
13.26530612245568 -0.2631578947375426 0 -0.2631578947375426 13.26530612245568
13.7755102040879 -0.2631578947377937 0 -0.2631578947377937 13.7755102040879
14.28571428572011 -0.263157894738044 0 -0.263157894738044 14.28571428572011
14.79591836735232 -0.2631578947382947 0 -0.2631578947382947 14.79591836735232
15.30612244898454 -0.2631578947385458 0 -0.2631578947385458 15.30612244898454
15.81632653061675 -0.263157894738796 0 -0.263157894738796 15.81632653061675
16.32653061224913 -0.2631578947390467 0 -0.2631578947390467 16.32653061224913
16.83673469388152 -0.2631578947392968 0 -0.2631578947392968 16.83673469388152
17.34693877551392 -0.263157894739548 0 -0.263157894739548 17.34693877551392
17.85714285714634 -0.2631578947397989 0 -0.2631578947397989 17.85714285714634
18.36734693877874 -0.2631578947400494 0 -0.2631578947400494 18.36734693877874
18.87755102041114 -0.2631578947403002 0 -0.2631578947403002 18.87755102041114
19.38775510204354 -0.2631578947405504 0 -0.2631578947405504 19.38775510204354
19.89795918367595 -0.2631578947408018 0 -0.2631578947408018 19.89795918367595
20.40816326530836 -0.2631578947410522 0 -0.2631578947410522 20.40816326530836
20.91836734694076 -0.2631578947413027 0 -0.2631578947413027 20.91836734694076
21.42857142857316 -0.2631578947415534 0 -0.2631578947415534 21.42857142857316
21.93877551020557 -0.2631578947418041 0 -0.2631578947418041 21.93877551020557
22.44897959183798 -0.2631578947420546 0 -0.2631578947420546 22.44897959183798
22.95918367347038 -0.2631578947423058 0 -0.2631578947423058 22.95918367347038
23.46938775510279 -0.263157894742556 0 -0.263157894742556 23.46938775510279
23.97959183673519 -0.2631578947428062 0 -0.2631578947428062 23.97959183673519
24.48979591836759 -0.2631578947430573 0 -0.2631578947430573 24.48979591836759
0.5102040816330193 -0.7894736842056052 0 -0.7894736842056052 0.5102040816330193
1.020408163265997 -0.7894736842058558 0 -0.7894736842058558 1.020408163265997
1.530612244898927 -0.7894736842061069 0 -0.7894736842061069 1.530612244898927
2.04081632653206 -0.7894736842063577 0 -0.7894736842063577 2.04081632653206
2.551020408165233 -0.7894736842066084 0 -0.7894736842066084 2.551020408165233
3.061224489798369 -0.7894736842068593 0 -0.7894736842068593 3.061224489798369
3.571428571431115 -0.7894736842071104 0 -0.7894736842071104 3.571428571431115
4.081632653063759 -0.7894736842073606 0 -0.7894736842073606 4.081632653063759
4.591836734696405 -0.7894736842076117 0 -0.7894736842076117 4.591836734696405
5.102040816329052 -0.789473684207862 0 -0.789473684207862 5.102040816329052
5.612244897961698 -0.7894736842081131 0 -0.7894736842081131 5.612244897961698
6.122448979594344 -0.7894736842083642 0 -0.7894736842083642 6.122448979594344
6.63265306122699 -0.789473684208615 0 -0.789473684208615 6.63265306122699
7.142857142859635 -0.7894736842088653 0 -0.7894736842088653 7.142857142859635
7.653061224492285 -0.7894736842091166 0 -0.7894736842091166 7.653061224492285
8.163265306125451 -0.7894736842093668 0 -0.7894736842093668 8.163265306125451
8.673469387759148 -0.7894736842096177 0 -0.7894736842096177 8.673469387759148
9.183673469392541 -0.7894736842098682 0 -0.7894736842098682 9.183673469392541
9.693877551024709 -0.7894736842101192 0 -0.7894736842101192 9.693877551024709
10.20408163265688 -0.7894736842103698 0 -0.7894736842103698 10.20408163265688
10.71428571428905 -0.7894736842106208 0 -0.7894736842106208 10.71428571428905
11.22448979592122 -0.7894736842108715 0 -0.7894736842108715 11.22448979592122
11.73469387755339 -0.789473684211122 0 -0.789473684211122 11.73469387755339
12.24489795918556 -0.7894736842113728 0 -0.7894736842113728 12.24489795918556
12.75510204081773 -0.7894736842116237 0 -0.7894736842116237 12.75510204081773
13.2653061224499 -0.7894736842118744 0 -0.7894736842118744 13.2653061224499
13.77551020408207 -0.7894736842121253 0 -0.7894736842121253 13.77551020408207
14.28571428571424 -0.7894736842123755 0 -0.7894736842123755 14.28571428571424
14.79591836734641 -0.7894736842126262 0 -0.7894736842126262 14.79591836734641
15.30612244897858 -0.7894736842128771 0 -0.7894736842128771 15.30612244897858
15.81632653061075 -0.789473684213128 0 -0.789473684213128 15.81632653061075
16.32653061224338 -0.7894736842133789 0 -0.7894736842133789 16.32653061224338
16.83673469387612 -0.7894736842136294 0 -0.7894736842136294 16.83673469387612
17.34693877550886 -0.7894736842138803 0 -0.7894736842138803 17.34693877550886
17.8571428571416 -0.7894736842141312 0 -0.7894736842141312 17.8571428571416
18.36734693877434 -0.7894736842143824 0 -0.7894736842143824 18.36734693877434
18.87755102040709 -0.789473684214633 0 -0.789473684214633 18.87755102040709
19.38775510203983 -0.7894736842148833 0 -0.7894736842148833 19.38775510203983
19.89795918367257 -0.7894736842151342 0 -0.7894736842151342 19.89795918367257
20.40816326530532 -0.7894736842153844 0 -0.7894736842153844 20.40816326530532
20.91836734693806 -0.789473684215636 0 -0.789473684215636 20.91836734693806
21.42857142857081 -0.7894736842158867 0 -0.7894736842158867 21.42857142857081
21.93877551020355 -0.7894736842161372 0 -0.7894736842161372 21.93877551020355
22.44897959183629 -0.7894736842163879 0 -0.7894736842163879 22.44897959183629
22.95918367346903 -0.7894736842166388 0 -0.7894736842166388 22.95918367346903
23.46938775510177 -0.7894736842168899 0 -0.7894736842168899 23.46938775510177
23.97959183673451 -0.7894736842171399 0 -0.7894736842171399 23.97959183673451
24.48979591836726 -0.7894736842173908 0 -0.7894736842173908 24.48979591836726
0.5102040816327233 -1.315789473679905 0 -1.315789473679905 0.5102040816327233
1.020408163265402 -1.315789473680124 0 -1.315789473680124 1.020408163265402
1.530612244898027 -1.315789473680345 0 -1.315789473680345 1.530612244898027
2.040816326530875 -1.315789473680565 0 -1.315789473680565 2.040816326530875
2.551020408163764 -1.315789473680785 0 -1.315789473680785 2.551020408163764
3.061224489796615 -1.315789473681005 0 -1.315789473681005 3.061224489796615
3.571428571429039 -1.315789473681225 0 -1.315789473681225 3.571428571429039
4.081632653061354 -1.315789473681445 0 -1.315789473681445 4.081632653061354
4.591836734693669 -1.315789473681666 0 -1.315789473681666 4.591836734693669
5.102040816325986 -1.315789473681885 0 -1.315789473681885 5.102040816325986
5.612244897958302 -1.315789473682105 0 -1.315789473682105 5.612244897958302
6.122448979590617 -1.315789473682325 0 -1.315789473682325 6.122448979590617
6.632653061222934 -1.315789473682546 0 -1.315789473682546 6.632653061222934
7.14285714285525 -1.315789473682766 0 -1.315789473682766 7.14285714285525
7.653061224487567 -1.315789473682986 0 -1.315789473682986 7.653061224487567
8.163265306120453 -1.315789473683207 0 -1.315789473683207 8.163265306120453
8.673469387753912 -1.315789473683426 0 -1.315789473683426 8.673469387753912
9.183673469387109 -1.315789473683646 0 -1.315789473683646 9.183673469387109
9.693877551019234 -1.315789473683867 0 -1.315789473683867 9.693877551019234
10.20408163265136 -1.315789473684086 0 -1.315789473684086 10.20408163265136
10.71428571428349 -1.315789473684307 0 -1.315789473684307 10.71428571428349
11.22448979591561 -1.315789473684527 0 -1.315789473684527 11.22448979591561
11.73469387754774 -1.315789473684747 0 -1.315789473684747 11.73469387754774
12.24489795917986 -1.315789473684967 0 -1.315789473684967 12.24489795917986
12.75510204081199 -1.315789473685187 0 -1.315789473685187 12.75510204081199
13.26530612244412 -1.315789473685407 0 -1.315789473685407 13.26530612244412
13.77551020407625 -1.315789473685627 0 -1.315789473685627 13.77551020407625
14.28571428570837 -1.315789473685847 0 -1.315789473685847 14.28571428570837
14.79591836734049 -1.315789473686067 0 -1.315789473686067 14.79591836734049
15.30612244897262 -1.315789473686288 0 -1.315789473686288 15.30612244897262
15.81632653060475 -1.315789473686507 0 -1.315789473686507 15.81632653060475
16.32653061223765 -1.315789473686728 0 -1.315789473686728 16.32653061223765
16.83673469387072 -1.315789473686948 0 -1.315789473686948 16.83673469387072
17.3469387755038 -1.315789473687168 0 -1.315789473687168 17.3469387755038
17.85714285713688 -1.315789473687388 0 -1.315789473687388 17.85714285713688
18.36734693876995 -1.315789473687609 0 -1.315789473687609 18.36734693876995
18.87755102040303 -1.315789473687828 0 -1.315789473687828 18.87755102040303
19.38775510203611 -1.315789473688048 0 -1.315789473688048 19.38775510203611
19.8979591836692 -1.315789473688268 0 -1.315789473688268 19.8979591836692
20.40816326530228 -1.315789473688489 0 -1.315789473688489 20.40816326530228
20.91836734693536 -1.315789473688709 0 -1.315789473688709 20.91836734693536
21.42857142856844 -1.315789473688929 0 -1.315789473688929 21.42857142856844
21.93877551020152 -1.315789473689149 0 -1.315789473689149 21.93877551020152
22.44897959183461 -1.315789473689369 0 -1.315789473689369 22.44897959183461
22.95918367346768 -1.315789473689589 0 -1.315789473689589 22.95918367346768
23.46938775510076 -1.31578947368981 0 -1.31578947368981 23.46938775510076
23.97959183673384 -1.31578947369003 0 -1.31578947369003 23.97959183673384
24.48979591836692 -1.31578947369025 0 -1.31578947369025 24.48979591836692
0.5102040816324276 -1.842105263154189 0 -1.842105263154189 0.5102040816324276
1.020408163264806 -1.842105263154362 0 -1.842105263154362 1.020408163264806
1.530612244897126 -1.842105263154534 0 -1.842105263154534 1.530612244897126
2.040816326529688 -1.842105263154706 0 -1.842105263154706 2.040816326529688
2.551020408162294 -1.842105263154879 0 -1.842105263154879 2.551020408162294
3.06122448979486 -1.842105263155051 0 -1.842105263155051 3.06122448979486
3.571428571426964 -1.842105263155223 0 -1.842105263155223 3.571428571426964
4.081632653058947 -1.842105263155396 0 -1.842105263155396 4.081632653058947
4.591836734690935 -1.842105263155569 0 -1.842105263155569 4.591836734690935
5.102040816322921 -1.842105263155741 0 -1.842105263155741 5.102040816322921
5.612244897954906 -1.842105263155913 0 -1.842105263155913 5.612244897954906
6.122448979586889 -1.842105263156086 0 -1.842105263156086 6.122448979586889
6.63265306121888 -1.842105263156259 0 -1.842105263156259 6.63265306121888
7.142857142850864 -1.842105263156431 0 -1.842105263156431 7.142857142850864
7.653061224482849 -1.842105263156604 0 -1.842105263156604 7.653061224482849
8.163265306115454 -1.842105263156776 0 -1.842105263156776 8.163265306115454
8.673469387748678 -1.842105263156948 0 -1.842105263156948 8.673469387748678
9.183673469381679 -1.842105263157121 0 -1.842105263157121 9.183673469381679
9.69387755101376 -1.842105263157293 0 -1.842105263157293 9.69387755101376
10.20408163264584 -1.842105263157466 0 -1.842105263157466 10.20408163264584
10.71428571427792 -1.842105263157638 0 -1.842105263157638 10.71428571427792
11.22448979591001 -1.842105263157811 0 -1.842105263157811 11.22448979591001
11.73469387754209 -1.842105263157983 0 -1.842105263157983 11.73469387754209
12.24489795917417 -1.842105263158155 0 -1.842105263158155 12.24489795917417
12.75510204080626 -1.842105263158329 0 -1.842105263158329 12.75510204080626
13.26530612243834 -1.8421052631585 0 -1.8421052631585 13.26530612243834
13.77551020407042 -1.842105263158672 0 -1.842105263158672 13.77551020407042
14.2857142857025 -1.842105263158845 0 -1.842105263158845 14.2857142857025
14.79591836733458 -1.842105263159018 0 -1.842105263159018 14.79591836733458
15.30612244896666 -1.842105263159191 0 -1.842105263159191 15.30612244896666
15.81632653059874 -1.842105263159363 0 -1.842105263159363 15.81632653059874
16.32653061223191 -1.842105263159535 0 -1.842105263159535 16.32653061223191
16.83673469386532 -1.842105263159708 0 -1.842105263159708 16.83673469386532
17.34693877549873 -1.84210526315988 0 -1.84210526315988 17.34693877549873
17.85714285713215 -1.842105263160053 0 -1.842105263160053 17.85714285713215
18.36734693876557 -1.842105263160225 0 -1.842105263160225 18.36734693876557
18.87755102039898 -1.842105263160397 0 -1.842105263160397 18.87755102039898
19.3877551020324 -1.84210526316057 0 -1.84210526316057 19.3877551020324
19.89795918366582 -1.842105263160743 0 -1.842105263160743 19.89795918366582
20.40816326529924 -1.842105263160914 0 -1.842105263160914 20.40816326529924
20.91836734693265 -1.842105263161087 0 -1.842105263161087 20.91836734693265
21.42857142856607 -1.84210526316126 0 -1.84210526316126 21.42857142856607
21.93877551019949 -1.842105263161433 0 -1.842105263161433 21.93877551019949
22.44897959183291 -1.842105263161605 0 -1.842105263161605 22.44897959183291
22.95918367346633 -1.842105263161778 0 -1.842105263161778 22.95918367346633
23.46938775509975 -1.84210526316195 0 -1.84210526316195 23.46938775509975
23.97959183673316 -1.842105263162122 0 -1.842105263162122 23.97959183673316
24.48979591836658 -1.842105263162295 0 -1.842105263162295 24.48979591836658
0.5102040816321316 -2.368421052628471 0 -2.368421052628471 0.5102040816321316
1.02040816326421 -2.368421052628597 0 -2.368421052628597 1.02040816326421
1.530612244896226 -2.368421052628721 0 -2.368421052628721 1.530612244896226
2.040816326528502 -2.368421052628846 0 -2.368421052628846 2.040816326528502
2.551020408160825 -2.36842105262897 0 -2.36842105262897 2.551020408160825
3.061224489793106 -2.368421052629096 0 -2.368421052629096 3.061224489793106
3.571428571424888 -2.368421052629221 0 -2.368421052629221 3.571428571424888
4.081632653056542 -2.368421052629347 0 -2.368421052629347 4.081632653056542
4.591836734688198 -2.36842105262947 0 -2.36842105262947 4.591836734688198
5.102040816319852 -2.368421052629596 0 -2.368421052629596 5.102040816319852
5.612244897951509 -2.368421052629721 0 -2.368421052629721 5.612244897951509
6.122448979583163 -2.368421052629845 0 -2.368421052629845 6.122448979583163
6.632653061214822 -2.36842105262997 0 -2.36842105262997 6.632653061214822
7.142857142846475 -2.368421052630095 0 -2.368421052630095 7.142857142846475
7.653061224478135 -2.36842105263022 0 -2.36842105263022 7.653061224478135
8.163265306110452 -2.368421052630344 0 -2.368421052630344 8.163265306110452
8.673469387743445 -2.368421052630469 0 -2.368421052630469 8.673469387743445
9.183673469376245 -2.368421052630594 0 -2.368421052630594 9.183673469376245
9.693877551008285 -2.368421052630718 0 -2.368421052630718 9.693877551008285
10.20408163264032 -2.368421052630844 0 -2.368421052630844 10.20408163264032
10.71428571427236 -2.368421052630969 0 -2.368421052630969 10.71428571427236
11.2244897959044 -2.368421052631092 0 -2.368421052631092 11.2244897959044
11.73469387753644 -2.368421052631218 0 -2.368421052631218 11.73469387753644
12.24489795916847 -2.368421052631343 0 -2.368421052631343 12.24489795916847
12.75510204080051 -2.368421052631468 0 -2.368421052631468 12.75510204080051
13.26530612243255 -2.368421052631593 0 -2.368421052631593 13.26530612243255
13.77551020406459 -2.368421052631717 0 -2.368421052631717 13.77551020406459
14.28571428569663 -2.368421052631843 0 -2.368421052631843 14.28571428569663
14.79591836732866 -2.368421052631967 0 -2.368421052631967 14.79591836732866
15.30612244896071 -2.368421052632092 0 -2.368421052632092 15.30612244896071
15.81632653059274 -2.368421052632216 0 -2.368421052632216 15.81632653059274
16.32653061222616 -2.368421052632342 0 -2.368421052632342 16.32653061222616
16.83673469385991 -2.368421052632466 0 -2.368421052632466 16.83673469385991
17.34693877549367 -2.36842105263259 0 -2.36842105263259 17.34693877549367
17.85714285712742 -2.368421052632716 0 -2.368421052632716 17.85714285712742
18.36734693876118 -2.368421052632841 0 -2.368421052632841 18.36734693876118
18.87755102039493 -2.368421052632965 0 -2.368421052632965 18.87755102039493
19.38775510202868 -2.368421052633091 0 -2.368421052633091 19.38775510202868
19.89795918366244 -2.368421052633216 0 -2.368421052633216 19.89795918366244
20.4081632652962 -2.36842105263334 0 -2.36842105263334 20.4081632652962
20.91836734692995 -2.368421052633464 0 -2.368421052633464 20.91836734692995
21.42857142856371 -2.36842105263359 0 -2.36842105263359 21.42857142856371
21.93877551019747 -2.368421052633715 0 -2.368421052633715 21.93877551019747
22.44897959183122 -2.368421052633839 0 -2.368421052633839 22.44897959183122
22.95918367346497 -2.368421052633965 0 -2.368421052633965 22.95918367346497
23.46938775509874 -2.36842105263409 0 -2.36842105263409 23.46938775509874
23.9795918367325 -2.368421052634214 0 -2.368421052634214 23.9795918367325
24.48979591836624 -2.368421052634338 0 -2.368421052634338 24.48979591836624
0.5102040816318356 -2.894736842102756 0 -2.894736842102756 0.5102040816318356
1.020408163263614 -2.894736842102834 0 -2.894736842102834 1.020408163263614
1.530612244895326 -2.894736842102911 0 -2.894736842102911 1.530612244895326
2.040816326527315 -2.894736842102989 0 -2.894736842102989 2.040816326527315
2.551020408159356 -2.894736842103065 0 -2.894736842103065 2.551020408159356
3.061224489791352 -2.894736842103143 0 -2.894736842103143 3.061224489791352
3.571428571422812 -2.89473684210322 0 -2.89473684210322 3.571428571422812
4.081632653054135 -2.894736842103298 0 -2.894736842103298 4.081632653054135
4.591836734685462 -2.894736842103374 0 -2.894736842103374 4.591836734685462
5.102040816316787 -2.894736842103451 0 -2.894736842103451 5.102040816316787
5.612244897948113 -2.894736842103527 0 -2.894736842103527 5.612244897948113
6.122448979579437 -2.894736842103605 0 -2.894736842103605 6.122448979579437
6.632653061210764 -2.894736842103683 0 -2.894736842103683 6.632653061210764
7.142857142842088 -2.89473684210376 0 -2.89473684210376 7.142857142842088
7.653061224473416 -2.894736842103837 0 -2.894736842103837 7.653061224473416
8.163265306105449 -2.894736842103915 0 -2.894736842103915 8.163265306105449
8.673469387738209 -2.894736842103992 0 -2.894736842103992 8.673469387738209
9.183673469370817 -2.894736842104069 0 -2.894736842104069 9.183673469370817
9.69387755100281 -2.894736842104146 0 -2.894736842104146 9.69387755100281
10.20408163263481 -2.894736842104223 0 -2.894736842104223 10.20408163263481
10.7142857142668 -2.8947368421043 0 -2.8947368421043 10.7142857142668
11.22448979589879 -2.894736842104378 0 -2.894736842104378 11.22448979589879
11.73469387753079 -2.894736842104455 0 -2.894736842104455 11.73469387753079
12.24489795916278 -2.894736842104533 0 -2.894736842104533 12.24489795916278
12.75510204079477 -2.894736842104609 0 -2.894736842104609 12.75510204079477
13.26530612242677 -2.894736842104686 0 -2.894736842104686 13.26530612242677
13.77551020405877 -2.894736842104763 0 -2.894736842104763 13.77551020405877
14.28571428569076 -2.89473684210484 0 -2.89473684210484 14.28571428569076
14.79591836732275 -2.894736842104918 0 -2.894736842104918 14.79591836732275
15.30612244895475 -2.894736842104994 0 -2.894736842104994 15.30612244895475
15.81632653058674 -2.894736842105073 0 -2.894736842105073 15.81632653058674
16.32653061222042 -2.894736842105149 0 -2.894736842105149 16.32653061222042
16.83673469385451 -2.894736842105226 0 -2.894736842105226 16.83673469385451
17.3469387754886 -2.894736842105303 0 -2.894736842105303 17.3469387754886
17.85714285712269 -2.89473684210538 0 -2.89473684210538 17.85714285712269
18.36734693875679 -2.894736842105458 0 -2.894736842105458 18.36734693875679
18.87755102039088 -2.894736842105534 0 -2.894736842105534 18.87755102039088
19.38775510202497 -2.894736842105613 0 -2.894736842105613 19.38775510202497
19.89795918365908 -2.894736842105689 0 -2.894736842105689 19.89795918365908
20.40816326529316 -2.894736842105767 0 -2.894736842105767 20.40816326529316
20.91836734692725 -2.894736842105844 0 -2.894736842105844 20.91836734692725
21.42857142856136 -2.89473684210592 0 -2.89473684210592 21.42857142856136
21.93877551019544 -2.894736842105998 0 -2.894736842105998 21.93877551019544
22.44897959182953 -2.894736842106075 0 -2.894736842106075 22.44897959182953
22.95918367346363 -2.894736842106153 0 -2.894736842106153 22.95918367346363
23.46938775509772 -2.89473684210623 0 -2.89473684210623 23.46938775509772
23.97959183673181 -2.894736842106307 0 -2.894736842106307 23.97959183673181
24.4897959183659 -2.894736842106384 0 -2.894736842106384 24.4897959183659
0.5102040816315399 -3.421052631577038 0 -3.421052631577038 0.5102040816315399
1.020408163263018 -3.421052631577068 0 -3.421052631577068 1.020408163263018
1.530612244894425 -3.421052631577098 0 -3.421052631577098 1.530612244894425
2.040816326526129 -3.421052631577127 0 -3.421052631577127 2.040816326526129
2.551020408157887 -3.421052631577156 0 -3.421052631577156 2.551020408157887
3.061224489789597 -3.421052631577187 0 -3.421052631577187 3.061224489789597
3.571428571420737 -3.421052631577217 0 -3.421052631577217 3.571428571420737
4.08163265305173 -3.421052631577246 0 -3.421052631577246 4.08163265305173
4.591836734682727 -3.421052631577275 0 -3.421052631577275 4.591836734682727
5.102040816313721 -3.421052631577305 0 -3.421052631577305 5.102040816313721
5.612244897944716 -3.421052631577334 0 -3.421052631577334 5.612244897944716
6.122448979575712 -3.421052631577364 0 -3.421052631577364 6.122448979575712
6.632653061206707 -3.421052631577393 0 -3.421052631577393 6.632653061206707
7.142857142837702 -3.421052631577423 0 -3.421052631577423 7.142857142837702
7.653061224468699 -3.421052631577453 0 -3.421052631577453 7.653061224468699
8.163265306100454 -3.421052631577482 0 -3.421052631577482 8.163265306100454
8.673469387732977 -3.421052631577512 0 -3.421052631577512 8.673469387732977
9.183673469365383 -3.421052631577541 0 -3.421052631577541 9.183673469365383
9.693877550997332 -3.421052631577571 0 -3.421052631577571 9.693877550997332
10.20408163262929 -3.4210526315776 0 -3.4210526315776 10.20408163262929
10.71428571426123 -3.42105263157763 0 -3.42105263157763 10.71428571426123
11.22448979589318 -3.421052631577659 0 -3.421052631577659 11.22448979589318
11.73469387752513 -3.421052631577689 0 -3.421052631577689 11.73469387752513
12.24489795915709 -3.421052631577719 0 -3.421052631577719 12.24489795915709
12.75510204078904 -3.421052631577748 0 -3.421052631577748 12.75510204078904
13.26530612242098 -3.421052631577778 0 -3.421052631577778 13.26530612242098
13.77551020405294 -3.421052631577807 0 -3.421052631577807 13.77551020405294
14.28571428568489 -3.421052631577837 0 -3.421052631577837 14.28571428568489
14.79591836731684 -3.421052631577867 0 -3.421052631577867 14.79591836731684
15.30612244894879 -3.421052631577895 0 -3.421052631577895 15.30612244894879
15.81632653058074 -3.421052631577925 0 -3.421052631577925 15.81632653058074
16.32653061221468 -3.421052631577956 0 -3.421052631577956 16.32653061221468
16.83673469384911 -3.421052631577985 0 -3.421052631577985 16.83673469384911
17.34693877548354 -3.421052631578014 0 -3.421052631578014 17.34693877548354
17.85714285711797 -3.421052631578045 0 -3.421052631578045 17.85714285711797
18.3673469387524 -3.421052631578074 0 -3.421052631578074 18.3673469387524
18.87755102038683 -3.421052631578103 0 -3.421052631578103 18.87755102038683
19.38775510202126 -3.421052631578133 0 -3.421052631578133 19.38775510202126
19.89795918365569 -3.421052631578163 0 -3.421052631578163 19.89795918365569
20.40816326529012 -3.421052631578193 0 -3.421052631578193 20.40816326529012
20.91836734692455 -3.421052631578222 0 -3.421052631578222 20.91836734692455
21.42857142855898 -3.421052631578251 0 -3.421052631578251 21.42857142855898
21.93877551019342 -3.421052631578281 0 -3.421052631578281 21.93877551019342
22.44897959182785 -3.421052631578311 0 -3.421052631578311 22.44897959182785
22.95918367346228 -3.42105263157834 0 -3.42105263157834 22.95918367346228
23.46938775509671 -3.42105263157837 0 -3.42105263157837 23.46938775509671
23.97959183673115 -3.4210526315784 0 -3.4210526315784 23.97959183673115
24.48979591836557 -3.421052631578429 0 -3.421052631578429 24.48979591836557
0.5102040816312436 -3.94736842105134 0 -3.94736842105134 0.5102040816312436
1.020408163262422 -3.94736842105134 0 -3.94736842105134 1.020408163262422
1.530612244893525 -3.947368421051338 0 -3.947368421051338 1.530612244893525
2.040816326524943 -3.947368421051338 0 -3.947368421051338 2.040816326524943
2.551020408156418 -3.94736842105134 0 -3.94736842105134 2.551020408156418
3.061224489787842 -3.947368421051338 0 -3.947368421051338 3.061224489787842
3.571428571418662 -3.947368421051339 0 -3.947368421051339 3.571428571418662
4.081632653049325 -3.947368421051338 0 -3.947368421051338 4.081632653049325
4.59183673467999 -3.947368421051338 0 -3.947368421051338 4.59183673467999
5.102040816310655 -3.947368421051336 0 -3.947368421051336 5.102040816310655
5.61224489794132 -3.947368421051337 0 -3.947368421051337 5.61224489794132
6.122448979571985 -3.947368421051337 0 -3.947368421051337 6.122448979571985
6.63265306120265 -3.947368421051337 0 -3.947368421051337 6.63265306120265
7.142857142833315 -3.947368421051336 0 -3.947368421051336 7.142857142833315
7.653061224463983 -3.947368421051336 0 -3.947368421051336 7.653061224463983
8.163265306095452 -3.947368421051337 0 -3.947368421051337 8.163265306095452
8.673469387727742 -3.947368421051337 0 -3.947368421051337 8.673469387727742
9.183673469359952 -3.947368421051336 0 -3.947368421051336 9.183673469359952
9.693877550991857 -3.947368421051336 0 -3.947368421051336 9.693877550991857
10.20408163262377 -3.947368421051336 0 -3.947368421051336 10.20408163262377
10.71428571425567 -3.947368421051336 0 -3.947368421051336 10.71428571425567
11.22448979588758 -3.947368421051336 0 -3.947368421051336 11.22448979588758
11.73469387751948 -3.947368421051336 0 -3.947368421051336 11.73469387751948
12.24489795915139 -3.947368421051336 0 -3.947368421051336 12.24489795915139
12.7551020407833 -3.947368421051335 0 -3.947368421051335 12.7551020407833
13.2653061224152 -3.947368421051336 0 -3.947368421051336 13.2653061224152
13.77551020404711 -3.947368421051336 0 -3.947368421051336 13.77551020404711
14.28571428567902 -3.947368421051334 0 -3.947368421051334 14.28571428567902
14.79591836731092 -3.947368421051335 0 -3.947368421051335 14.79591836731092
15.30612244894283 -3.947368421051333 0 -3.947368421051333 15.30612244894283
15.81632653057473 -3.947368421051335 0 -3.947368421051335 15.81632653057473
16.32653061220894 -3.947368421051335 0 -3.947368421051335 16.32653061220894
16.83673469384371 -3.947368421051334 0 -3.947368421051334 16.83673469384371
17.34693877547847 -3.947368421051334 0 -3.947368421051334 17.34693877547847
17.85714285711324 -3.947368421051333 0 -3.947368421051333 17.85714285711324
18.36734693874801 -3.947368421051333 0 -3.947368421051333 18.36734693874801
18.87755102038277 -3.947368421051334 0 -3.947368421051334 18.87755102038277
19.38775510201754 -3.947368421051333 0 -3.947368421051333 19.38775510201754
19.89795918365232 -3.947368421051334 0 -3.947368421051334 19.89795918365232
20.40816326528709 -3.947368421051332 0 -3.947368421051332 20.40816326528709
20.91836734692185 -3.947368421051333 0 -3.947368421051333 20.91836734692185
21.42857142855662 -3.947368421051333 0 -3.947368421051333 21.42857142855662
21.93877551019139 -3.947368421051334 0 -3.947368421051334 21.93877551019139
22.44897959182617 -3.947368421051332 0 -3.947368421051332 22.44897959182617
22.95918367346092 -3.947368421051332 0 -3.947368421051332 22.95918367346092
23.4693877550957 -3.947368421051332 0 -3.947368421051332 23.4693877550957
23.97959183673046 -3.947368421051331 0 -3.947368421051331 23.97959183673046
24.48979591836523 -3.947368421051332 0 -3.947368421051332 24.48979591836523
0.5102040816309479 -4.473684210525668 0 -4.473684210525668 0.5102040816309479
1.020408163261826 -4.47368421052567 0 -4.47368421052567 1.020408163261826
1.530612244892624 -4.47368421052567 0 -4.47368421052567 1.530612244892624
2.040816326523757 -4.473684210525668 0 -4.473684210525668 2.040816326523757
2.551020408154949 -4.47368421052567 0 -4.47368421052567 2.551020408154949
3.061224489786088 -4.473684210525669 0 -4.473684210525669 3.061224489786088
3.571428571416585 -4.473684210525671 0 -4.473684210525671 3.571428571416585
4.08163265304692 -4.47368421052567 0 -4.47368421052567 4.08163265304692
4.591836734677252 -4.473684210525671 0 -4.473684210525671 4.591836734677252
5.102040816307589 -4.47368421052567 0 -4.47368421052567 5.102040816307589
5.612244897937924 -4.47368421052567 0 -4.47368421052567 5.612244897937924
6.122448979568258 -4.47368421052567 0 -4.47368421052567 6.122448979568258
6.632653061198593 -4.473684210525669 0 -4.473684210525669 6.632653061198593
7.142857142828929 -4.473684210525668 0 -4.473684210525668 7.142857142828929
7.653061224459266 -4.473684210525671 0 -4.473684210525671 7.653061224459266
8.163265306090453 -4.473684210525669 0 -4.473684210525669 8.163265306090453
8.673469387722506 -4.473684210525669 0 -4.473684210525669 8.673469387722506
9.183673469354524 -4.473684210525669 0 -4.473684210525669 9.183673469354524
9.693877550986382 -4.473684210525669 0 -4.473684210525669 9.693877550986382
10.20408163261825 -4.473684210525668 0 -4.473684210525668 10.20408163261825
10.71428571425011 -4.473684210525669 0 -4.473684210525669 10.71428571425011
11.22448979588197 -4.473684210525668 0 -4.473684210525668 11.22448979588197
11.73469387751384 -4.473684210525668 0 -4.473684210525668 11.73469387751384
12.2448979591457 -4.473684210525669 0 -4.473684210525669 12.2448979591457
12.75510204077756 -4.473684210525669 0 -4.473684210525669 12.75510204077756
13.26530612240942 -4.473684210525668 0 -4.473684210525668 13.26530612240942
13.77551020404129 -4.473684210525669 0 -4.473684210525669 13.77551020404129
14.28571428567315 -4.473684210525669 0 -4.473684210525669 14.28571428567315
14.79591836730501 -4.473684210525669 0 -4.473684210525669 14.79591836730501
15.30612244893687 -4.473684210525669 0 -4.473684210525669 15.30612244893687
15.81632653056874 -4.473684210525667 0 -4.473684210525667 15.81632653056874
16.3265306122032 -4.473684210525668 0 -4.473684210525668 16.3265306122032
16.8367346938383 -4.473684210525669 0 -4.473684210525669 16.8367346938383
17.34693877547341 -4.473684210525669 0 -4.473684210525669 17.34693877547341
17.85714285710851 -4.473684210525667 0 -4.473684210525667 17.85714285710851
18.36734693874362 -4.473684210525668 0 -4.473684210525668 18.36734693874362
18.87755102037872 -4.473684210525668 0 -4.473684210525668 18.87755102037872
19.38775510201383 -4.473684210525667 0 -4.473684210525667 19.38775510201383
19.89795918364894 -4.473684210525668 0 -4.473684210525668 19.89795918364894
20.40816326528405 -4.473684210525668 0 -4.473684210525668 20.40816326528405
20.91836734691915 -4.473684210525667 0 -4.473684210525667 20.91836734691915
21.42857142855426 -4.473684210525668 0 -4.473684210525668 21.42857142855426
21.93877551018936 -4.473684210525667 0 -4.473684210525667 21.93877551018936
22.44897959182447 -4.473684210525667 0 -4.473684210525667 22.44897959182447
22.95918367345958 -4.473684210525668 0 -4.473684210525668 22.95918367345958
23.46938775509468 -4.473684210525665 0 -4.473684210525665 23.46938775509468
23.97959183672979 -4.473684210525667 0 -4.473684210525667 23.97959183672979
24.48979591836489 -4.473684210525666 0 -4.473684210525666 24.48979591836489
$EndNodes
$Elements
9 1071 1 1071
0 1 15 1
137 1 
0 2 15 1
138 2 
0 3 15 1
139 3 
0 4 15 1
140 4 
1 1 1 19
1 1 5 
2 5 6 
3 6 7 
4 7 8 
5 8 9 
6 9 10 
7 10 11 
8 11 12 
9 12 13 
10 13 14 
11 14 15 
12 15 16 
13 16 17 
14 17 18 
15 18 19 
16 19 20 
17 20 21 
18 21 22 
19 22 2 
1 2 1 49
20 2 23 
21 23 24 
22 24 25 
23 25 26 
24 26 27 
25 27 28 
26 28 29 
27 29 30 
28 30 31 
29 31 32 
30 32 33 
31 33 34 
32 34 35 
33 35 36 
34 36 37 
35 37 38 
36 38 39 
37 39 40 
38 40 41 
39 41 42 
40 42 43 
41 43 44 
42 44 45 
43 45 46 
44 46 47 
45 47 48 
46 48 49 
47 49 50 
48 50 51 
49 51 52 
50 52 53 
51 53 54 
52 54 55 
53 55 56 
54 56 57 
55 57 58 
56 58 59 
57 59 60 
58 60 61 
59 61 62 
60 62 63 
61 63 64 
62 64 65 
63 65 66 
64 66 67 
65 67 68 
66 68 69 
67 69 70 
68 70 3 
1 3 1 19
69 3 71 
70 71 72 
71 72 73 
72 73 74 
73 74 75 
74 75 76 
75 76 77 
76 77 78 
77 78 79 
78 79 80 
79 80 81 
80 81 82 
81 82 83 
82 83 84 
83 84 85 
84 85 86 
85 86 87 
86 87 88 
87 88 4 
1 4 1 49
88 4 89 
89 89 90 
90 90 91 
91 91 92 
92 92 93 
93 93 94 
94 94 95 
95 95 96 
96 96 97 
97 97 98 
98 98 99 
99 99 100 
100 100 101 
101 101 102 
102 102 103 
103 103 104 
104 104 105 
105 105 106 
106 106 107 
107 107 108 
108 108 109 
109 109 110 
110 110 111 
111 111 112 
112 112 113 
113 113 114 
114 114 115 
115 115 116 
116 116 117 
117 117 118 
118 118 119 
119 119 120 
120 120 121 
121 121 122 
122 122 123 
123 123 124 
124 124 125 
125 125 126 
126 126 127 
127 127 128 
128 128 129 
129 129 130 
130 130 131 
131 131 132 
132 132 133 
133 133 134 
134 134 135 
135 135 136 
136 136 1 
2 1 3 931
141 1 5 137 136 
142 136 137 138 135 
143 135 138 139 134 
144 134 139 140 133 
145 133 140 141 132 
146 132 141 142 131 
147 131 142 143 130 
148 130 143 144 129 
149 129 144 145 128 
150 128 145 146 127 
151 127 146 147 126 
152 126 147 148 125 
153 125 148 149 124 
154 124 149 150 123 
155 123 150 151 122 
156 122 151 152 121 
157 121 152 153 120 
158 120 153 154 119 
159 119 154 155 118 
160 118 155 156 117 
161 117 156 157 116 
162 116 157 158 115 
163 115 158 159 114 
164 114 159 160 113 
165 113 160 161 112 
166 112 161 162 111 
167 111 162 163 110 
168 110 163 164 109 
169 109 164 165 108 
170 108 165 166 107 
171 107 166 167 106 
172 106 167 168 105 
173 105 168 169 104 
174 104 169 170 103 
175 103 170 171 102 
176 102 171 172 101 
177 101 172 173 100 
178 100 173 174 99 
179 99 174 175 98 
180 98 175 176 97 
181 97 176 177 96 
182 96 177 178 95 
183 95 178 179 94 
184 94 179 180 93 
185 93 180 181 92 
186 92 181 182 91 
187 91 182 183 90 
188 90 183 184 89 
189 89 184 88 4 
190 5 6 185 137 
191 137 185 186 138 
192 138 186 187 139 
193 139 187 188 140 
194 140 188 189 141 
195 141 189 190 142 
196 142 190 191 143 
197 143 191 192 144 
198 144 192 193 145 
199 145 193 194 146 
200 146 194 195 147 
201 147 195 196 148 
202 148 196 197 149 
203 149 197 198 150 
204 150 198 199 151 
205 151 199 200 152 
206 152 200 201 153 
207 153 201 202 154 
208 154 202 203 155 
209 155 203 204 156 
210 156 204 205 157 
211 157 205 206 158 
212 158 206 207 159 
213 159 207 208 160 
214 160 208 209 161 
215 161 209 210 162 
216 162 210 211 163 
217 163 211 212 164 
218 164 212 213 165 
219 165 213 214 166 
220 166 214 215 167 
221 167 215 216 168 
222 168 216 217 169 
223 169 217 218 170 
224 170 218 219 171 
225 171 219 220 172 
226 172 220 221 173 
227 173 221 222 174 
228 174 222 223 175 
229 175 223 224 176 
230 176 224 225 177 
231 177 225 226 178 
232 178 226 227 179 
233 179 227 228 180 
234 180 228 229 181 
235 181 229 230 182 
236 182 230 231 183 
237 183 231 232 184 
238 184 232 87 88 
239 6 7 233 185 
240 185 233 234 186 
241 186 234 235 187 
242 187 235 236 188 
243 188 236 237 189 
244 189 237 238 190 
245 190 238 239 191 
246 191 239 240 192 
247 192 240 241 193 
248 193 241 242 194 
249 194 242 243 195 
250 195 243 244 196 
251 196 244 245 197 
252 197 245 246 198 
253 198 246 247 199 
254 199 247 248 200 
255 200 248 249 201 
256 201 249 250 202 
257 202 250 251 203 
258 203 251 252 204 
259 204 252 253 205 
260 205 253 254 206 
261 206 254 255 207 
262 207 255 256 208 
263 208 256 257 209 
264 209 257 258 210 
265 210 258 259 211 
266 211 259 260 212 
267 212 260 261 213 
268 213 261 262 214 
269 214 262 263 215 
270 215 263 264 216 
271 216 264 265 217 
272 217 265 266 218 
273 218 266 267 219 
274 219 267 268 220 
275 220 268 269 221 
276 221 269 270 222 
277 222 270 271 223 
278 223 271 272 224 
279 224 272 273 225 
280 225 273 274 226 
281 226 274 275 227 
282 227 275 276 228 
283 228 276 277 229 
284 229 277 278 230 
285 230 278 279 231 
286 231 279 280 232 
287 232 280 86 87 
288 7 8 281 233 
289 233 281 282 234 
290 234 282 283 235 
291 235 283 284 236 
292 236 284 285 237 
293 237 285 286 238 
294 238 286 287 239 
295 239 287 288 240 
296 240 288 289 241 
297 241 289 290 242 
298 242 290 291 243 
299 243 291 292 244 
300 244 292 293 245 
301 245 293 294 246 
302 246 294 295 247 
303 247 295 296 248 
304 248 296 297 249 
305 249 297 298 250 
306 250 298 299 251 
307 251 299 300 252 
308 252 300 301 253 
309 253 301 302 254 
310 254 302 303 255 
311 255 303 304 256 
312 256 304 305 257 
313 257 305 306 258 
314 258 306 307 259 
315 259 307 308 260 
316 260 308 309 261 
317 261 309 310 262 
318 262 310 311 263 
319 263 311 312 264 
320 264 312 313 265 
321 265 313 314 266 
322 266 314 315 267 
323 267 315 316 268 
324 268 316 317 269 
325 269 317 318 270 
326 270 318 319 271 
327 271 319 320 272 
328 272 320 321 273 
329 273 321 322 274 
330 274 322 323 275 
331 275 323 324 276 
332 276 324 325 277 
333 277 325 326 278 
334 278 326 327 279 
335 279 327 328 280 
336 280 328 85 86 
337 8 9 329 281 
338 281 329 330 282 
339 282 330 331 283 
340 283 331 332 284 
341 284 332 333 285 
342 285 333 334 286 
343 286 334 335 287 
344 287 335 336 288 
345 288 336 337 289 
346 289 337 338 290 
347 290 338 339 291 
348 291 339 340 292 
349 292 340 341 293 
350 293 341 342 294 
351 294 342 343 295 
352 295 343 344 296 
353 296 344 345 297 
354 297 345 346 298 
355 298 346 347 299 
356 299 347 348 300 
357 300 348 349 301 
358 301 349 350 302 
359 302 350 351 303 
360 303 351 352 304 
361 304 352 353 305 
362 305 353 354 306 
363 306 354 355 307 
364 307 355 356 308 
365 308 356 357 309 
366 309 357 358 310 
367 310 358 359 311 
368 311 359 360 312 
369 312 360 361 313 
370 313 361 362 314 
371 314 362 363 315 
372 315 363 364 316 
373 316 364 365 317 
374 317 365 366 318 
375 318 366 367 319 
376 319 367 368 320 
377 320 368 369 321 
378 321 369 370 322 
379 322 370 371 323 
380 323 371 372 324 
381 324 372 373 325 
382 325 373 374 326 
383 326 374 375 327 
384 327 375 376 328 
385 328 376 84 85 
386 9 10 377 329 
387 329 377 378 330 
388 330 378 379 331 
389 331 379 380 332 
390 332 380 381 333 
391 333 381 382 334 
392 334 382 383 335 
393 335 383 384 336 
394 336 384 385 337 
395 337 385 386 338 
396 338 386 387 339 
397 339 387 388 340 
398 340 388 389 341 
399 341 389 390 342 
400 342 390 391 343 
401 343 391 392 344 
402 344 392 393 345 
403 345 393 394 346 
404 346 394 395 347 
405 347 395 396 348 
406 348 396 397 349 
407 349 397 398 350 
408 350 398 399 351 
409 351 399 400 352 
410 352 400 401 353 
411 353 401 402 354 
412 354 402 403 355 
413 355 403 404 356 
414 356 404 405 357 
415 357 405 406 358 
416 358 406 407 359 
417 359 407 408 360 
418 360 408 409 361 
419 361 409 410 362 
420 362 410 411 363 
421 363 411 412 364 
422 364 412 413 365 
423 365 413 414 366 
424 366 414 415 367 
425 367 415 416 368 
426 368 416 417 369 
427 369 417 418 370 
428 370 418 419 371 
429 371 419 420 372 
430 372 420 421 373 
431 373 421 422 374 
432 374 422 423 375 
433 375 423 424 376 
434 376 424 83 84 
435 10 11 425 377 
436 377 425 426 378 
437 378 426 427 379 
438 379 427 428 380 
439 380 428 429 381 
440 381 429 430 382 
441 382 430 431 383 
442 383 431 432 384 
443 384 432 433 385 
444 385 433 434 386 
445 386 434 435 387 
446 387 435 436 388 
447 388 436 437 389 
448 389 437 438 390 
449 390 438 439 391 
450 391 439 440 392 
451 392 440 441 393 
452 393 441 442 394 
453 394 442 443 395 
454 395 443 444 396 
455 396 444 445 397 
456 397 445 446 398 
457 398 446 447 399 
458 399 447 448 400 
459 400 448 449 401 
460 401 449 450 402 
461 402 450 451 403 
462 403 451 452 404 
463 404 452 453 405 
464 405 453 454 406 
465 406 454 455 407 
466 407 455 456 408 
467 408 456 457 409 
468 409 457 458 410 
469 410 458 459 411 
470 411 459 460 412 
471 412 460 461 413 
472 413 461 462 414 
473 414 462 463 415 
474 415 463 464 416 
475 416 464 465 417 
476 417 465 466 418 
477 418 466 467 419 
478 419 467 468 420 
479 420 468 469 421 
480 421 469 470 422 
481 422 470 471 423 
482 423 471 472 424 
483 424 472 82 83 
484 11 12 473 425 
485 425 473 474 426 
486 426 474 475 427 
487 427 475 476 428 
488 428 476 477 429 
489 429 477 478 430 
490 430 478 479 431 
491 431 479 480 432 
492 432 480 481 433 
493 433 481 482 434 
494 434 482 483 435 
495 435 483 484 436 
496 436 484 485 437 
497 437 485 486 438 
498 438 486 487 439 
499 439 487 488 440 
500 440 488 489 441 
501 441 489 490 442 
502 442 490 491 443 
503 443 491 492 444 
504 444 492 493 445 
505 445 493 494 446 
506 446 494 495 447 
507 447 495 496 448 
508 448 496 497 449 
509 449 497 498 450 
510 450 498 499 451 
511 451 499 500 452 
512 452 500 501 453 
513 453 501 502 454 
514 454 502 503 455 
515 455 503 504 456 
516 456 504 505 457 
517 457 505 506 458 
518 458 506 507 459 
519 459 507 508 460 
520 460 508 509 461 
521 461 509 510 462 
522 462 510 511 463 
523 463 511 512 464 
524 464 512 513 465 
525 465 513 514 466 
526 466 514 515 467 
527 467 515 516 468 
528 468 516 517 469 
529 469 517 518 470 
530 470 518 519 471 
531 471 519 520 472 
532 472 520 81 82 
533 12 13 521 473 
534 473 521 522 474 
535 474 522 523 475 
536 475 523 524 476 
537 476 524 525 477 
538 477 525 526 478 
539 478 526 527 479 
540 479 527 528 480 
541 480 528 529 481 
542 481 529 530 482 
543 482 530 531 483 
544 483 531 532 484 
545 484 532 533 485 
546 485 533 534 486 
547 486 534 535 487 
548 487 535 536 488 
549 488 536 537 489 
550 489 537 538 490 
551 490 538 539 491 
552 491 539 540 492 
553 492 540 541 493 
554 493 541 542 494 
555 494 542 543 495 
556 495 543 544 496 
557 496 544 545 497 
558 497 545 546 498 
559 498 546 547 499 
560 499 547 548 500 
561 500 548 549 501 
562 501 549 550 502 
563 502 550 551 503 
564 503 551 552 504 
565 504 552 553 505 
566 505 553 554 506 
567 506 554 555 507 
568 507 555 556 508 
569 508 556 557 509 
570 509 557 558 510 
571 510 558 559 511 
572 511 559 560 512 
573 512 560 561 513 
574 513 561 562 514 
575 514 562 563 515 
576 515 563 564 516 
577 516 564 565 517 
578 517 565 566 518 
579 518 566 567 519 
580 519 567 568 520 
581 520 568 80 81 
582 13 14 569 521 
583 521 569 570 522 
584 522 570 571 523 
585 523 571 572 524 
586 524 572 573 525 
587 525 573 574 526 
588 526 574 575 527 
589 527 575 576 528 
590 528 576 577 529 
591 529 577 578 530 
592 530 578 579 531 
593 531 579 580 532 
594 532 580 581 533 
595 533 581 582 534 
596 534 582 583 535 
597 535 583 584 536 
598 536 584 585 537 
599 537 585 586 538 
600 538 586 587 539 
601 539 587 588 540 
602 540 588 589 541 
603 541 589 590 542 
604 542 590 591 543 
605 543 591 592 544 
606 544 592 593 545 
607 545 593 594 546 
608 546 594 595 547 
609 547 595 596 548 
610 548 596 597 549 
611 549 597 598 550 
612 550 598 599 551 
613 551 599 600 552 
614 552 600 601 553 
615 553 601 602 554 
616 554 602 603 555 
617 555 603 604 556 
618 556 604 605 557 
619 557 605 606 558 
620 558 606 607 559 
621 559 607 608 560 
622 560 608 609 561 
623 561 609 610 562 
624 562 610 611 563 
625 563 611 612 564 
626 564 612 613 565 
627 565 613 614 566 
628 566 614 615 567 
629 567 615 616 568 
630 568 616 79 80 
631 14 15 617 569 
632 569 617 618 570 
633 570 618 619 571 
634 571 619 620 572 
635 572 620 621 573 
636 573 621 622 574 
637 574 622 623 575 
638 575 623 624 576 
639 576 624 625 577 
640 577 625 626 578 
641 578 626 627 579 
642 579 627 628 580 
643 580 628 629 581 
644 581 629 630 582 
645 582 630 631 583 
646 583 631 632 584 
647 584 632 633 585 
648 585 633 634 586 
649 586 634 635 587 
650 587 635 636 588 
651 588 636 637 589 
652 589 637 638 590 
653 590 638 639 591 
654 591 639 640 592 
655 592 640 641 593 
656 593 641 642 594 
657 594 642 643 595 
658 595 643 644 596 
659 596 644 645 597 
660 597 645 646 598 
661 598 646 647 599 
662 599 647 648 600 
663 600 648 649 601 
664 601 649 650 602 
665 602 650 651 603 
666 603 651 652 604 
667 604 652 653 605 
668 605 653 654 606 
669 606 654 655 607 
670 607 655 656 608 
671 608 656 657 609 
672 609 657 658 610 
673 610 658 659 611 
674 611 659 660 612 
675 612 660 661 613 
676 613 661 662 614 
677 614 662 663 615 
678 615 663 664 616 
679 616 664 78 79 
680 15 16 665 617 
681 617 665 666 618 
682 618 666 667 619 
683 619 667 668 620 
684 620 668 669 621 
685 621 669 670 622 
686 622 670 671 623 
687 623 671 672 624 
688 624 672 673 625 
689 625 673 674 626 
690 626 674 675 627 
691 627 675 676 628 
692 628 676 677 629 
693 629 677 678 630 
694 630 678 679 631 
695 631 679 680 632 
696 632 680 681 633 
697 633 681 682 634 
698 634 682 683 635 
699 635 683 684 636 
700 636 684 685 637 
701 637 685 686 638 
702 638 686 687 639 
703 639 687 688 640 
704 640 688 689 641 
705 641 689 690 642 
706 642 690 691 643 
707 643 691 692 644 
708 644 692 693 645 
709 645 693 694 646 
710 646 694 695 647 
711 647 695 696 648 
712 648 696 697 649 
713 649 697 698 650 
714 650 698 699 651 
715 651 699 700 652 
716 652 700 701 653 
717 653 701 702 654 
718 654 702 703 655 
719 655 703 704 656 
720 656 704 705 657 
721 657 705 706 658 
722 658 706 707 659 
723 659 707 708 660 
724 660 708 709 661 
725 661 709 710 662 
726 662 710 711 663 
727 663 711 712 664 
728 664 712 77 78 
729 16 17 713 665 
730 665 713 714 666 
731 666 714 715 667 
732 667 715 716 668 
733 668 716 717 669 
734 669 717 718 670 
735 670 718 719 671 
736 671 719 720 672 
737 672 720 721 673 
738 673 721 722 674 
739 674 722 723 675 
740 675 723 724 676 
741 676 724 725 677 
742 677 725 726 678 
743 678 726 727 679 
744 679 727 728 680 
745 680 728 729 681 
746 681 729 730 682 
747 682 730 731 683 
748 683 731 732 684 
749 684 732 733 685 
750 685 733 734 686 
751 686 734 735 687 
752 687 735 736 688 
753 688 736 737 689 
754 689 737 738 690 
755 690 738 739 691 
756 691 739 740 692 
757 692 740 741 693 
758 693 741 742 694 
759 694 742 743 695 
760 695 743 744 696 
761 696 744 745 697 
762 697 745 746 698 
763 698 746 747 699 
764 699 747 748 700 
765 700 748 749 701 
766 701 749 750 702 
767 702 750 751 703 
768 703 751 752 704 
769 704 752 753 705 
770 705 753 754 706 
771 706 754 755 707 
772 707 755 756 708 
773 708 756 757 709 
774 709 757 758 710 
775 710 758 759 711 
776 711 759 760 712 
777 712 760 76 77 
778 17 18 761 713 
779 713 761 762 714 
780 714 762 763 715 
781 715 763 764 716 
782 716 764 765 717 
783 717 765 766 718 
784 718 766 767 719 
785 719 767 768 720 
786 720 768 769 721 
787 721 769 770 722 
788 722 770 771 723 
789 723 771 772 724 
790 724 772 773 725 
791 725 773 774 726 
792 726 774 775 727 
793 727 775 776 728 
794 728 776 777 729 
795 729 777 778 730 
796 730 778 779 731 
797 731 779 780 732 
798 732 780 781 733 
799 733 781 782 734 
800 734 782 783 735 
801 735 783 784 736 
802 736 784 785 737 
803 737 785 786 738 
804 738 786 787 739 
805 739 787 788 740 
806 740 788 789 741 
807 741 789 790 742 
808 742 790 791 743 
809 743 791 792 744 
810 744 792 793 745 
811 745 793 794 746 
812 746 794 795 747 
813 747 795 796 748 
814 748 796 797 749 
815 749 797 798 750 
816 750 798 799 751 
817 751 799 800 752 
818 752 800 801 753 
819 753 801 802 754 
820 754 802 803 755 
821 755 803 804 756 
822 756 804 805 757 
823 757 805 806 758 
824 758 806 807 759 
825 759 807 808 760 
826 760 808 75 76 
827 18 19 809 761 
828 761 809 810 762 
829 762 810 811 763 
830 763 811 812 764 
831 764 812 813 765 
832 765 813 814 766 
833 766 814 815 767 
834 767 815 816 768 
835 768 816 817 769 
836 769 817 818 770 
837 770 818 819 771 
838 771 819 820 772 
839 772 820 821 773 
840 773 821 822 774 
841 774 822 823 775 
842 775 823 824 776 
843 776 824 825 777 
844 777 825 826 778 
845 778 826 827 779 
846 779 827 828 780 
847 780 828 829 781 
848 781 829 830 782 
849 782 830 831 783 
850 783 831 832 784 
851 784 832 833 785 
852 785 833 834 786 
853 786 834 835 787 
854 787 835 836 788 
855 788 836 837 789 
856 789 837 838 790 
857 790 838 839 791 
858 791 839 840 792 
859 792 840 841 793 
860 793 841 842 794 
861 794 842 843 795 
862 795 843 844 796 
863 796 844 845 797 
864 797 845 846 798 
865 798 846 847 799 
866 799 847 848 800 
867 800 848 849 801 
868 801 849 850 802 
869 802 850 851 803 
870 803 851 852 804 
871 804 852 853 805 
872 805 853 854 806 
873 806 854 855 807 
874 807 855 856 808 
875 808 856 74 75 
876 19 20 857 809 
877 809 857 858 810 
878 810 858 859 811 
879 811 859 860 812 
880 812 860 861 813 
881 813 861 862 814 
882 814 862 863 815 
883 815 863 864 816 
884 816 864 865 817 
885 817 865 866 818 
886 818 866 867 819 
887 819 867 868 820 
888 820 868 869 821 
889 821 869 870 822 
890 822 870 871 823 
891 823 871 872 824 
892 824 872 873 825 
893 825 873 874 826 
894 826 874 875 827 
895 827 875 876 828 
896 828 876 877 829 
897 829 877 878 830 
898 830 878 879 831 
899 831 879 880 832 
900 832 880 881 833 
901 833 881 882 834 
902 834 882 883 835 
903 835 883 884 836 
904 836 884 885 837 
905 837 885 886 838 
906 838 886 887 839 
907 839 887 888 840 
908 840 888 889 841 
909 841 889 890 842 
910 842 890 891 843 
911 843 891 892 844 
912 844 892 893 845 
913 845 893 894 846 
914 846 894 895 847 
915 847 895 896 848 
916 848 896 897 849 
917 849 897 898 850 
918 850 898 899 851 
919 851 899 900 852 
920 852 900 901 853 
921 853 901 902 854 
922 854 902 903 855 
923 855 903 904 856 
924 856 904 73 74 
925 20 21 905 857 
926 857 905 906 858 
927 858 906 907 859 
928 859 907 908 860 
929 860 908 909 861 
930 861 909 910 862 
931 862 910 911 863 
932 863 911 912 864 
933 864 912 913 865 
934 865 913 914 866 
935 866 914 915 867 
936 867 915 916 868 
937 868 916 917 869 
938 869 917 918 870 
939 870 918 919 871 
940 871 919 920 872 
941 872 920 921 873 
942 873 921 922 874 
943 874 922 923 875 
944 875 923 924 876 
945 876 924 925 877 
946 877 925 926 878 
947 878 926 927 879 
948 879 927 928 880 
949 880 928 929 881 
950 881 929 930 882 
951 882 930 931 883 
952 883 931 932 884 
953 884 932 933 885 
954 885 933 934 886 
955 886 934 935 887 
956 887 935 936 888 
957 888 936 937 889 
958 889 937 938 890 
959 890 938 939 891 
960 891 939 940 892 
961 892 940 941 893 
962 893 941 942 894 
963 894 942 943 895 
964 895 943 944 896 
965 896 944 945 897 
966 897 945 946 898 
967 898 946 947 899 
968 899 947 948 900 
969 900 948 949 901 
970 901 949 950 902 
971 902 950 951 903 
972 903 951 952 904 
973 904 952 72 73 
974 21 22 953 905 
975 905 953 954 906 
976 906 954 955 907 
977 907 955 956 908 
978 908 956 957 909 
979 909 957 958 910 
980 910 958 959 911 
981 911 959 960 912 
982 912 960 961 913 
983 913 961 962 914 
984 914 962 963 915 
985 915 963 964 916 
986 916 964 965 917 
987 917 965 966 918 
988 918 966 967 919 
989 919 967 968 920 
990 920 968 969 921 
991 921 969 970 922 
992 922 970 971 923 
993 923 971 972 924 
994 924 972 973 925 
995 925 973 974 926 
996 926 974 975 927 
997 927 975 976 928 
998 928 976 977 929 
999 929 977 978 930 
1000 930 978 979 931 
1001 931 979 980 932 
1002 932 980 981 933 
1003 933 981 982 934 
1004 934 982 983 935 
1005 935 983 984 936 
1006 936 984 985 937 
1007 937 985 986 938 
1008 938 986 987 939 
1009 939 987 988 940 
1010 940 988 989 941 
1011 941 989 990 942 
1012 942 990 991 943 
1013 943 991 992 944 
1014 944 992 993 945 
1015 945 993 994 946 
1016 946 994 995 947 
1017 947 995 996 948 
1018 948 996 997 949 
1019 949 997 998 950 
1020 950 998 999 951 
1021 951 999 1000 952 
1022 952 1000 71 72 
1023 22 2 23 953 
1024 953 23 24 954 
1025 954 24 25 955 
1026 955 25 26 956 
1027 956 26 27 957 
1028 957 27 28 958 
1029 958 28 29 959 
1030 959 29 30 960 
1031 960 30 31 961 
1032 961 31 32 962 
1033 962 32 33 963 
1034 963 33 34 964 
1035 964 34 35 965 
1036 965 35 36 966 
1037 966 36 37 967 
1038 967 37 38 968 
1039 968 38 39 969 
1040 969 39 40 970 
1041 970 40 41 971 
1042 971 41 42 972 
1043 972 42 43 973 
1044 973 43 44 974 
1045 974 44 45 975 
1046 975 45 46 976 
1047 976 46 47 977 
1048 977 47 48 978 
1049 978 48 49 979 
1050 979 49 50 980 
1051 980 50 51 981 
1052 981 51 52 982 
1053 982 52 53 983 
1054 983 53 54 984 
1055 984 54 55 985 
1056 985 55 56 986 
1057 986 56 57 987 
1058 987 57 58 988 
1059 988 58 59 989 
1060 989 59 60 990 
1061 990 60 61 991 
1062 991 61 62 992 
1063 992 62 63 993 
1064 993 63 64 994 
1065 994 64 65 995 
1066 995 65 66 996 
1067 996 66 67 997 
1068 997 67 68 998 
1069 998 68 69 999 
1070 999 69 70 1000 
1071 1000 70 3 71 
$EndElements
