$MeshFormat
4.1 0 8
$EndMeshFormat
$PhysicalNames
3
1 17 "velocity-inlet"
1 18 "pressure-outlet"
1 19 "slip-wall"
$EndPhysicalNames
$Entities
87 16 5 0
1 0.004833 0.014049 0 0 
2 0.011907 0.02112 0 0 
3 0.022051 0.028152 0 0 
4 0.035214 0.035076 0 0 
5 0.051324 0.041808 0 0 
6 0.070289 0.048257 0 0 
7 0.09199599999999999 0.054325 0 0 
8 0.116313 0.059917 0 0 
9 0.143089 0.06494 0 0 
10 0.172151 0.06930799999999999 0 0 
11 0.203313 0.072945 0 0 
12 0.236371 0.07579 0 0 
13 0.271106 0.077795 0 0 
14 0.307289 0.07893 0 0 
15 0.34468 0.07918 0 0 
16 0.383032 0.07854700000000001 0 0 
17 0.421921 0.077082 0 0 
18 0.461143 0.074977 0 0 
19 0.500587 0.07230300000000001 0 0 
20 0.540006 0.06911299999999999 0 0 
21 0.579153 0.065468 0 0 
22 0.617783 0.061432 0 0 
23 0.655659 0.057071 0 0 
24 0.692545 0.052453 0 0 
25 0.728216 0.047648 0 0 
26 0.762452 0.042726 0 0 
27 0.7950469999999999 0.03776 0 0 
28 0.825802 0.032822 0 0 
29 0.854532 0.027985 0 0 
30 0.881064 0.023324 0 0 
31 0.90524 0.01891 0 0 
32 0.926917 0.014814 0 0 
33 0.945966 0.011105 0 0 
34 0.962276 0.007845 0 0 
35 0.975752 0.005092 0 0 
36 0.986314 0.002896 0 0 
37 0.993903 0.001298 0 0 
38 0.998474 0.000326 0 0 
39 0 0 0 0 
40 0.002223 -0.006689 0 0 
41 0.007479 -0.012828 0 0 
42 0.015723 -0.018404 0 0 
43 0.026892 -0.023408 0 0 
44 0.040906 -0.027826 0 0 
45 0.057669 -0.031651 0 0 
46 0.077071 -0.034878 0 0 
47 0.09898700000000001 -0.037507 0 0 
48 0.123281 -0.039546 0 0 
49 0.149805 -0.041012 0 0 
50 0.178401 -0.041933 0 0 
51 0.208902 -0.042343 0 0 
52 0.241131 -0.04229 0 0 
53 0.274904 -0.041827 0 0 
54 0.310028 -0.041016 0 0 
55 0.346303 -0.039923 0 0 
56 0.383522 -0.038617 0 0 
57 0.421645 -0.037134 0 0 
58 0.460398 -0.035388 0 0 
59 0.499413 -0.033414 0 0 
60 0.538453 -0.031267 0 0 
61 0.577282 -0.028997 0 0 
62 0.615662 -0.026651 0 0 
63 0.653358 -0.024269 0 0 
64 0.6901389999999999 -0.021884 0 0 
65 0.7257749999999999 -0.019529 0 0 
66 0.760046 -0.017226 0 0 
67 0.7927380000000001 -0.014999 0 0 
68 0.823646 -0.012865 0 0 
69 0.852575 -0.010842 0 0 
70 0.879342 -0.008946000000000001 0 0 
71 0.9037770000000001 -0.007191 0 0 
72 0.925723 -0.005594 0 0 
73 0.94504 -0.004169 0 0 
74 0.961603 -0.002931 0 0 
75 0.975305 -0.001896 0 0 
76 0.986056 -0.001076 0 0 
77 0.993785 -0.000481 0 0 
78 0.998444 -0.000121 0 0 
79 1 0 0 0 
80 -0.5 4 0 0 
81 -0.5 -4 0 0 
82 10 -4 0 0 
83 10 4 0 0 
84 10 0 0 0 
85 1 4 0 0 
86 1 -4 0 0 
90 0.001 0.007 0 0 
1 0.004832999999999976 -0.04128633333333333 0 0.9871572222222222 0.07349144444444446 0 0 2 1 -1 
2 -3.9791797402508 -4.000000000000001 0 -0.5 4.000000000000001 0 1 17 2 81 -80 
3 -0.5 0.04825699999999999 0 0.07028900000000002 4 0 0 2 6 -80 
4 -0.5 -4 0 0.077071 -0.03487799999999996 0 0 2 46 -81 
5 1 0 0 1 4 0 0 2 79 -85 
6 1 -4 0 1 0 0 0 2 79 -86 
7 1 0 0 10 0 0 0 2 79 -84 
8 -0.5 -4 0 1 -4 0 1 17 2 81 -86 
9 1 -4 0 10 -4 0 1 17 2 86 -82 
10 -0.5 4 0 1 4 0 1 17 2 80 -85 
11 1 4 0 10 4 0 1 17 2 85 -83 
12 10 0 0 10 4 0 1 18 2 84 -83 
13 10 -4 0 10 0 0 1 18 2 84 -82 
14 0.0003899259259259255 -0.034878 0 0.077071 0.048257 0 1 19 2 46 -6 
15 0.07028899999999999 0 0 1 0.07827055555555557 0 1 19 2 6 -79 
16 0.077071 -0.04222057201646091 0 1 0 0 1 19 2 46 -79 
1 -3.9791797402508 -4.000000000000001 0 0.07707100000000011 4.000000000000001 0 0 4 2 -3 -14 4 
2 -0.5 0 0 1 4 0 0 4 3 10 -5 -15 
3 1 0 0 10 4 0 0 4 5 11 -12 -7 
4 1 -4 0 10 0 0 0 4 7 13 -9 -6 
5 -0.5 -4 0 1 0 0 0 4 6 -8 -4 16 
$EndEntities
$Nodes
108 918 1 918
0 1 0 1
117
0.004833 0.014049 0
0 2 0 1
118
0.011907 0.02112 0
0 3 0 1
119
0.022051 0.028152 0
0 4 0 1
120
0.035214 0.035076 0
0 5 0 1
121
0.051324 0.041808 0
0 6 0 1
1
0.070289 0.048257 0
0 7 0 1
122
0.09199599999999999 0.054325 0
0 8 0 1
123
0.116313 0.059917 0
0 9 0 1
124
0.143089 0.06494 0
0 10 0 1
125
0.172151 0.06930799999999999 0
0 11 0 1
126
0.203313 0.072945 0
0 12 0 1
127
0.236371 0.07579 0
0 13 0 1
128
0.271106 0.077795 0
0 14 0 1
129
0.307289 0.07893 0
0 15 0 1
130
0.34468 0.07918 0
0 16 0 1
131
0.383032 0.07854700000000001 0
0 17 0 1
132
0.421921 0.077082 0
0 18 0 1
133
0.461143 0.074977 0
0 19 0 1
134
0.500587 0.07230300000000001 0
0 20 0 1
135
0.540006 0.06911299999999999 0
0 21 0 1
136
0.579153 0.065468 0
0 22 0 1
137
0.617783 0.061432 0
0 23 0 1
138
0.655659 0.057071 0
0 24 0 1
139
0.692545 0.052453 0
0 25 0 1
140
0.728216 0.047648 0
0 26 0 1
141
0.762452 0.042726 0
0 27 0 1
142
0.7950469999999999 0.03776 0
0 28 0 1
143
0.825802 0.032822 0
0 29 0 1
144
0.854532 0.027985 0
0 30 0 1
145
0.881064 0.023324 0
0 31 0 1
146
0.90524 0.01891 0
0 32 0 1
147
0.926917 0.014814 0
0 33 0 1
148
0.945966 0.011105 0
0 34 0 1
149
0.962276 0.007845 0
0 35 0 1
150
0.975752 0.005092 0
0 36 0 1
151
0.986314 0.002896 0
0 37 0 1
152
0.993903 0.001298 0
0 38 0 1
153
0.998474 0.000326 0
0 39 0 1
154
0 0 0
0 40 0 1
155
0.002223 -0.006689 0
0 41 0 1
156
0.007479 -0.012828 0
0 42 0 1
157
0.015723 -0.018404 0
0 43 0 1
158
0.026892 -0.023408 0
0 44 0 1
159
0.040906 -0.027826 0
0 45 0 1
160
0.057669 -0.031651 0
0 46 0 1
2
0.077071 -0.034878 0
0 47 0 1
161
0.09898700000000001 -0.037507 0
0 48 0 1
162
0.123281 -0.039546 0
0 49 0 1
163
0.149805 -0.041012 0
0 50 0 1
164
0.178401 -0.041933 0
0 51 0 1
165
0.208902 -0.042343 0
0 52 0 1
166
0.241131 -0.04229 0
0 53 0 1
167
0.274904 -0.041827 0
0 54 0 1
168
0.310028 -0.041016 0
0 55 0 1
169
0.346303 -0.039923 0
0 56 0 1
170
0.383522 -0.038617 0
0 57 0 1
171
0.421645 -0.037134 0
0 58 0 1
172
0.460398 -0.035388 0
0 59 0 1
173
0.499413 -0.033414 0
0 60 0 1
174
0.538453 -0.031267 0
0 61 0 1
175
0.577282 -0.028997 0
0 62 0 1
176
0.615662 -0.026651 0
0 63 0 1
177
0.653358 -0.024269 0
0 64 0 1
178
0.6901389999999999 -0.021884 0
0 65 0 1
179
0.7257749999999999 -0.019529 0
0 66 0 1
180
0.760046 -0.017226 0
0 67 0 1
181
0.7927380000000001 -0.014999 0
0 68 0 1
182
0.823646 -0.012865 0
0 69 0 1
183
0.852575 -0.010842 0
0 70 0 1
184
0.879342 -0.008946000000000001 0
0 71 0 1
185
0.9037770000000001 -0.007191 0
0 72 0 1
186
0.925723 -0.005594 0
0 73 0 1
187
0.94504 -0.004169 0
0 74 0 1
188
0.961603 -0.002931 0
0 75 0 1
189
0.975305 -0.001896 0
0 76 0 1
190
0.986056 -0.001076 0
0 77 0 1
191
0.993785 -0.000481 0
0 78 0 1
192
0.998444 -0.000121 0
0 79 0 1
3
1 0 0
0 80 0 1
4
-0.5 4 0
0 81 0 1
5
-0.5 -4 0
0 82 0 1
6
10 -4 0
0 83 0 1
7
10 4 0
0 84 0 1
8
10 0 0
0 85 0 1
9
1 4 0
0 86 0 1
10
1 -4 0
0 90 0 1
193
0.001 0.007 0
1 1 1 3
194
195
196
0.9919382262853058 0.001711718328644266 0 0.4524190180079192
0.0005197803132900303 1.697073555571621e-07 0 0.4810060686745532
0.9906899301833915 -0.000719267116170536 0 0.9569563425982228
1 2 1 8
11
12
13
14
15
16
17
18
-1.738092010317462 -3.637174200347106 0 0.1111111113735552
-2.79814838077478 -2.901786628814648 0 0.2222222228146409
-3.571585782032144 -1.869164252168827 0 0.3333333341716223
-3.979179742291824 -0.6450802884404235 0 0.4444444455381583
-3.979179738155578 0.6450803139548651 0 0.5555555566783109
-3.571585772602588 1.869164270186754 0 0.666666667572243
-2.798148371248006 2.901786638001171 0 0.7777777783202382
-1.73809200450762 3.637174203123449 0 0.8888888891786106
1 3 1 11
197
198
199
200
201
202
203
204
205
206
207
0.04362039538103731 0.2330536059712768 0 0.04676331582577025
0.01428493062398967 0.4363298702958732 0 0.09820296266631538
-0.01798408022691711 0.6599337584069798 0 0.1547865735213499
-0.0534799921344471 0.9058980351319355 0 0.2170285454119702
-0.09252549522309504 1.176458739462622 0 0.2854947144747576
-0.1354755487607874 1.474075515197733 0 0.3608075006896281
-0.1827206079620501 1.801453970653083 0 0.4436515660692212
-0.2346901732257434 2.161570272640045 0 0.5347800382363036
-0.2918566951360901 2.557698205659197 0 0.6350213578310121
-0.3547398689163151 2.993438929754854 0 0.7452868088220448
-0.4239113597253611 3.472753723840329 0 0.8665788042998569
1 4 1 11
208
209
210
211
212
213
214
215
216
217
218
0.05008524657311193 -0.2203002523736755 0 0.0467633158257616
0.02040091813118555 -0.4242647277333938 0 0.09820296266631739
-0.01225184276853791 -0.648625647974115 0 0.1547865735213482
-0.04816987972941478 -0.8954226600408902 0 0.217028545411942
-0.08767972037665336 -1.166899373247515 0 0.2854947144747412
-0.1311405452304525 -1.465523758749378 0 0.3608075006896075
-0.1789474528831246 -1.794010584955475 0 0.4436515660692091
-0.2315350514450913 -2.15534609477181 0 0.5347800382363544
-0.2893814099849233 -2.552815156405778 0 0.6350213578310525
-0.353012404053766 -2.99003112197022 0 0.7452868088220791
-0.4230064971761275 -3.47096868166309 0 0.8665788042998652
1 5 1 11
219
220
221
222
223
224
225
226
227
228
229
1 0.1870532633030565 0 0.04676331582576413
1 0.392811850665271 0 0.09820296266631776
1 0.6191462940853624 0 0.1547865735213406
1 0.8681141816477385 0 0.2170285454119346
1 1.14197885789895 0 0.2854947144747375
1 1.443230002758391 0 0.3608075006895977
1 1.774606264276707 0 0.4436515660691768
1 2.139120152945265 0 0.5347800382363163
1 2.540085431324111 0 0.6350213578310278
1 2.98114723528826 0 0.7452868088220651
1 3.466315217199371 0 0.8665788042998428
1 6 1 11
230
231
232
233
234
235
236
237
238
239
240
1 -0.1870532633030565 0 0.04676331582576413
1 -0.392811850665271 0 0.09820296266631776
1 -0.6191462940853624 0 0.1547865735213406
1 -0.8681141816477385 0 0.2170285454119346
1 -1.14197885789895 0 0.2854947144747375
1 -1.443230002758391 0 0.3608075006895977
1 -1.774606264276707 0 0.4436515660691768
1 -2.139120152945265 0 0.5347800382363163
1 -2.540085431324111 0 0.6350213578310278
1 -2.98114723528826 0 0.7452868088220651
1 -3.466315217199371 0 0.8665788042998428
1 7 1 18
241
242
243
244
245
246
247
248
249
250
251
252
253
254
255
256
257
258
1.175921815170027 0 0 0.01954686835222521
1.369435805296518 0 0 0.04104842281072418
1.58230119673454 0 0 0.06470013297050443
1.816453132719644 0 0 0.09071701474662713
2.074020263073344 0 0 0.1193355847859271
2.357344102391782 0 0 0.1508160113768646
2.669000324996624 0 0 0.1854444805551805
3.011822171451003 0 0 0.2235357968278893
3.388926205384435 0 0 0.265436245042715
3.803740643593012 0 0 0.3115267381770013
4.260036520908697 0 0 0.3622262801009664
4.761961987220906 0 0 0.4179957763578785
5.31407999959186 0 0 0.4793422221768734
5.921409810416523 0 0 0.5468233122685026
6.589472606402275 0 0 0.621052511822475
7.324341683833489 0 0 0.7027046315370543
8.132697669569186 0 0 0.7925219632854651
9.021889254553541 0 0 0.8913210282837267
1 8 1 8
19
20
21
22
23
24
25
26
-0.3333333333339502 -4 0 0.1111111111106999
-0.1666666666679004 -4 0 0.2222222222213998
-1.850131159386592e-12 -4 0 0.3333333333320999
0.1666666666642003 -4 0 0.4444444444428002
0.3333333333308672 -4 0 0.5555555555539115
0.4999999999981503 -4 0 0.6666666666654335
0.6666666666654333 -4 0 0.7777777777769556
0.8333333333327166 -4 0 0.8888888888884777
1 9 1 18
27
28
29
30
31
32
33
34
35
36
37
38
39
40
41
42
43
44
1.175921815170027 -4 0 0.01954686835222521
1.369435805296518 -4 0 0.04104842281072418
1.58230119673454 -4 0 0.06470013297050443
1.816453132719644 -4 0 0.09071701474662713
2.074020263073344 -4 0 0.1193355847859271
2.357344102391782 -4 0 0.1508160113768646
2.669000324996624 -4 0 0.1854444805551805
3.011822171451003 -4 0 0.2235357968278893
3.388926205384435 -4 0 0.265436245042715
3.803740643593012 -4 0 0.3115267381770013
4.260036520908697 -4 0 0.3622262801009664
4.761961987220906 -4 0 0.4179957763578785
5.31407999959186 -4 0 0.4793422221768734
5.921409810416523 -4 0 0.5468233122685026
6.589472606402275 -4 0 0.621052511822475
7.324341683833489 -4 0 0.7027046315370543
8.132697669569186 -4 0 0.7925219632854651
9.021889254553541 -4 0 0.8913210282837267
1 10 1 8
45
46
47
48
49
50
51
52
-0.3333333333339502 4 0 0.1111111111106999
-0.1666666666679004 4 0 0.2222222222213998
-1.850131159386592e-12 4 0 0.3333333333320999
0.1666666666642003 4 0 0.4444444444428002
0.3333333333308672 4 0 0.5555555555539115
0.4999999999981503 4 0 0.6666666666654335
0.6666666666654333 4 0 0.7777777777769556
0.8333333333327166 4 0 0.8888888888884777
1 11 1 18
53
54
55
56
57
58
59
60
61
62
63
64
65
66
67
68
69
70
1.175921815170027 4 0 0.01954686835222521
1.369435805296518 4 0 0.04104842281072418
1.58230119673454 4 0 0.06470013297050443
1.816453132719644 4 0 0.09071701474662713
2.074020263073344 4 0 0.1193355847859271
2.357344102391782 4 0 0.1508160113768646
2.669000324996624 4 0 0.1854444805551805
3.011822171451003 4 0 0.2235357968278893
3.388926205384435 4 0 0.265436245042715
3.803740643593012 4 0 0.3115267381770013
4.260036520908697 4 0 0.3622262801009664
4.761961987220906 4 0 0.4179957763578785
5.31407999959186 4 0 0.4793422221768734
5.921409810416523 4 0 0.5468233122685026
6.589472606402275 4 0 0.621052511822475
7.324341683833489 4 0 0.7027046315370543
8.132697669569186 4 0 0.7925219632854651
9.021889254553541 4 0 0.8913210282837267
1 12 1 11
71
72
73
74
75
76
77
78
79
80
81
10 0.1870532633030565 0 0.04676331582576413
10 0.392811850665271 0 0.09820296266631776
10 0.6191462940853624 0 0.1547865735213406
10 0.8681141816477385 0 0.2170285454119346
10 1.14197885789895 0 0.2854947144747375
10 1.443230002758391 0 0.3608075006895977
10 1.774606264276707 0 0.4436515660691768
10 2.139120152945265 0 0.5347800382363163
10 2.540085431324111 0 0.6350213578310278
10 2.98114723528826 0 0.7452868088220651
10 3.466315217199371 0 0.8665788042998428
1 13 1 11
82
83
84
85
86
87
88
89
90
91
92
10 -0.1870532633030565 0 0.04676331582576413
10 -0.392811850665271 0 0.09820296266631776
10 -0.6191462940853624 0 0.1547865735213406
10 -0.8681141816477385 0 0.2170285454119346
10 -1.14197885789895 0 0.2854947144747375
10 -1.443230002758391 0 0.3608075006895977
10 -1.774606264276707 0 0.4436515660691768
10 -2.139120152945265 0 0.5347800382363163
10 -2.540085431324111 0 0.6350213578310278
10 -2.98114723528826 0 0.7452868088220651
10 -3.466315217199371 0 0.8665788042998428
1 14 1 8
93
94
95
96
97
98
99
100
0.05711860581317084 -0.03154316561644527 0 0.06870020660114302
0.03744331900060816 -0.02686393389395167 0 0.1486399564931177
0.01849975348599818 -0.01983490471405925 0 0.2483670922310851
0.002739816628628674 -0.007525502908688855 0 0.3912572998013487
0.003115975965961758 0.01153992693947107 0 0.5763044058585675
0.01766822517893448 0.02537543940021285 0 0.7069187634435967
0.03536067587341849 0.03515364948264438 0 0.8016088214755586
0.05113910784963443 0.04173833245778966 0 0.9326326427615506
1 15 1 8
101
102
103
104
105
106
107
108
0.1722603916029704 0.06932253393794785 0 0.121322191503904
0.2761005102840451 0.07800697061733307 0 0.2163755552646864
0.3803182202314892 0.0786187830862987 0 0.3009006973479378
0.4844218266736284 0.07346326619507801 0 0.3815275023996147
0.5882746188989436 0.06455409543229916 0 0.4616604900122363
0.6918161983738876 0.05254758823041227 0 0.5448460272640975
0.7949987829671782 0.03776753789159566 0 0.6363175100609926
0.8977592000587744 0.02029244904965228 0 0.7478642524057655
1 16 1 8
109
110
111
112
113
114
115
116
0.1830968046331724 -0.04203129536036701 0 0.1014158615272559
0.289415554598313 -0.04152734075104619 0 0.1809156145489217
0.3956887938405979 -0.0381625650869668 0 0.2517434144814474
0.5006759337370247 -0.033357201893224 0 0.3258356475650263
0.6005447751644871 -0.02758556535449572 0 0.4049823413476433
0.7066553302807546 -0.02079776556101994 0 0.4746129699665925
0.8127403669788655 -0.01362110567330239 0 0.5521961983343229
0.9085075520554686 -0.006848214517227566 0 0.6876425109699849
2 1 1 88
259
260
261
262
263
264
265
266
267
268
269
270
271
272
273
274
275
276
277
278
279
280
281
282
283
284
285
286
287
288
289
290
291
292
293
294
295
296
297
298
299
300
301
302
303
304
305
306
307
308
309
310
311
312
313
314
315
316
317
318
319
320
321
322
323
324
325
326
327
328
329
330
331
332
333
334
335
336
337
338
339
340
341
342
343
344
345
346
-1.498572863379732 -3.156106596439828 0 3.156106596439828 -1.498572863379732
-1.280828185446324 -2.718772413280716 0 2.718772413280716 -1.280828185446324
-1.082878477234797 -2.3211958811289 0 2.3211958811289 -1.082878477234797
-0.9029241961234442 -1.959762668235902 0 1.959762668235903 -0.9029241961234442
-0.7393293954572625 -1.631187020842443 0 1.631187020842443 -0.7393293954572625
-0.590606849804387 -1.332481887666494 0 1.332481887666494 -0.590606849804387
-0.4554045364610795 -1.060931768378137 0 1.060931768378138 -0.4554045364610795
-0.3324933429137555 -0.8140680243761907 0 0.8140680243761909 -0.3324933429137555
-0.2207558942068392 -0.5896464388646366 0 0.5896464388646367 -0.2207558942068392
-0.1191763953008809 -0.3856268155086159 0 0.3856268155086159 -0.1191763953008809
-0.02683139520271192 -0.2001544284447212 0 0.2001544284447212 -0.02683139520271192
-2.41982034567336 -2.518211005312879 0 2.518211005312879 -2.41982034567336
-2.075885770047323 -2.169505894801588 0 2.169505894801588 -2.075885770047323
-1.76321797244517 -1.852501247281822 0 1.852501247281822 -1.76321797244517
-1.4789745186279 -1.564315202610232 0 1.564315202610233 -1.4789745186279
-1.220571379337609 -1.302327889823423 0 1.302327889823423 -1.220571379337609
-0.9856594351715716 -1.064157606124107 0 1.064157606124108 -0.9856594351715716
-0.772103123693733 -0.8476391678172801 0 0.8476391678172802 -0.772103123693733
-0.577961022983856 -0.6508042245443552 0 0.6508042245443553 -0.577961022983856
-0.4014682041132017 -0.4718633669794854 0 0.4718633669794854 -0.4014682041132017
-0.2410201868293512 -0.3091898599717984 0 0.3091898599717985 -0.2410201868293512
-0.0951583512089075 -0.1613048518511732 0 0.1613048518511732 -0.0951583512089075
-3.092592277217541 -1.62242451938807 0 1.622424519388071 -3.092592277217541
-2.657143638678565 -1.398115672539677 0 1.398115672539677 -2.657143638678565
-2.261281238008285 -1.194198538011642 0 1.194198538011642 -2.261281238008285
-1.90140632647009 -1.008819323857586 0 1.008819323857586 -1.90140632647009
-1.574247316669061 -0.8402927658901025 0 0.8402927658901026 -1.574247316669061
-1.276830035846248 -0.6870868045211346 0 0.6870868045211347 -1.276830035846248
-1.00645069141668 -0.5478086587353999 0 0.5478086587354 -1.00645069141668
-0.7606512881920046 -0.4211921629797533 0 0.4211921629797534 -0.7606512881920046
-0.537197285205412 -0.3060862577190515 0 0.3060862577190515 -0.537197285205412
-0.3340572823273724 -0.201444525579887 0 0.201444525579887 -0.3340572823273724
-0.14938455025295 -0.106315677054927 0 0.1063156770549271 -0.14938455025295
-3.447907273558888 -0.5600169666304499 0 0.56001696663045 -3.447907273558888
-2.964932304425349 -0.4826866744669372 0 0.4826866744669373 -2.964932304425349
-2.525864148450983 -0.4123864085088034 0 0.4123864085088034 -2.525864148450983
-2.126711277344839 -0.348477075493205 0 0.3484770754932051 -2.126711277344839
-1.763845031648068 -0.2903776819647415 0 0.2903776819647416 -1.763845031648068
-1.433966627372564 -0.2375600516290583 0 0.2375600516290583 -1.433966627372564
-1.134077170906786 -0.1895440243660488 0 0.1895440243660488 -1.134077170906786
-0.8614503931912939 -0.1458930906330169 0 0.1458930906330169 -0.8614503931912939
-0.6136078679343093 -0.1062104235932812 0 0.1062104235932812 -0.6136078679343093
-0.3882964811563115 -0.0701352717099971 0 0.07013527170999712 -0.3882964811563115
-0.1834679452979629 -0.03733967870072071 0 0.03733967870072072 -0.1834679452979629
-3.447857082345944 0.5605525979949261 0 -0.5605525979949262 -3.447857082345944
-2.964836488597455 0.4837092202379999 0 -0.483709220238 -2.964836488597455
-2.525726855700198 0.4138516037427042 0 -0.4138516037427043 -2.525726855700198
-2.126536278300323 0.3503446793317214 0 -0.3503446793317214 -2.126536278300323
-1.763635754154784 0.2926111118069711 0 -0.2926111118069712 -1.763635754154784
-1.433726187653208 0.2401260505644693 0 -0.2401260505644693 -1.433726187653208
-1.133808401891186 0.1924123588386856 0 -0.1924123588386856 -1.133808401891186
-0.8611558702701038 0.1490362755932056 0 -0.1490362755932056 -0.8611558702701038
-0.613289932371665 0.1096034726329766 0 -0.1096034726329766 -0.613289932371665
-0.3879572613741474 0.07375546991314336 0 -0.07375546991314337 -0.3879572613741474
-0.1831093762250983 0.04116637614586704 0 -0.04116637614586705 -0.1831093762250983
-3.092703212547073 1.623163759764636 0 -1.623163759764636 -3.092703212547073
-2.657355432879482 1.399526933238806 0 -1.399526933238807 -2.657355432879482
-2.261584722092745 1.196220726279893 0 -1.196220726279893 -2.261584722092745
-1.90179316499456 1.011396900827854 0 -1.011396900827855 -1.90179316499456
-1.574709931957031 0.8433752416796131 0 -0.8433752416796132 -1.574709931957031
-1.277361539100837 0.690628279235778 0 -0.6906282792357781 -1.277361539100837
-1.007044820095056 0.5517674051973808 0 -0.5517674051973809 -1.007044820095056
-0.7613023490736404 0.4255302473926829 0 -0.425530247392683 -0.7613023490736404
-0.5379001026354711 0.3107691948145994 0 -0.3107691948145994 -0.5379001026354711
-0.3348071511651309 0.2064409651145106 0 -0.2064409651145106 -0.3348071511651309
-0.1501771930982168 0.1115971188103207 0 -0.1115971188103207 -0.1501771930982168
-2.420098206153903 2.519317037039549 0 -2.519317037039549 -2.420098206153903
-2.076416239624144 2.171617401559599 0 -2.171617401559599 -2.076416239624144
-1.763978086656137 1.855526822254828 0 -1.855526822254828 -1.763978086656137
-1.479943400689153 1.568171748692003 0 -1.568171748692003 -1.479943400689153
-1.221730050353293 1.306939864184587 0 -1.306939864184587 -1.221730050353293
-0.9869906415998864 1.069456333464464 0 -1.069456333464464 -0.9869906415998864
-0.7735911804961344 0.8535622160436708 0 -0.8535622160436709 -0.7735911804961344
-0.5795916710349664 0.6572948372108044 0 -0.6572948372108045 -0.5795916710349664
-0.4032284805722496 0.4788699473186949 0 -0.4788699473186949 -0.4032284805722496
-0.2428983072957161 0.316665501832156 0 -0.3166655018321561 -0.2428983072957161
-0.09714360259228724 0.1692069132813125 0 -0.1692069132813125 -0.09714360259228724
-1.499370650113024 3.157466850196049 0 -3.157466850196049 -1.499370650113024
-1.282351238124245 2.721369258830502 0 -2.721369258830502 -1.282351238124245
-1.085060862592989 2.324916901042215 0 -2.324916901042215 -1.085060862592989
-0.9057059748303965 1.964505664848538 0 -1.964505664848539 -0.9057059748303965
-0.7426560772074281 1.636859087180065 0 -1.636859087180066 -0.7426560772074281
-0.5944288979560959 1.338998562842507 0 -1.338998562842507 -0.5944288979560959
-0.4596769177021418 1.068216269765786 0 -1.068216269765786 -0.4596769177021418
-0.3371751178710829 0.8220505495903833 0 -0.8220505495903834 -0.3371751178710829
-0.2258098452699371 0.5982635311938785 0 -0.5982635311938787 -0.2258098452699371
-0.1245686882785963 0.3948207870339 0 -0.3948207870339001 -0.1245686882785963
-0.03253127174281632 0.2098728356090326 0 -0.2098728356090326 -0.03253127174281632
2 2 1 88
347
348
349
350
351
352
353
354
355
356
357
358
359
360
361
362
363
364
365
366
367
368
369
370
371
372
373
374
375
376
377
378
379
380
381
382
383
384
385
386
387
388
389
390
391
392
393
394
395
396
397
398
399
400
401
402
403
404
405
406
407
408
409
410
411
412
413
414
415
416
417
418
419
420
421
422
423
424
425
426
427
428
429
430
431
432
433
434
0.1486171525642176 0.2531340456926433 0 -0.2531340456926433 0.1486171525642176
0.2553952489509567 0.2614123693168188 0 -0.2614123693168188 0.2553952489509567
0.3625332791844227 0.2619955714060693 0 -0.2619955714060693 0.3625332791844227
0.4695625417708394 0.2570811435794752 0 -0.2570811435794752 0.4695625417708394
0.5763527190448956 0.2485885951828192 0 -0.2485885951828192 0.5763527190448956
0.6828462369087445 0.2371435520691757 0 -0.2371435520691757 0.6828462369087445
0.7889975476819701 0.2230546658922712 0 -0.2230546658922712 0.7889975476819701
0.8947464329057149 0.2063967701489243 0 -0.2063967701489243 0.8947464329057149
0.1226095899086667 0.4553267063909678 0 -0.4553267063909678 0.1226095899086667
0.2326194617359633 0.4631583056593503 0 -0.4631583056593503 0.2326194617359633
0.3429698442485949 0.4637100363312684 0 -0.4637100363312684 0.3429698442485949
0.4532173285581935 0.4590608064728429 0 -0.4590608064728429 0.4532173285581935
0.5632386293501994 0.45102654267387 0 -0.45102654267387 0.5632386293501994
0.6729792794060006 0.440199110050484 0 -0.440199110050484 0.6729792794060006
0.7823961889411086 0.4268705044432975 0 -0.4268705044432975 0.7823961889411086
0.8914323890739305 0.4111115210984911 0 -0.4111115210984911 0.8914323890739305
0.09400127132608863 0.677738630527271 0 -0.677738630527271 0.09400127132608863
0.2075660960959323 0.6850788330100869 0 -0.6850788330100869 0.2075660960959323
0.3214500660738325 0.6855959451233394 0 -0.6855959451233394 0.3214500660738325
0.4352375942370408 0.6812384330264383 0 -0.6812384330264383 0.4352375942370408
0.5488131308567329 0.6737082822789424 0 -0.6737082822789424 0.5488131308567329
0.6621256262814157 0.6635602211867908 0 -0.6635602211867908 0.6621256262814157
0.7751346944120878 0.6510679241963886 0 -0.6510679241963886 0.7751346944120878
0.8877869409021046 0.6362977444782666 0 -0.6362977444782666 0.8877869409021046
0.06253212091049072 0.9223917468809887 0 -0.9223917468809887 0.06253212091049072
0.1800073939139999 0.9291914129001091 0 -0.9291914129001091 0.1800073939139999
0.2977783101005783 0.9296704445988542 0 -0.9296704445988542 0.2977783101005783
0.4154598864996345 0.9256338220393663 0 -0.9256338220393663 0.4154598864996345
0.5329450825266464 0.9186581956480442 0 -0.9186581956480442 0.5329450825266464
0.6501866078539476 0.9092574432396452 0 -0.9092574432396452 0.6501866078539476
0.7671470504365709 0.8976850857269618 0 -0.8976850857269618 0.7671470504365709
0.8837769479163127 0.8840025899973143 0 -0.8840025899973143 0.8837769479163127
0.02791605546187515 1.191510174803688 0 -1.191510174803688 0.02791605546187515
0.149692821521355 1.19771525071291 0 -1.19771525071291 0.149692821521355
0.271739378536424 1.198152393955727 0 -1.198152393955727 0.271739378536424
0.3937044079938559 1.194468749887326 0 -1.194468749887326 0.3937044079938559
0.515490229367858 1.188103100287665 0 -1.188103100287665 0.515490229367858
0.637053687586973 1.179524387431211 0 -1.179524387431211 0.637053687586973
0.7583606420656703 1.168963963343788 0 -1.168963963343788 0.7583606420656703
0.8793659556330298 1.156477920001187 0 -1.156477920001187 0.8793659556330298
-0.01016161665587928 1.487540446484825 -0 -1.487540446484825 -0.01016161665587928
0.1163467917806113 1.49309147327101 0 -1.49309147327101 0.1163467917806113
0.2430965537223705 1.493482539212144 0 -1.493482539212144 0.2430965537223705
0.3697733815593939 1.490187171485194 0 -1.490187171485194 0.3697733815593939
0.4962898908305252 1.484492496358537 0 -1.484492496358537 0.4962898908305252
0.6226074752461519 1.476818027012161 0 -1.476818027012161 0.6226074752461519
0.7486955928261352 1.467370729696146 0 -1.467370729696146 0.7486955928261352
0.8745138641055824 1.45620078398358 0 -1.45620078398358 0.8745138641055824
-0.05204705626006555 1.813173747469357 -0 -1.813173747469357 -0.05204705626006555
0.07966615882526644 1.818005320215483 0 -1.818005320215483 0.07966615882526644
0.2115894462203092 1.818345701124432 0 -1.818345701124432 0.2115894462203092
0.3434492523088697 1.815477437375878 0 -1.815477437375878 0.3434492523088697
0.475169518300966 1.810520834174365 0 -1.810520834174365 0.475169518300966
0.6067166415670473 1.803841032695596 0 -1.803841032695596 0.6067166415670473
0.7380640385929316 1.795618174836158 0 -1.795618174836158 0.7380640385929316
0.8691765633903918 1.785895936526122 0 -1.785895936526122 0.8691765633903918
-0.0981210399508311 2.171370379533193 -0 -2.171370379533193 -0.0981210399508311
0.0393174624639035 2.175410552833123 0 -2.175410552833123 0.0393174624639035
0.176931627873141 2.175695180206548 0 -2.175695180206548 0.176931627873141
0.3144927100540036 2.173296730835546 0 -2.173296730835546 0.3144927100540036
0.4519371084548353 2.169152006753947 0 -2.169152006753947 0.4519371084548353
0.5892367244721683 2.163566339932575 0 -2.163566339932575 0.5892367244721683
0.7263693289043853 2.156690365479091 0 -2.156690365479091 0.7263693289043853
0.8633055325876062 2.148560605316231 0 -2.148560605316231 0.8633055325876062
-0.1488024221173121 2.56538667563244 -0 -2.56538667563244 -0.1488024221173121
-0.005066103626983287 2.568556309539693 -0 -2.568556309539693 -0.005066103626983287
0.1388080276110401 2.568779608023885 0 -2.568779608023885 0.1388080276110401
0.2826405135066309 2.566897954469254 0 -2.566897954469254 0.2826405135066309
0.4263814575703199 2.56364629742141 0 -2.56364629742141 0.4263814575703199
0.5700088156273442 2.559264178725681 0 -2.559264178725681 0.5700088156273442
0.7135051482199168 2.553869776021837 0 -2.553869776021837 0.7135051482199168
0.8568473986909535 2.547491741824529 0 -2.547491741824529 0.8568473986909535
-0.2045519422157179 2.998804599128066 -0 -2.998804599128066 -0.2045519422157179
-0.05388802607761606 3.001016639708263 -0 -3.001016639708263 -0.05388802607761606
0.09687206753690404 3.001172476414645 0 -3.001172476414645 0.09687206753690404
0.2476030974834634 2.999859298255119 0 -2.999859298255119 0.2476030974834634
0.3982702417409223 2.997590014939391 0 -2.997590014939391 0.3982702417409223
0.548858116006058 2.994531799175107 0 -2.994531799175107 0.548858116006058
0.6993545495392711 2.990767125387545 0 -2.990767125387545 0.6993545495392711
0.8497434514409166 2.986315989742505 0 -2.986315989742505 0.8497434514409166
-0.2658764140143771 3.475564312566386 -0 -3.475564312566386 -0.2658764140143771
-0.107592140502195 3.476723000492125 -0 -3.476723000492125 -0.107592140502195
0.0507425116882323 3.476804629243273 0 -3.476804629243273 0.0507425116882323
0.2090619400525484 3.476116774015189 0 -3.476116774015189 0.2090619400525484
0.3673479044846917 3.474928101799315 0 -3.474928101799315 0.3673479044846917
0.525592346540097 3.473326179252251 0 -3.473326179252251 0.525592346540097
0.683788891069142 3.471354207263531 0 -3.471354207263531 0.683788891069142
0.8419291095053254 3.469022660015266 0 -3.469022660015266 0.8419291095053254
2 3 1 198
435
436
437
438
439
440
441
442
443
444
445
446
447
448
449
450
451
452
453
454
455
456
457
458
459
460
461
462
463
464
465
466
467
468
469
470
471
472
473
474
475
476
477
478
479
480
481
482
483
484
485
486
487
488
489
490
491
492
493
494
495
496
497
498
499
500
501
502
503
504
505
506
507
508
509
510
511
512
513
514
515
516
517
518
519
520
521
522
523
524
525
526
527
528
529
530
531
532
533
534
535
536
537
538
539
540
541
542
543
544
545
546
547
548
549
550
551
552
553
554
555
556
557
558
559
560
561
562
563
564
565
566
567
568
569
570
571
572
573
574
575
576
577
578
579
580
581
582
583
584
585
586
587
588
589
590
591
592
593
594
595
596
597
598
599
600
601
602
603
604
605
606
607
608
609
610
611
612
613
614
615
616
617
618
619
620
621
622
623
624
625
626
627
628
629
630
631
632
1.175921815170027 0.1870532633030565 0 -0.1870532633030565 1.175921815170027
1.369435805296518 0.1870532633030565 0 -0.1870532633030565 1.369435805296518
1.58230119673454 0.1870532633030565 0 -0.1870532633030565 1.58230119673454
1.816453132719644 0.1870532633030565 0 -0.1870532633030565 1.816453132719644
2.074020263073344 0.1870532633030565 0 -0.1870532633030565 2.074020263073344
2.357344102391782 0.1870532633030565 0 -0.1870532633030565 2.357344102391782
2.669000324996625 0.1870532633030565 0 -0.1870532633030565 2.669000324996625
3.011822171451003 0.1870532633030565 0 -0.1870532633030565 3.011822171451003
3.388926205384435 0.1870532633030565 0 -0.1870532633030565 3.388926205384435
3.803740643593012 0.1870532633030565 0 -0.1870532633030565 3.803740643593012
4.260036520908697 0.1870532633030565 0 -0.1870532633030565 4.260036520908697
4.761961987220908 0.1870532633030565 0 -0.1870532633030565 4.761961987220908
5.31407999959186 0.1870532633030566 0 -0.1870532633030566 5.31407999959186
5.921409810416525 0.1870532633030565 0 -0.1870532633030565 5.921409810416525
6.589472606402275 0.1870532633030565 0 -0.1870532633030565 6.589472606402275
7.324341683833488 0.1870532633030565 0 -0.1870532633030565 7.324341683833488
8.132697669569186 0.1870532633030565 0 -0.1870532633030565 8.132697669569186
9.021889254553544 0.1870532633030565 0 -0.1870532633030565 9.021889254553544
1.175921815170027 0.3928118506652711 0 -0.3928118506652711 1.175921815170027
1.369435805296518 0.3928118506652709 0 -0.3928118506652709 1.369435805296518
1.58230119673454 0.392811850665271 0 -0.392811850665271 1.58230119673454
1.816453132719644 0.3928118506652711 0 -0.3928118506652711 1.816453132719644
2.074020263073344 0.392811850665271 0 -0.392811850665271 2.074020263073344
2.357344102391782 0.392811850665271 0 -0.392811850665271 2.357344102391782
2.669000324996625 0.392811850665271 0 -0.392811850665271 2.669000324996625
3.011822171451003 0.3928118506652711 0 -0.3928118506652711 3.011822171451003
3.388926205384436 0.392811850665271 0 -0.392811850665271 3.388926205384436
3.803740643593013 0.392811850665271 0 -0.392811850665271 3.803740643593013
4.260036520908697 0.3928118506652709 0 -0.3928118506652709 4.260036520908697
4.761961987220907 0.392811850665271 0 -0.392811850665271 4.761961987220907
5.314079999591859 0.392811850665271 0 -0.392811850665271 5.314079999591859
5.921409810416523 0.392811850665271 0 -0.392811850665271 5.921409810416523
6.589472606402275 0.392811850665271 0 -0.392811850665271 6.589472606402275
7.324341683833488 0.392811850665271 0 -0.392811850665271 7.324341683833488
8.132697669569186 0.392811850665271 0 -0.392811850665271 8.132697669569186
9.021889254553541 0.392811850665271 0 -0.392811850665271 9.021889254553541
1.175921815170027 0.6191462940853624 0 -0.6191462940853624 1.175921815170027
1.369435805296518 0.6191462940853624 0 -0.6191462940853624 1.369435805296518
1.58230119673454 0.6191462940853621 0 -0.6191462940853621 1.58230119673454
1.816453132719644 0.6191462940853624 0 -0.6191462940853624 1.816453132719644
2.074020263073344 0.6191462940853623 0 -0.6191462940853623 2.074020263073344
2.357344102391782 0.6191462940853624 0 -0.6191462940853624 2.357344102391782
2.669000324996624 0.6191462940853621 0 -0.6191462940853621 2.669000324996624
3.011822171451003 0.6191462940853621 0 -0.6191462940853621 3.011822171451003
3.388926205384435 0.6191462940853624 0 -0.6191462940853624 3.388926205384435
3.803740643593012 0.6191462940853624 0 -0.6191462940853624 3.803740643593012
4.260036520908697 0.6191462940853624 0 -0.6191462940853624 4.260036520908697
4.761961987220906 0.6191462940853623 0 -0.6191462940853623 4.761961987220906
5.314079999591859 0.6191462940853624 0 -0.6191462940853624 5.314079999591859
5.921409810416523 0.6191462940853624 0 -0.6191462940853624 5.921409810416523
6.589472606402275 0.6191462940853624 0 -0.6191462940853624 6.589472606402275
7.324341683833487 0.6191462940853624 0 -0.6191462940853624 7.324341683833487
8.132697669569186 0.6191462940853624 0 -0.6191462940853624 8.132697669569186
9.021889254553543 0.6191462940853624 0 -0.6191462940853624 9.021889254553543
1.175921815170027 0.8681141816477387 0 -0.8681141816477387 1.175921815170027
1.369435805296518 0.8681141816477385 0 -0.8681141816477385 1.369435805296518
1.58230119673454 0.8681141816477385 0 -0.8681141816477385 1.58230119673454
1.816453132719644 0.8681141816477382 0 -0.8681141816477382 1.816453132719644
2.074020263073344 0.8681141816477383 0 -0.8681141816477383 2.074020263073344
2.357344102391782 0.8681141816477387 0 -0.8681141816477387 2.357344102391782
2.669000324996624 0.8681141816477385 0 -0.8681141816477385 2.669000324996624
3.011822171451004 0.8681141816477385 0 -0.8681141816477385 3.011822171451004
3.388926205384435 0.8681141816477385 0 -0.8681141816477385 3.388926205384435
3.803740643593012 0.8681141816477385 0 -0.8681141816477385 3.803740643593012
4.260036520908697 0.8681141816477385 0 -0.8681141816477385 4.260036520908697
4.761961987220906 0.8681141816477382 0 -0.8681141816477382 4.761961987220906
5.31407999959186 0.8681141816477385 0 -0.8681141816477385 5.31407999959186
5.921409810416523 0.8681141816477385 0 -0.8681141816477385 5.921409810416523
6.589472606402275 0.8681141816477385 0 -0.8681141816477385 6.589472606402275
7.324341683833489 0.8681141816477385 0 -0.8681141816477385 7.324341683833489
8.132697669569186 0.8681141816477385 0 -0.8681141816477385 8.132697669569186
9.021889254553541 0.8681141816477385 0 -0.8681141816477385 9.021889254553541
1.175921815170027 1.14197885789895 0 -1.14197885789895 1.175921815170027
1.369435805296518 1.14197885789895 0 -1.14197885789895 1.369435805296518
1.58230119673454 1.14197885789895 0 -1.14197885789895 1.58230119673454
1.816453132719644 1.14197885789895 0 -1.14197885789895 1.816453132719644
2.074020263073344 1.14197885789895 0 -1.14197885789895 2.074020263073344
2.357344102391782 1.14197885789895 0 -1.14197885789895 2.357344102391782
2.669000324996623 1.14197885789895 0 -1.14197885789895 2.669000324996623
3.011822171451002 1.14197885789895 0 -1.14197885789895 3.011822171451002
3.388926205384435 1.14197885789895 0 -1.14197885789895 3.388926205384435
3.803740643593012 1.14197885789895 0 -1.14197885789895 3.803740643593012
4.260036520908697 1.14197885789895 0 -1.14197885789895 4.260036520908697
4.761961987220906 1.14197885789895 0 -1.14197885789895 4.761961987220906
5.31407999959186 1.14197885789895 0 -1.14197885789895 5.31407999959186
5.921409810416524 1.14197885789895 0 -1.14197885789895 5.921409810416524
6.589472606402275 1.14197885789895 0 -1.14197885789895 6.589472606402275
7.324341683833488 1.14197885789895 0 -1.14197885789895 7.324341683833488
8.132697669569186 1.14197885789895 0 -1.14197885789895 8.132697669569186
9.021889254553539 1.14197885789895 0 -1.14197885789895 9.021889254553539
1.175921815170027 1.44323000275839 0 -1.44323000275839 1.175921815170027
1.369435805296518 1.44323000275839 0 -1.44323000275839 1.369435805296518
1.58230119673454 1.443230002758391 0 -1.443230002758391 1.58230119673454
1.816453132719644 1.44323000275839 0 -1.44323000275839 1.816453132719644
2.074020263073344 1.443230002758391 0 -1.443230002758391 2.074020263073344
2.357344102391782 1.443230002758391 0 -1.443230002758391 2.357344102391782
2.669000324996624 1.443230002758391 0 -1.443230002758391 2.669000324996624
3.011822171451004 1.44323000275839 0 -1.44323000275839 3.011822171451004
3.388926205384435 1.443230002758391 0 -1.443230002758391 3.388926205384435
3.803740643593012 1.443230002758391 0 -1.443230002758391 3.803740643593012
4.260036520908697 1.443230002758391 0 -1.443230002758391 4.260036520908697
4.761961987220906 1.443230002758391 0 -1.443230002758391 4.761961987220906
5.314079999591861 1.443230002758391 0 -1.443230002758391 5.314079999591861
5.921409810416523 1.443230002758391 0 -1.443230002758391 5.921409810416523
6.589472606402274 1.443230002758391 0 -1.443230002758391 6.589472606402274
7.324341683833489 1.443230002758391 0 -1.443230002758391 7.324341683833489
8.132697669569186 1.443230002758391 0 -1.443230002758391 8.132697669569186
9.021889254553541 1.443230002758391 0 -1.443230002758391 9.021889254553541
1.175921815170027 1.774606264276707 0 -1.774606264276707 1.175921815170027
1.369435805296518 1.774606264276707 0 -1.774606264276707 1.369435805296518
1.58230119673454 1.774606264276708 0 -1.774606264276708 1.58230119673454
1.816453132719644 1.774606264276707 0 -1.774606264276707 1.816453132719644
2.074020263073344 1.774606264276707 0 -1.774606264276707 2.074020263073344
2.357344102391782 1.774606264276707 0 -1.774606264276707 2.357344102391782
2.669000324996623 1.774606264276707 0 -1.774606264276707 2.669000324996623
3.011822171451003 1.774606264276707 0 -1.774606264276707 3.011822171451003
3.388926205384435 1.774606264276707 0 -1.774606264276707 3.388926205384435
3.803740643593013 1.774606264276707 0 -1.774606264276707 3.803740643593013
4.260036520908697 1.774606264276707 0 -1.774606264276707 4.260036520908697
4.761961987220904 1.774606264276707 0 -1.774606264276707 4.761961987220904
5.31407999959186 1.774606264276707 0 -1.774606264276707 5.31407999959186
5.921409810416522 1.774606264276707 0 -1.774606264276707 5.921409810416522
6.589472606402275 1.774606264276707 0 -1.774606264276707 6.589472606402275
7.32434168383349 1.774606264276707 0 -1.774606264276707 7.32434168383349
8.132697669569186 1.774606264276708 0 -1.774606264276708 8.132697669569186
9.021889254553539 1.774606264276707 0 -1.774606264276707 9.021889254553539
1.175921815170027 2.139120152945265 0 -2.139120152945265 1.175921815170027
1.369435805296518 2.139120152945265 0 -2.139120152945265 1.369435805296518
1.58230119673454 2.139120152945266 0 -2.139120152945266 1.58230119673454
1.816453132719644 2.139120152945265 0 -2.139120152945265 1.816453132719644
2.074020263073344 2.139120152945265 0 -2.139120152945265 2.074020263073344
2.357344102391782 2.139120152945265 0 -2.139120152945265 2.357344102391782
2.669000324996624 2.139120152945265 0 -2.139120152945265 2.669000324996624
3.011822171451003 2.139120152945265 0 -2.139120152945265 3.011822171451003
3.388926205384435 2.139120152945265 0 -2.139120152945265 3.388926205384435
3.803740643593012 2.139120152945265 0 -2.139120152945265 3.803740643593012
4.260036520908697 2.139120152945265 0 -2.139120152945265 4.260036520908697
4.761961987220906 2.139120152945265 0 -2.139120152945265 4.761961987220906
5.31407999959186 2.139120152945265 0 -2.139120152945265 5.31407999959186
5.921409810416523 2.139120152945265 0 -2.139120152945265 5.921409810416523
6.589472606402275 2.139120152945265 0 -2.139120152945265 6.589472606402275
7.324341683833488 2.139120152945265 0 -2.139120152945265 7.324341683833488
8.132697669569186 2.139120152945265 0 -2.139120152945265 8.132697669569186
9.021889254553543 2.139120152945265 0 -2.139120152945265 9.021889254553543
1.175921815170027 2.540085431324111 0 -2.540085431324111 1.175921815170027
1.369435805296518 2.540085431324111 0 -2.540085431324111 1.369435805296518
1.58230119673454 2.540085431324111 0 -2.540085431324111 1.58230119673454
1.816453132719644 2.540085431324111 0 -2.540085431324111 1.816453132719644
2.074020263073344 2.540085431324111 0 -2.540085431324111 2.074020263073344
2.357344102391782 2.540085431324111 0 -2.540085431324111 2.357344102391782
2.669000324996624 2.540085431324111 0 -2.540085431324111 2.669000324996624
3.011822171451003 2.540085431324111 0 -2.540085431324111 3.011822171451003
3.388926205384436 2.540085431324111 0 -2.540085431324111 3.388926205384436
3.803740643593012 2.540085431324111 0 -2.540085431324111 3.803740643593012
4.260036520908696 2.540085431324111 0 -2.540085431324111 4.260036520908696
4.761961987220906 2.540085431324111 0 -2.540085431324111 4.761961987220906
5.31407999959186 2.540085431324111 0 -2.540085431324111 5.31407999959186
5.921409810416523 2.540085431324111 0 -2.540085431324111 5.921409810416523
6.589472606402275 2.540085431324111 0 -2.540085431324111 6.589472606402275
7.324341683833488 2.540085431324111 0 -2.540085431324111 7.324341683833488
8.132697669569186 2.540085431324111 0 -2.540085431324111 8.132697669569186
9.021889254553543 2.540085431324111 0 -2.540085431324111 9.021889254553543
1.175921815170027 2.98114723528826 0 -2.98114723528826 1.175921815170027
1.369435805296518 2.981147235288261 0 -2.981147235288261 1.369435805296518
1.58230119673454 2.981147235288261 0 -2.981147235288261 1.58230119673454
1.816453132719644 2.98114723528826 0 -2.98114723528826 1.816453132719644
2.074020263073344 2.98114723528826 0 -2.98114723528826 2.074020263073344
2.357344102391782 2.981147235288261 0 -2.981147235288261 2.357344102391782
2.669000324996624 2.981147235288261 0 -2.981147235288261 2.669000324996624
3.011822171451003 2.98114723528826 0 -2.98114723528826 3.011822171451003
3.388926205384435 2.98114723528826 0 -2.98114723528826 3.388926205384435
3.803740643593012 2.98114723528826 0 -2.98114723528826 3.803740643593012
4.260036520908697 2.98114723528826 0 -2.98114723528826 4.260036520908697
4.761961987220906 2.98114723528826 0 -2.98114723528826 4.761961987220906
5.31407999959186 2.98114723528826 0 -2.98114723528826 5.31407999959186
5.921409810416522 2.98114723528826 0 -2.98114723528826 5.921409810416522
6.589472606402275 2.98114723528826 0 -2.98114723528826 6.589472606402275
7.324341683833489 2.98114723528826 0 -2.98114723528826 7.324341683833489
8.132697669569186 2.98114723528826 0 -2.98114723528826 8.132697669569186
9.021889254553541 2.98114723528826 0 -2.98114723528826 9.021889254553541
1.175921815170027 3.46631521719937 0 -3.46631521719937 1.175921815170027
1.369435805296518 3.466315217199371 0 -3.466315217199371 1.369435805296518
1.58230119673454 3.466315217199371 0 -3.466315217199371 1.58230119673454
1.816453132719644 3.466315217199371 0 -3.466315217199371 1.816453132719644
2.074020263073344 3.466315217199371 0 -3.466315217199371 2.074020263073344
2.357344102391782 3.46631521719937 0 -3.46631521719937 2.357344102391782
2.669000324996624 3.466315217199371 0 -3.466315217199371 2.669000324996624
3.011822171451004 3.466315217199371 0 -3.466315217199371 3.011822171451004
3.388926205384435 3.466315217199371 0 -3.466315217199371 3.388926205384435
3.803740643593012 3.466315217199371 0 -3.466315217199371 3.803740643593012
4.260036520908697 3.466315217199371 0 -3.466315217199371 4.260036520908697
4.761961987220906 3.466315217199371 0 -3.466315217199371 4.761961987220906
5.314079999591862 3.466315217199371 0 -3.466315217199371 5.314079999591862
5.921409810416523 3.466315217199371 0 -3.466315217199371 5.921409810416523
6.589472606402275 3.466315217199371 0 -3.466315217199371 6.589472606402275
7.324341683833489 3.466315217199371 0 -3.466315217199371 7.324341683833489
8.132697669569186 3.466315217199371 0 -3.466315217199371 8.132697669569186
9.021889254553543 3.466315217199371 0 -3.466315217199371 9.021889254553543
2 4 1 198
633
634
635
636
637
638
639
640
641
642
643
644
645
646
647
648
649
650
651
652
653
654
655
656
657
658
659
660
661
662
663
664
665
666
667
668
669
670
671
672
673
674
675
676
677
678
679
680
681
682
683
684
685
686
687
688
689
690
691
692
693
694
695
696
697
698
699
700
701
702
703
704
705
706
707
708
709
710
711
712
713
714
715
716
717
718
719
720
721
722
723
724
725
726
727
728
729
730
731
732
733
734
735
736
737
738
739
740
741
742
743
744
745
746
747
748
749
750
751
752
753
754
755
756
757
758
759
760
761
762
763
764
765
766
767
768
769
770
771
772
773
774
775
776
777
778
779
780
781
782
783
784
785
786
787
788
789
790
791
792
793
794
795
796
797
798
799
800
801
802
803
804
805
806
807
808
809
810
811
812
813
814
815
816
817
818
819
820
821
822
823
824
825
826
827
828
829
830
1.175921815170027 -0.1870532633030565 0 0.1870532633030565 1.175921815170027
1.175921815170027 -0.392811850665271 0 0.392811850665271 1.175921815170027
1.175921815170027 -0.6191462940853624 0 0.6191462940853624 1.175921815170027
1.175921815170027 -0.8681141816477385 0 0.8681141816477385 1.175921815170027
1.175921815170027 -1.14197885789895 0 1.14197885789895 1.175921815170027
1.175921815170027 -1.443230002758391 0 1.443230002758391 1.175921815170027
1.175921815170027 -1.774606264276707 0 1.774606264276707 1.175921815170027
1.175921815170027 -2.139120152945265 0 2.139120152945265 1.175921815170027
1.175921815170027 -2.540085431324111 0 2.540085431324111 1.175921815170027
1.175921815170027 -2.98114723528826 0 2.98114723528826 1.175921815170027
1.175921815170027 -3.466315217199371 0 3.466315217199371 1.175921815170027
1.369435805296518 -0.1870532633030565 0 0.1870532633030565 1.369435805296518
1.369435805296518 -0.392811850665271 0 0.392811850665271 1.369435805296518
1.369435805296518 -0.6191462940853624 0 0.6191462940853624 1.369435805296518
1.369435805296517 -0.8681141816477385 0 0.8681141816477385 1.369435805296517
1.369435805296517 -1.14197885789895 0 1.14197885789895 1.369435805296517
1.369435805296518 -1.443230002758391 0 1.443230002758391 1.369435805296518
1.369435805296518 -1.774606264276707 0 1.774606264276707 1.369435805296518
1.369435805296518 -2.139120152945265 0 2.139120152945265 1.369435805296518
1.369435805296518 -2.540085431324111 0 2.540085431324111 1.369435805296518
1.369435805296518 -2.98114723528826 0 2.98114723528826 1.369435805296518
1.369435805296518 -3.466315217199371 0 3.466315217199371 1.369435805296518
1.58230119673454 -0.1870532633030565 0 0.1870532633030565 1.58230119673454
1.58230119673454 -0.392811850665271 0 0.392811850665271 1.58230119673454
1.58230119673454 -0.6191462940853624 0 0.6191462940853624 1.58230119673454
1.582301196734541 -0.8681141816477385 0 0.8681141816477385 1.582301196734541
1.58230119673454 -1.14197885789895 0 1.14197885789895 1.58230119673454
1.58230119673454 -1.443230002758391 0 1.443230002758391 1.58230119673454
1.58230119673454 -1.774606264276707 0 1.774606264276707 1.58230119673454
1.58230119673454 -2.139120152945265 0 2.139120152945265 1.58230119673454
1.58230119673454 -2.540085431324111 0 2.540085431324111 1.58230119673454
1.58230119673454 -2.98114723528826 0 2.98114723528826 1.58230119673454
1.58230119673454 -3.466315217199371 0 3.466315217199371 1.58230119673454
1.816453132719644 -0.1870532633030565 0 0.1870532633030565 1.816453132719644
1.816453132719644 -0.3928118506652711 0 0.3928118506652711 1.816453132719644
1.816453132719644 -0.6191462940853624 0 0.6191462940853624 1.816453132719644
1.816453132719644 -0.8681141816477385 0 0.8681141816477385 1.816453132719644
1.816453132719644 -1.14197885789895 0 1.14197885789895 1.816453132719644
1.816453132719644 -1.443230002758391 0 1.443230002758391 1.816453132719644
1.816453132719644 -1.774606264276707 0 1.774606264276707 1.816453132719644
1.816453132719644 -2.139120152945265 0 2.139120152945265 1.816453132719644
1.816453132719644 -2.540085431324111 0 2.540085431324111 1.816453132719644
1.816453132719644 -2.98114723528826 0 2.98114723528826 1.816453132719644
1.816453132719644 -3.466315217199371 0 3.466315217199371 1.816453132719644
2.074020263073344 -0.1870532633030565 0 0.1870532633030565 2.074020263073344
2.074020263073344 -0.392811850665271 0 0.392811850665271 2.074020263073344
2.074020263073344 -0.6191462940853625 0 0.6191462940853625 2.074020263073344
2.074020263073344 -0.8681141816477383 0 0.8681141816477383 2.074020263073344
2.074020263073344 -1.14197885789895 0 1.14197885789895 2.074020263073344
2.074020263073344 -1.443230002758391 0 1.443230002758391 2.074020263073344
2.074020263073344 -1.774606264276707 0 1.774606264276707 2.074020263073344
2.074020263073344 -2.139120152945265 0 2.139120152945265 2.074020263073344
2.074020263073344 -2.540085431324111 0 2.540085431324111 2.074020263073344
2.074020263073344 -2.98114723528826 0 2.98114723528826 2.074020263073344
2.074020263073344 -3.466315217199371 0 3.466315217199371 2.074020263073344
2.357344102391782 -0.1870532633030565 0 0.1870532633030565 2.357344102391782
2.357344102391782 -0.392811850665271 0 0.392811850665271 2.357344102391782
2.357344102391782 -0.6191462940853624 0 0.6191462940853624 2.357344102391782
2.357344102391782 -0.8681141816477385 0 0.8681141816477385 2.357344102391782
2.357344102391782 -1.14197885789895 0 1.14197885789895 2.357344102391782
2.357344102391782 -1.443230002758391 0 1.443230002758391 2.357344102391782
2.357344102391782 -1.774606264276707 0 1.774606264276707 2.357344102391782
2.357344102391782 -2.139120152945265 0 2.139120152945265 2.357344102391782
2.357344102391782 -2.540085431324111 0 2.540085431324111 2.357344102391782
2.357344102391782 -2.98114723528826 0 2.98114723528826 2.357344102391782
2.357344102391782 -3.466315217199371 0 3.466315217199371 2.357344102391782
2.669000324996625 -0.1870532633030565 0 0.1870532633030565 2.669000324996625
2.669000324996625 -0.392811850665271 0 0.392811850665271 2.669000324996625
2.669000324996624 -0.6191462940853624 0 0.6191462940853624 2.669000324996624
2.669000324996624 -0.8681141816477385 0 0.8681141816477385 2.669000324996624
2.669000324996625 -1.14197885789895 0 1.14197885789895 2.669000324996625
2.669000324996624 -1.443230002758391 0 1.443230002758391 2.669000324996624
2.669000324996623 -1.774606264276707 0 1.774606264276707 2.669000324996623
2.669000324996624 -2.139120152945265 0 2.139120152945265 2.669000324996624
2.669000324996624 -2.540085431324111 0 2.540085431324111 2.669000324996624
2.669000324996625 -2.98114723528826 0 2.98114723528826 2.669000324996625
2.669000324996624 -3.466315217199371 0 3.466315217199371 2.669000324996624
3.011822171451003 -0.1870532633030565 0 0.1870532633030565 3.011822171451003
3.011822171451003 -0.392811850665271 0 0.392811850665271 3.011822171451003
3.011822171451003 -0.6191462940853624 0 0.6191462940853624 3.011822171451003
3.011822171451004 -0.8681141816477385 0 0.8681141816477385 3.011822171451004
3.011822171451002 -1.14197885789895 0 1.14197885789895 3.011822171451002
3.011822171451004 -1.443230002758391 0 1.443230002758391 3.011822171451004
3.011822171451004 -1.774606264276707 0 1.774606264276707 3.011822171451004
3.011822171451003 -2.139120152945265 0 2.139120152945265 3.011822171451003
3.011822171451003 -2.540085431324111 0 2.540085431324111 3.011822171451003
3.011822171451003 -2.98114723528826 0 2.98114723528826 3.011822171451003
3.011822171451003 -3.466315217199371 0 3.466315217199371 3.011822171451003
3.388926205384435 -0.1870532633030565 0 0.1870532633030565 3.388926205384435
3.388926205384435 -0.392811850665271 0 0.392811850665271 3.388926205384435
3.388926205384435 -0.6191462940853624 0 0.6191462940853624 3.388926205384435
3.388926205384436 -0.8681141816477385 0 0.8681141816477385 3.388926205384436
3.388926205384434 -1.14197885789895 0 1.14197885789895 3.388926205384434
3.388926205384435 -1.443230002758391 0 1.443230002758391 3.388926205384435
3.388926205384436 -1.774606264276708 0 1.774606264276708 3.388926205384436
3.388926205384435 -2.139120152945265 0 2.139120152945265 3.388926205384435
3.388926205384436 -2.540085431324111 0 2.540085431324111 3.388926205384436
3.388926205384435 -2.98114723528826 0 2.98114723528826 3.388926205384435
3.388926205384435 -3.466315217199371 0 3.466315217199371 3.388926205384435
3.803740643593013 -0.1870532633030565 0 0.1870532633030565 3.803740643593013
3.803740643593013 -0.392811850665271 0 0.392811850665271 3.803740643593013
3.803740643593013 -0.6191462940853624 0 0.6191462940853624 3.803740643593013
3.803740643593011 -0.8681141816477385 0 0.8681141816477385 3.803740643593011
3.803740643593012 -1.14197885789895 0 1.14197885789895 3.803740643593012
3.803740643593012 -1.443230002758391 0 1.443230002758391 3.803740643593012
3.803740643593012 -1.774606264276708 0 1.774606264276708 3.803740643593012
3.803740643593012 -2.139120152945265 0 2.139120152945265 3.803740643593012
3.803740643593012 -2.540085431324111 0 2.540085431324111 3.803740643593012
3.803740643593012 -2.98114723528826 0 2.98114723528826 3.803740643593012
3.803740643593013 -3.466315217199371 0 3.466315217199371 3.803740643593013
4.260036520908696 -0.1870532633030565 0 0.1870532633030565 4.260036520908696
4.260036520908698 -0.392811850665271 0 0.392811850665271 4.260036520908698
4.260036520908697 -0.6191462940853624 0 0.6191462940853624 4.260036520908697
4.260036520908697 -0.8681141816477385 0 0.8681141816477385 4.260036520908697
4.260036520908697 -1.14197885789895 0 1.14197885789895 4.260036520908697
4.260036520908697 -1.443230002758391 0 1.443230002758391 4.260036520908697
4.260036520908697 -1.774606264276707 0 1.774606264276707 4.260036520908697
4.260036520908697 -2.139120152945265 0 2.139120152945265 4.260036520908697
4.260036520908697 -2.540085431324111 0 2.540085431324111 4.260036520908697
4.260036520908697 -2.98114723528826 0 2.98114723528826 4.260036520908697
4.260036520908697 -3.466315217199371 0 3.466315217199371 4.260036520908697
4.761961987220909 -0.1870532633030565 0 0.1870532633030565 4.761961987220909
4.761961987220909 -0.392811850665271 0 0.392811850665271 4.761961987220909
4.761961987220908 -0.6191462940853623 0 0.6191462940853623 4.761961987220908
4.761961987220906 -0.8681141816477385 0 0.8681141816477385 4.761961987220906
4.761961987220906 -1.14197885789895 0 1.14197885789895 4.761961987220906
4.761961987220906 -1.443230002758391 0 1.443230002758391 4.761961987220906
4.761961987220906 -1.774606264276707 0 1.774606264276707 4.761961987220906
4.761961987220906 -2.139120152945265 0 2.139120152945265 4.761961987220906
4.761961987220906 -2.540085431324111 0 2.540085431324111 4.761961987220906
4.761961987220905 -2.98114723528826 0 2.98114723528826 4.761961987220905
4.761961987220906 -3.466315217199371 0 3.466315217199371 4.761961987220906
5.31407999959186 -0.1870532633030565 0 0.1870532633030565 5.31407999959186
5.314079999591861 -0.392811850665271 0 0.392811850665271 5.314079999591861
5.314079999591859 -0.6191462940853624 0 0.6191462940853624 5.314079999591859
5.314079999591862 -0.8681141816477385 0 0.8681141816477385 5.314079999591862
5.31407999959186 -1.14197885789895 0 1.14197885789895 5.31407999959186
5.31407999959186 -1.443230002758391 0 1.443230002758391 5.31407999959186
5.314079999591861 -1.774606264276707 0 1.774606264276707 5.314079999591861
5.31407999959186 -2.139120152945265 0 2.139120152945265 5.31407999959186
5.31407999959186 -2.540085431324111 0 2.540085431324111 5.31407999959186
5.31407999959186 -2.98114723528826 0 2.98114723528826 5.31407999959186
5.31407999959186 -3.466315217199371 0 3.466315217199371 5.31407999959186
5.921409810416524 -0.1870532633030565 0 0.1870532633030565 5.921409810416524
5.921409810416524 -0.392811850665271 0 0.392811850665271 5.921409810416524
5.921409810416521 -0.6191462940853624 0 0.6191462940853624 5.921409810416521
5.921409810416521 -0.8681141816477385 0 0.8681141816477385 5.921409810416521
5.921409810416523 -1.14197885789895 0 1.14197885789895 5.921409810416523
5.921409810416524 -1.443230002758391 0 1.443230002758391 5.921409810416524
5.921409810416523 -1.774606264276707 0 1.774606264276707 5.921409810416523
5.921409810416524 -2.139120152945265 0 2.139120152945265 5.921409810416524
5.921409810416523 -2.540085431324111 0 2.540085431324111 5.921409810416523
5.921409810416523 -2.98114723528826 0 2.98114723528826 5.921409810416523
5.921409810416523 -3.466315217199371 0 3.466315217199371 5.921409810416523
6.589472606402274 -0.1870532633030565 0 0.1870532633030565 6.589472606402274
6.589472606402276 -0.392811850665271 0 0.392811850665271 6.589472606402276
6.589472606402273 -0.6191462940853624 0 0.6191462940853624 6.589472606402273
6.589472606402274 -0.8681141816477385 0 0.8681141816477385 6.589472606402274
6.589472606402275 -1.14197885789895 0 1.14197885789895 6.589472606402275
6.589472606402274 -1.443230002758391 0 1.443230002758391 6.589472606402274
6.589472606402276 -1.774606264276707 0 1.774606264276707 6.589472606402276
6.589472606402274 -2.139120152945265 0 2.139120152945265 6.589472606402274
6.589472606402275 -2.540085431324111 0 2.540085431324111 6.589472606402275
6.589472606402275 -2.98114723528826 0 2.98114723528826 6.589472606402275
6.589472606402275 -3.466315217199371 0 3.466315217199371 6.589472606402275
7.324341683833489 -0.1870532633030565 0 0.1870532633030565 7.324341683833489
7.324341683833488 -0.392811850665271 0 0.392811850665271 7.324341683833488
7.324341683833489 -0.6191462940853624 0 0.6191462940853624 7.324341683833489
7.324341683833487 -0.8681141816477385 0 0.8681141816477385 7.324341683833487
7.324341683833488 -1.14197885789895 0 1.14197885789895 7.324341683833488
7.324341683833489 -1.443230002758391 0 1.443230002758391 7.324341683833489
7.324341683833491 -1.774606264276707 0 1.774606264276707 7.324341683833491
7.324341683833489 -2.139120152945265 0 2.139120152945265 7.324341683833489
7.32434168383349 -2.540085431324111 0 2.540085431324111 7.32434168383349
7.324341683833487 -2.98114723528826 0 2.98114723528826 7.324341683833487
7.324341683833491 -3.466315217199371 0 3.466315217199371 7.324341683833491
8.132697669569186 -0.1870532633030565 0 0.1870532633030565 8.132697669569186
8.132697669569186 -0.392811850665271 0 0.392811850665271 8.132697669569186
8.132697669569186 -0.6191462940853624 0 0.6191462940853624 8.132697669569186
8.132697669569186 -0.8681141816477385 0 0.8681141816477385 8.132697669569186
8.132697669569188 -1.14197885789895 0 1.14197885789895 8.132697669569188
8.132697669569188 -1.443230002758391 0 1.443230002758391 8.132697669569188
8.132697669569186 -1.774606264276707 0 1.774606264276707 8.132697669569186
8.132697669569188 -2.139120152945265 0 2.139120152945265 8.132697669569188
8.132697669569184 -2.540085431324111 0 2.540085431324111 8.132697669569184
8.132697669569186 -2.98114723528826 0 2.98114723528826 8.132697669569186
8.132697669569186 -3.466315217199371 0 3.466315217199371 8.132697669569186
9.021889254553541 -0.1870532633030565 0 0.1870532633030565 9.021889254553541
9.021889254553541 -0.392811850665271 0 0.392811850665271 9.021889254553541
9.021889254553537 -0.6191462940853624 0 0.6191462940853624 9.021889254553537
9.021889254553541 -0.8681141816477385 0 0.8681141816477385 9.021889254553541
9.021889254553541 -1.14197885789895 0 1.14197885789895 9.021889254553541
9.021889254553541 -1.443230002758391 0 1.443230002758391 9.021889254553541
9.021889254553541 -1.774606264276707 0 1.774606264276707 9.021889254553541
9.021889254553541 -2.139120152945265 0 2.139120152945265 9.021889254553541
9.021889254553543 -2.540085431324111 0 2.540085431324111 9.021889254553543
9.021889254553541 -2.98114723528826 0 2.98114723528826 9.021889254553541
9.021889254553541 -3.466315217199371 0 3.466315217199371 9.021889254553541
2 5 1 88
831
832
833
834
835
836
837
838
839
840
841
842
843
844
845
846
847
848
849
850
851
852
853
854
855
856
857
858
859
860
861
862
863
864
865
866
867
868
869
870
871
872
873
874
875
876
877
878
879
880
881
882
883
884
885
886
887
888
889
890
891
892
893
894
895
896
897
898
899
900
901
902
903
904
905
906
907
908
909
910
911
912
913
914
915
916
917
918
0.9049921563233819 -0.1935812326019714 0 0.1935812326019714 0.9049921563233819
0.8059094763972708 -0.20003740090986 0 0.20003740090986 0.8059094763972708
0.6969914418036721 -0.206878456384673 0 0.206878456384673 0.6969914418036721
0.5880490821177643 -0.2133488361526433 0 0.2133488361526433 0.5880490821177643
0.485056552892167 -0.2188505718290784 0 0.2188505718290784 0.485056552892167
0.3771850738054288 -0.2234312203061336 0 0.2234312203061336 0.3771850738054288
0.2680876376427261 -0.2266386479031496 0 0.2266386479031496 0.2680876376427261
0.1589468189894742 -0.2271190359239118 0 0.2271190359239118 0.1589468189894742
0.9011252210607686 -0.3989875502279321 0 0.3989875502279321 0.9011252210607686
0.7983954968404549 -0.4050953234066638 0 0.4050953234066638 0.7983954968404549
0.6863611645962164 -0.4115672140313588 0 0.4115672140313588 0.6863611645962164
0.5743038199180872 -0.4176884317751292 0 0.4176884317751292 0.5743038199180872
0.4678752341524681 -0.4228932765063211 0 0.4228932765063211 0.4678752341524681
0.3568309819914079 -0.4272267387977506 0 0.4272267387977506 0.3568309819914079
0.2446269292505359 -0.4302610835229096 0 0.4302610835229096 0.2446269292505359
0.1323818350746259 -0.4307155482965457 0 0.4307155482965457 0.1323818350746259
0.8968715923222295 -0.6249344969427323 0 0.6249344969427323 0.8968715923222295
0.7901301194257652 -0.6306590354839283 0 0.6306590354839283 0.7901301194257652
0.6746678598063878 -0.6367248447783016 0 0.6367248447783016 0.6746678598063878
0.5591840316773621 -0.6424619842999998 0 0.6424619842999998 0.5591840316773621
0.4489757837624453 -0.647340248995291 0 0.647340248995291 0.4489757837624453
0.3344414812609302 -0.6514018064857522 0 0.6514018064857522 0.3344414812609302
0.2188201503245105 -0.654245760054124 0 0.654245760054124 0.2188201503245105
0.1031603531140845 -0.6546717092562614 0 0.6546717092562614 0.1031603531140845
0.8921926007135906 -0.8734761381296263 0 0.8734761381296263 0.8921926007135906
0.7810382042769015 -0.878779118569868 0 0.878779118569868 0.7810382042769015
0.6618052245478965 -0.8843982384012414 0 0.8843982384012414 0.6618052245478965
0.5425522646259088 -0.889712891878995 0 0.889712891878995 0.5425522646259088
0.4281863883501008 -0.8942319185350799 0 0.8942319185350799 0.4281863883501008
0.3098130304771657 -0.8979943807447118 0 0.8979943807447118 0.3098130304771657
0.1904326935286592 -0.900628904040782 0 0.900628904040782 0.1904326935286592
0.07101672298327932 -0.9010234861142915 0 0.9010234861142915 0.07101672298327932
0.8870457099453548 -1.146871943367921 0 1.146871943367921 0.8870457099453548
0.7710370976156136 -1.151711209897226 0 1.151711209897226 0.7710370976156136
0.6476563257670392 -1.156838971319419 0 1.156838971319419 0.6476563257670392
0.5242573208738139 -1.161688890148946 0 1.161688890148946 0.5242573208738139
0.4053180534021512 -1.165812754962 0 1.165812754962 0.4053180534021512
0.2827217346216936 -1.169246212362799 0 1.169246212362799 0.2827217346216936
0.1592064910609097 -1.171650362359392 0 1.171650362359392 0.1592064910609097
0.03565872984809759 -1.172010440591418 0 1.172010440591418 0.03565872984809759
0.8813841300818187 -1.447607330111475 0 1.447607330111475 0.8813841300818187
0.7600358802522933 -1.451936511337089 0 1.451936511337089 0.7600358802522933
0.6320925370573028 -1.456523778507424 0 1.456523778507424 0.6320925370573028
0.5041328826808322 -1.460862489222238 0 1.460862489222238 0.5041328826808322
0.3801628848773114 -1.464551676006544 0 1.464551676006544 0.3801628848773114
0.252921309083419 -1.467623228116451 0 1.467623228116451 0.252921309083419
0.1248576682342861 -1.469773967482797 0 1.469773967482797 0.1248576682342861
-0.00323506272753421 -1.470096091489072 0 1.470096091489072 -0.00323506272753421
0.8751563921910906 -1.778416257698602 0 1.778416257698602 0.8751563921910906
0.7479345410732874 -1.782184345086483 0 1.782184345086483 0.7479345410732874
0.6149723693643276 -1.786177068575883 0 1.786177068575883 0.6149723693643276
0.4819960005233904 -1.789953450360834 0 1.789953450360834 0.4819960005233904
0.3524921993185376 -1.793164491310387 0 1.793164491310387 0.3524921993185376
0.2201408407763596 -1.795837947597709 0 1.795837947597709 0.2201408407763596
0.08707396287723401 -1.797709935268963 0 1.797709935268963 0.08707396287723401
-0.0460182348412792 -1.797990309626645 0 1.797990309626645 -0.0460182348412792
0.8683058804925277 -2.142306079041135 0 2.142306079041135 0.8683058804925277
0.7346230679399229 -2.14545696320581 0 2.14545696320581 0.7346230679399229
0.5961401848504775 -2.148795688644382 0 2.148795688644382 0.5961401848504775
0.4576454300835127 -2.15195350860478 0 2.15195350860478 0.4576454300835127
0.3220544451205232 -2.154638589134657 0 2.154638589134657 0.3220544451205232
0.1840823255398369 -2.156874140015928 0 2.156874140015928 0.1840823255398369
0.04551188687064611 -2.158439500821732 0 2.158439500821732 0.04551188687064611
-0.09307972429529113 -2.158673950565827 0 2.158673950565827 -0.09307972429529113
0.8607703176082585 -2.542584883359901 0 2.542584883359901 0.8607703176082585
0.719980447462424 -2.545056843977614 0 2.545056843977614 0.719980447462424
0.5754247818416708 -2.547676171558753 0 2.547676171558753 0.5754247818416708
0.4308598025433086 -2.550153573510701 0 2.550153573510701 0.4308598025433086
0.2885729154322853 -2.55226009757771 0 2.55226009757771 0.2885729154322853
0.1444179586962353 -2.554013952511302 0 2.554013952511302 0.1444179586962353
-0.0002063968327602438 -2.555242023764392 0 2.555242023764392 -0.0002063968327602438
-0.1448473628035875 -2.555425956433428 0 2.555425956433428 -0.1448473628035875
0.8524811984778958 -2.98289156586182 0 2.98289156586182 0.8524811984778958
0.7038735650194351 -2.984616710581691 0 2.984616710581691 0.7038735650194351
0.5526378386483598 -2.986444700523696 0 2.986444700523696 0.5526378386483598
0.401395612399562 -2.988173642670176 0 2.988173642670176 0.401395612399562
0.2517432329633179 -2.98964375463128 0 2.98964375463128 0.2517432329633179
0.1007871553911024 -2.990867744025134 0 2.990867744025134 0.1007871553911024
-0.05049650864966854 -2.991724796772135 0 2.991724796772135 -0.05049650864966854
-0.2017917648718904 -2.991853160658891 0 2.991853160658891 -0.2017917648718904
0.84336316748053 -3.46722891416868 0 3.46722891416868 0.84336316748053
0.6861559944215947 -3.46813256140508 0 3.46813256140508 0.6861559944215947
0.5275722012622619 -3.469090079948442 0 3.469090079948442 0.5275722012622619
0.368985003405066 -3.469995716313072 0 3.469995716313072 0.368985003405066
0.2112305824519824 -3.470765774961225 0 3.470765774961225 0.2112305824519824
0.05279327199775363 -3.471406912264317 0 3.471406912264317 0.05279327199775363
-0.1058156313689886 -3.471855844656692 0 3.471855844656692 -0.1058156313689886
-0.264430606830791 -3.471923082883257 0 3.471923082883257 -0.264430606830791
$EndNodes
$Elements
108 1054 1 1054
0 1 15 1
117 117 
0 2 15 1
118 118 
0 3 15 1
119 119 
0 4 15 1
120 120 
0 5 15 1
121 121 
0 6 15 1
122 1 
0 7 15 1
123 122 
0 8 15 1
124 123 
0 9 15 1
125 124 
0 10 15 1
126 125 
0 11 15 1
127 126 
0 12 15 1
128 127 
0 13 15 1
129 128 
0 14 15 1
130 129 
0 15 15 1
131 130 
0 16 15 1
132 131 
0 17 15 1
133 132 
0 18 15 1
134 133 
0 19 15 1
135 134 
0 20 15 1
136 135 
0 21 15 1
137 136 
0 22 15 1
138 137 
0 23 15 1
139 138 
0 24 15 1
140 139 
0 25 15 1
141 140 
0 26 15 1
142 141 
0 27 15 1
143 142 
0 28 15 1
144 143 
0 29 15 1
145 144 
0 30 15 1
146 145 
0 31 15 1
147 146 
0 32 15 1
148 147 
0 33 15 1
149 148 
0 34 15 1
150 149 
0 35 15 1
151 150 
0 36 15 1
152 151 
0 37 15 1
153 152 
0 38 15 1
154 153 
0 39 15 1
155 154 
0 40 15 1
156 155 
0 41 15 1
157 156 
0 42 15 1
158 157 
0 43 15 1
159 158 
0 44 15 1
160 159 
0 45 15 1
161 160 
0 46 15 1
162 2 
0 47 15 1
163 161 
0 48 15 1
164 162 
0 49 15 1
165 163 
0 50 15 1
166 164 
0 51 15 1
167 165 
0 52 15 1
168 166 
0 53 15 1
169 167 
0 54 15 1
170 168 
0 55 15 1
171 169 
0 56 15 1
172 170 
0 57 15 1
173 171 
0 58 15 1
174 172 
0 59 15 1
175 173 
0 60 15 1
176 174 
0 61 15 1
177 175 
0 62 15 1
178 176 
0 63 15 1
179 177 
0 64 15 1
180 178 
0 65 15 1
181 179 
0 66 15 1
182 180 
0 67 15 1
183 181 
0 68 15 1
184 182 
0 69 15 1
185 183 
0 70 15 1
186 184 
0 71 15 1
187 185 
0 72 15 1
188 186 
0 73 15 1
189 187 
0 74 15 1
190 188 
0 75 15 1
191 189 
0 76 15 1
192 190 
0 77 15 1
193 191 
0 78 15 1
194 192 
0 79 15 1
195 3 
0 80 15 1
196 4 
0 81 15 1
197 5 
0 82 15 1
198 6 
0 83 15 1
199 7 
0 84 15 1
200 8 
0 85 15 1
201 9 
0 86 15 1
202 10 
0 90 15 1
203 193 
1 1 1 4
204 117 194 
205 194 195 
206 195 196 
207 196 117 
1 2 1 9
1 5 11 
2 11 12 
3 12 13 
4 13 14 
5 14 15 
6 15 16 
7 16 17 
8 17 18 
9 18 4 
1 3 1 12
208 1 197 
209 197 198 
210 198 199 
211 199 200 
212 200 201 
213 201 202 
214 202 203 
215 203 204 
216 204 205 
217 205 206 
218 206 207 
219 207 4 
1 4 1 12
220 2 208 
221 208 209 
222 209 210 
223 210 211 
224 211 212 
225 212 213 
226 213 214 
227 214 215 
228 215 216 
229 216 217 
230 217 218 
231 218 5 
1 5 1 12
232 3 219 
233 219 220 
234 220 221 
235 221 222 
236 222 223 
237 223 224 
238 224 225 
239 225 226 
240 226 227 
241 227 228 
242 228 229 
243 229 9 
1 6 1 12
244 3 230 
245 230 231 
246 231 232 
247 232 233 
248 233 234 
249 234 235 
250 235 236 
251 236 237 
252 237 238 
253 238 239 
254 239 240 
255 240 10 
1 7 1 19
256 3 241 
257 241 242 
258 242 243 
259 243 244 
260 244 245 
261 245 246 
262 246 247 
263 247 248 
264 248 249 
265 249 250 
266 250 251 
267 251 252 
268 252 253 
269 253 254 
270 254 255 
271 255 256 
272 256 257 
273 257 258 
274 258 8 
1 8 1 9
10 5 19 
11 19 20 
12 20 21 
13 21 22 
14 22 23 
15 23 24 
16 24 25 
17 25 26 
18 26 10 
1 9 1 19
19 10 27 
20 27 28 
21 28 29 
22 29 30 
23 30 31 
24 31 32 
25 32 33 
26 33 34 
27 34 35 
28 35 36 
29 36 37 
30 37 38 
31 38 39 
32 39 40 
33 40 41 
34 41 42 
35 42 43 
36 43 44 
37 44 6 
1 10 1 9
38 4 45 
39 45 46 
40 46 47 
41 47 48 
42 48 49 
43 49 50 
44 50 51 
45 51 52 
46 52 9 
1 11 1 19
47 9 53 
48 53 54 
49 54 55 
50 55 56 
51 56 57 
52 57 58 
53 58 59 
54 59 60 
55 60 61 
56 61 62 
57 62 63 
58 63 64 
59 64 65 
60 65 66 
61 66 67 
62 67 68 
63 68 69 
64 69 70 
65 70 7 
1 12 1 12
66 8 71 
67 71 72 
68 72 73 
69 73 74 
70 74 75 
71 75 76 
72 76 77 
73 77 78 
74 78 79 
75 79 80 
76 80 81 
77 81 7 
1 13 1 12
78 8 82 
79 82 83 
80 83 84 
81 84 85 
82 85 86 
83 86 87 
84 87 88 
85 88 89 
86 89 90 
87 90 91 
88 91 92 
89 92 6 
1 14 1 9
90 2 93 
91 93 94 
92 94 95 
93 95 96 
94 96 97 
95 97 98 
96 98 99 
97 99 100 
98 100 1 
1 15 1 9
99 1 101 
100 101 102 
101 102 103 
102 103 104 
103 104 105 
104 105 106 
105 106 107 
106 107 108 
107 108 3 
1 16 1 9
108 2 109 
109 109 110 
110 110 111 
111 111 112 
112 112 113 
113 113 114 
114 114 115 
115 115 116 
116 116 3 
2 1 3 108
275 5 11 259 218 
276 218 259 260 217 
277 217 260 261 216 
278 216 261 262 215 
279 215 262 263 214 
280 214 263 264 213 
281 213 264 265 212 
282 212 265 266 211 
283 211 266 267 210 
284 210 267 268 209 
285 209 268 269 208 
286 208 269 93 2 
287 11 12 270 259 
288 259 270 271 260 
289 260 271 272 261 
290 261 272 273 262 
291 262 273 274 263 
292 263 274 275 264 
293 264 275 276 265 
294 265 276 277 266 
295 266 277 278 267 
296 267 278 279 268 
297 268 279 280 269 
298 269 280 94 93 
299 12 13 281 270 
300 270 281 282 271 
301 271 282 283 272 
302 272 283 284 273 
303 273 284 285 274 
304 274 285 286 275 
305 275 286 287 276 
306 276 287 288 277 
307 277 288 289 278 
308 278 289 290 279 
309 279 290 291 280 
310 280 291 95 94 
311 13 14 292 281 
312 281 292 293 282 
313 282 293 294 283 
314 283 294 295 284 
315 284 295 296 285 
316 285 296 297 286 
317 286 297 298 287 
318 287 298 299 288 
319 288 299 300 289 
320 289 300 301 290 
321 290 301 302 291 
322 291 302 96 95 
323 14 15 303 292 
324 292 303 304 293 
325 293 304 305 294 
326 294 305 306 295 
327 295 306 307 296 
328 296 307 308 297 
329 297 308 309 298 
330 298 309 310 299 
331 299 310 311 300 
332 300 311 312 301 
333 301 312 313 302 
334 302 313 97 96 
335 15 16 314 303 
336 303 314 315 304 
337 304 315 316 305 
338 305 316 317 306 
339 306 317 318 307 
340 307 318 319 308 
341 308 319 320 309 
342 309 320 321 310 
343 310 321 322 311 
344 311 322 323 312 
345 312 323 324 313 
346 313 324 98 97 
347 16 17 325 314 
348 314 325 326 315 
349 315 326 327 316 
350 316 327 328 317 
351 317 328 329 318 
352 318 329 330 319 
353 319 330 331 320 
354 320 331 332 321 
355 321 332 333 322 
356 322 333 334 323 
357 323 334 335 324 
358 324 335 99 98 
359 17 18 336 325 
360 325 336 337 326 
361 326 337 338 327 
362 327 338 339 328 
363 328 339 340 329 
364 329 340 341 330 
365 330 341 342 331 
366 331 342 343 332 
367 332 343 344 333 
368 333 344 345 334 
369 334 345 346 335 
370 335 346 100 99 
371 18 4 207 336 
372 336 207 206 337 
373 337 206 205 338 
374 338 205 204 339 
375 339 204 203 340 
376 340 203 202 341 
377 341 202 201 342 
378 342 201 200 343 
379 343 200 199 344 
380 344 199 198 345 
381 345 198 197 346 
382 346 197 1 100 
2 2 3 108
383 1 197 347 101 
384 101 347 348 102 
385 102 348 349 103 
386 103 349 350 104 
387 104 350 351 105 
388 105 351 352 106 
389 106 352 353 107 
390 107 353 354 108 
391 108 354 219 3 
392 197 198 355 347 
393 347 355 356 348 
394 348 356 357 349 
395 349 357 358 350 
396 350 358 359 351 
397 351 359 360 352 
398 352 360 361 353 
399 353 361 362 354 
400 354 362 220 219 
401 198 199 363 355 
402 355 363 364 356 
403 356 364 365 357 
404 357 365 366 358 
405 358 366 367 359 
406 359 367 368 360 
407 360 368 369 361 
408 361 369 370 362 
409 362 370 221 220 
410 199 200 371 363 
411 363 371 372 364 
412 364 372 373 365 
413 365 373 374 366 
414 366 374 375 367 
415 367 375 376 368 
416 368 376 377 369 
417 369 377 378 370 
418 370 378 222 221 
419 200 201 379 371 
420 371 379 380 372 
421 372 380 381 373 
422 373 381 382 374 
423 374 382 383 375 
424 375 383 384 376 
425 376 384 385 377 
426 377 385 386 378 
427 378 386 223 222 
428 201 202 387 379 
429 379 387 388 380 
430 380 388 389 381 
431 381 389 390 382 
432 382 390 391 383 
433 383 391 392 384 
434 384 392 393 385 
435 385 393 394 386 
436 386 394 224 223 
437 202 203 395 387 
438 387 395 396 388 
439 388 396 397 389 
440 389 397 398 390 
441 390 398 399 391 
442 391 399 400 392 
443 392 400 401 393 
444 393 401 402 394 
445 394 402 225 224 
446 203 204 403 395 
447 395 403 404 396 
448 396 404 405 397 
449 397 405 406 398 
450 398 406 407 399 
451 399 407 408 400 
452 400 408 409 401 
453 401 409 410 402 
454 402 410 226 225 
455 204 205 411 403 
456 403 411 412 404 
457 404 412 413 405 
458 405 413 414 406 
459 406 414 415 407 
460 407 415 416 408 
461 408 416 417 409 
462 409 417 418 410 
463 410 418 227 226 
464 205 206 419 411 
465 411 419 420 412 
466 412 420 421 413 
467 413 421 422 414 
468 414 422 423 415 
469 415 423 424 416 
470 416 424 425 417 
471 417 425 426 418 
472 418 426 228 227 
473 206 207 427 419 
474 419 427 428 420 
475 420 428 429 421 
476 421 429 430 422 
477 422 430 431 423 
478 423 431 432 424 
479 424 432 433 425 
480 425 433 434 426 
481 426 434 229 228 
482 207 4 45 427 
483 427 45 46 428 
484 428 46 47 429 
485 429 47 48 430 
486 430 48 49 431 
487 431 49 50 432 
488 432 50 51 433 
489 433 51 52 434 
490 434 52 9 229 
2 3 3 228
491 3 219 435 241 
492 241 435 436 242 
493 242 436 437 243 
494 243 437 438 244 
495 244 438 439 245 
496 245 439 440 246 
497 246 440 441 247 
498 247 441 442 248 
499 248 442 443 249 
500 249 443 444 250 
501 250 444 445 251 
502 251 445 446 252 
503 252 446 447 253 
504 253 447 448 254 
505 254 448 449 255 
506 255 449 450 256 
507 256 450 451 257 
508 257 451 452 258 
509 258 452 71 8 
510 219 220 453 435 
511 435 453 454 436 
512 436 454 455 437 
513 437 455 456 438 
514 438 456 457 439 
515 439 457 458 440 
516 440 458 459 441 
517 441 459 460 442 
518 442 460 461 443 
519 443 461 462 444 
520 444 462 463 445 
521 445 463 464 446 
522 446 464 465 447 
523 447 465 466 448 
524 448 466 467 449 
525 449 467 468 450 
526 450 468 469 451 
527 451 469 470 452 
528 452 470 72 71 
529 220 221 471 453 
530 453 471 472 454 
531 454 472 473 455 
532 455 473 474 456 
533 456 474 475 457 
534 457 475 476 458 
535 458 476 477 459 
536 459 477 478 460 
537 460 478 479 461 
538 461 479 480 462 
539 462 480 481 463 
540 463 481 482 464 
541 464 482 483 465 
542 465 483 484 466 
543 466 484 485 467 
544 467 485 486 468 
545 468 486 487 469 
546 469 487 488 470 
547 470 488 73 72 
548 221 222 489 471 
549 471 489 490 472 
550 472 490 491 473 
551 473 491 492 474 
552 474 492 493 475 
553 475 493 494 476 
554 476 494 495 477 
555 477 495 496 478 
556 478 496 497 479 
557 479 497 498 480 
558 480 498 499 481 
559 481 499 500 482 
560 482 500 501 483 
561 483 501 502 484 
562 484 502 503 485 
563 485 503 504 486 
564 486 504 505 487 
565 487 505 506 488 
566 488 506 74 73 
567 222 223 507 489 
568 489 507 508 490 
569 490 508 509 491 
570 491 509 510 492 
571 492 510 511 493 
572 493 511 512 494 
573 494 512 513 495 
574 495 513 514 496 
575 496 514 515 497 
576 497 515 516 498 
577 498 516 517 499 
578 499 517 518 500 
579 500 518 519 501 
580 501 519 520 502 
581 502 520 521 503 
582 503 521 522 504 
583 504 522 523 505 
584 505 523 524 506 
585 506 524 75 74 
586 223 224 525 507 
587 507 525 526 508 
588 508 526 527 509 
589 509 527 528 510 
590 510 528 529 511 
591 511 529 530 512 
592 512 530 531 513 
593 513 531 532 514 
594 514 532 533 515 
595 515 533 534 516 
596 516 534 535 517 
597 517 535 536 518 
598 518 536 537 519 
599 519 537 538 520 
600 520 538 539 521 
601 521 539 540 522 
602 522 540 541 523 
603 523 541 542 524 
604 524 542 76 75 
605 224 225 543 525 
606 525 543 544 526 
607 526 544 545 527 
608 527 545 546 528 
609 528 546 547 529 
610 529 547 548 530 
611 530 548 549 531 
612 531 549 550 532 
613 532 550 551 533 
614 533 551 552 534 
615 534 552 553 535 
616 535 553 554 536 
617 536 554 555 537 
618 537 555 556 538 
619 538 556 557 539 
620 539 557 558 540 
621 540 558 559 541 
622 541 559 560 542 
623 542 560 77 76 
624 225 226 561 543 
625 543 561 562 544 
626 544 562 563 545 
627 545 563 564 546 
628 546 564 565 547 
629 547 565 566 548 
630 548 566 567 549 
631 549 567 568 550 
632 550 568 569 551 
633 551 569 570 552 
634 552 570 571 553 
635 553 571 572 554 
636 554 572 573 555 
637 555 573 574 556 
638 556 574 575 557 
639 557 575 576 558 
640 558 576 577 559 
641 559 577 578 560 
642 560 578 78 77 
643 226 227 579 561 
644 561 579 580 562 
645 562 580 581 563 
646 563 581 582 564 
647 564 582 583 565 
648 565 583 584 566 
649 566 584 585 567 
650 567 585 586 568 
651 568 586 587 569 
652 569 587 588 570 
653 570 588 589 571 
654 571 589 590 572 
655 572 590 591 573 
656 573 591 592 574 
657 574 592 593 575 
658 575 593 594 576 
659 576 594 595 577 
660 577 595 596 578 
661 578 596 79 78 
662 227 228 597 579 
663 579 597 598 580 
664 580 598 599 581 
665 581 599 600 582 
666 582 600 601 583 
667 583 601 602 584 
668 584 602 603 585 
669 585 603 604 586 
670 586 604 605 587 
671 587 605 606 588 
672 588 606 607 589 
673 589 607 608 590 
674 590 608 609 591 
675 591 609 610 592 
676 592 610 611 593 
677 593 611 612 594 
678 594 612 613 595 
679 595 613 614 596 
680 596 614 80 79 
681 228 229 615 597 
682 597 615 616 598 
683 598 616 617 599 
684 599 617 618 600 
685 600 618 619 601 
686 601 619 620 602 
687 602 620 621 603 
688 603 621 622 604 
689 604 622 623 605 
690 605 623 624 606 
691 606 624 625 607 
692 607 625 626 608 
693 608 626 627 609 
694 609 627 628 610 
695 610 628 629 611 
696 611 629 630 612 
697 612 630 631 613 
698 613 631 632 614 
699 614 632 81 80 
700 229 9 53 615 
701 615 53 54 616 
702 616 54 55 617 
703 617 55 56 618 
704 618 56 57 619 
705 619 57 58 620 
706 620 58 59 621 
707 621 59 60 622 
708 622 60 61 623 
709 623 61 62 624 
710 624 62 63 625 
711 625 63 64 626 
712 626 64 65 627 
713 627 65 66 628 
714 628 66 67 629 
715 629 67 68 630 
716 630 68 69 631 
717 631 69 70 632 
718 632 70 7 81 
2 4 3 228
719 3 241 633 230 
720 230 633 634 231 
721 231 634 635 232 
722 232 635 636 233 
723 233 636 637 234 
724 234 637 638 235 
725 235 638 639 236 
726 236 639 640 237 
727 237 640 641 238 
728 238 641 642 239 
729 239 642 643 240 
730 240 643 27 10 
731 241 242 644 633 
732 633 644 645 634 
733 634 645 646 635 
734 635 646 647 636 
735 636 647 648 637 
736 637 648 649 638 
737 638 649 650 639 
738 639 650 651 640 
739 640 651 652 641 
740 641 652 653 642 
741 642 653 654 643 
742 643 654 28 27 
743 242 243 655 644 
744 644 655 656 645 
745 645 656 657 646 
746 646 657 658 647 
747 647 658 659 648 
748 648 659 660 649 
749 649 660 661 650 
750 650 661 662 651 
751 651 662 663 652 
752 652 663 664 653 
753 653 664 665 654 
754 654 665 29 28 
755 243 244 666 655 
756 655 666 667 656 
757 656 667 668 657 
758 657 668 669 658 
759 658 669 670 659 
760 659 670 671 660 
761 660 671 672 661 
762 661 672 673 662 
763 662 673 674 663 
764 663 674 675 664 
765 664 675 676 665 
766 665 676 30 29 
767 244 245 677 666 
768 666 677 678 667 
769 667 678 679 668 
770 668 679 680 669 
771 669 680 681 670 
772 670 681 682 671 
773 671 682 683 672 
774 672 683 684 673 
775 673 684 685 674 
776 674 685 686 675 
777 675 686 687 676 
778 676 687 31 30 
779 245 246 688 677 
780 677 688 689 678 
781 678 689 690 679 
782 679 690 691 680 
783 680 691 692 681 
784 681 692 693 682 
785 682 693 694 683 
786 683 694 695 684 
787 684 695 696 685 
788 685 696 697 686 
789 686 697 698 687 
790 687 698 32 31 
791 246 247 699 688 
792 688 699 700 689 
793 689 700 701 690 
794 690 701 702 691 
795 691 702 703 692 
796 692 703 704 693 
797 693 704 705 694 
798 694 705 706 695 
799 695 706 707 696 
800 696 707 708 697 
801 697 708 709 698 
802 698 709 33 32 
803 247 248 710 699 
804 699 710 711 700 
805 700 711 712 701 
806 701 712 713 702 
807 702 713 714 703 
808 703 714 715 704 
809 704 715 716 705 
810 705 716 717 706 
811 706 717 718 707 
812 707 718 719 708 
813 708 719 720 709 
814 709 720 34 33 
815 248 249 721 710 
816 710 721 722 711 
817 711 722 723 712 
818 712 723 724 713 
819 713 724 725 714 
820 714 725 726 715 
821 715 726 727 716 
822 716 727 728 717 
823 717 728 729 718 
824 718 729 730 719 
825 719 730 731 720 
826 720 731 35 34 
827 249 250 732 721 
828 721 732 733 722 
829 722 733 734 723 
830 723 734 735 724 
831 724 735 736 725 
832 725 736 737 726 
833 726 737 738 727 
834 727 738 739 728 
835 728 739 740 729 
836 729 740 741 730 
837 730 741 742 731 
838 731 742 36 35 
839 250 251 743 732 
840 732 743 744 733 
841 733 744 745 734 
842 734 745 746 735 
843 735 746 747 736 
844 736 747 748 737 
845 737 748 749 738 
846 738 749 750 739 
847 739 750 751 740 
848 740 751 752 741 
849 741 752 753 742 
850 742 753 37 36 
851 251 252 754 743 
852 743 754 755 744 
853 744 755 756 745 
854 745 756 757 746 
855 746 757 758 747 
856 747 758 759 748 
857 748 759 760 749 
858 749 760 761 750 
859 750 761 762 751 
860 751 762 763 752 
861 752 763 764 753 
862 753 764 38 37 
863 252 253 765 754 
864 754 765 766 755 
865 755 766 767 756 
866 756 767 768 757 
867 757 768 769 758 
868 758 769 770 759 
869 759 770 771 760 
870 760 771 772 761 
871 761 772 773 762 
872 762 773 774 763 
873 763 774 775 764 
874 764 775 39 38 
875 253 254 776 765 
876 765 776 777 766 
877 766 777 778 767 
878 767 778 779 768 
879 768 779 780 769 
880 769 780 781 770 
881 770 781 782 771 
882 771 782 783 772 
883 772 783 784 773 
884 773 784 785 774 
885 774 785 786 775 
886 775 786 40 39 
887 254 255 787 776 
888 776 787 788 777 
889 777 788 789 778 
890 778 789 790 779 
891 779 790 791 780 
892 780 791 792 781 
893 781 792 793 782 
894 782 793 794 783 
895 783 794 795 784 
896 784 795 796 785 
897 785 796 797 786 
898 786 797 41 40 
899 255 256 798 787 
900 787 798 799 788 
901 788 799 800 789 
902 789 800 801 790 
903 790 801 802 791 
904 791 802 803 792 
905 792 803 804 793 
906 793 804 805 794 
907 794 805 806 795 
908 795 806 807 796 
909 796 807 808 797 
910 797 808 42 41 
911 256 257 809 798 
912 798 809 810 799 
913 799 810 811 800 
914 800 811 812 801 
915 801 812 813 802 
916 802 813 814 803 
917 803 814 815 804 
918 804 815 816 805 
919 805 816 817 806 
920 806 817 818 807 
921 807 818 819 808 
922 808 819 43 42 
923 257 258 820 809 
924 809 820 821 810 
925 810 821 822 811 
926 811 822 823 812 
927 812 823 824 813 
928 813 824 825 814 
929 814 825 826 815 
930 815 826 827 816 
931 816 827 828 817 
932 817 828 829 818 
933 818 829 830 819 
934 819 830 44 43 
935 258 8 82 820 
936 820 82 83 821 
937 821 83 84 822 
938 822 84 85 823 
939 823 85 86 824 
940 824 86 87 825 
941 825 87 88 826 
942 826 88 89 827 
943 827 89 90 828 
944 828 90 91 829 
945 829 91 92 830 
946 830 92 6 44 
2 5 3 108
947 3 230 831 116 
948 116 831 832 115 
949 115 832 833 114 
950 114 833 834 113 
951 113 834 835 112 
952 112 835 836 111 
953 111 836 837 110 
954 110 837 838 109 
955 109 838 208 2 
956 230 231 839 831 
957 831 839 840 832 
958 832 840 841 833 
959 833 841 842 834 
960 834 842 843 835 
961 835 843 844 836 
962 836 844 845 837 
963 837 845 846 838 
964 838 846 209 208 
965 231 232 847 839 
966 839 847 848 840 
967 840 848 849 841 
968 841 849 850 842 
969 842 850 851 843 
970 843 851 852 844 
971 844 852 853 845 
972 845 853 854 846 
973 846 854 210 209 
974 232 233 855 847 
975 847 855 856 848 
976 848 856 857 849 
977 849 857 858 850 
978 850 858 859 851 
979 851 859 860 852 
980 852 860 861 853 
981 853 861 862 854 
982 854 862 211 210 
983 233 234 863 855 
984 855 863 864 856 
985 856 864 865 857 
986 857 865 866 858 
987 858 866 867 859 
988 859 867 868 860 
989 860 868 869 861 
990 861 869 870 862 
991 862 870 212 211 
992 234 235 871 863 
993 863 871 872 864 
994 864 872 873 865 
995 865 873 874 866 
996 866 874 875 867 
997 867 875 876 868 
998 868 876 877 869 
999 869 877 878 870 
1000 870 878 213 212 
1001 235 236 879 871 
1002 871 879 880 872 
1003 872 880 881 873 
1004 873 881 882 874 
1005 874 882 883 875 
1006 875 883 884 876 
1007 876 884 885 877 
1008 877 885 886 878 
1009 878 886 214 213 
1010 236 237 887 879 
1011 879 887 888 880 
1012 880 888 889 881 
1013 881 889 890 882 
1014 882 890 891 883 
1015 883 891 892 884 
1016 884 892 893 885 
1017 885 893 894 886 
1018 886 894 215 214 
1019 237 238 895 887 
1020 887 895 896 888 
1021 888 896 897 889 
1022 889 897 898 890 
1023 890 898 899 891 
1024 891 899 900 892 
1025 892 900 901 893 
1026 893 901 902 894 
1027 894 902 216 215 
1028 238 239 903 895 
1029 895 903 904 896 
1030 896 904 905 897 
1031 897 905 906 898 
1032 898 906 907 899 
1033 899 907 908 900 
1034 900 908 909 901 
1035 901 909 910 902 
1036 902 910 217 216 
1037 239 240 911 903 
1038 903 911 912 904 
1039 904 912 913 905 
1040 905 913 914 906 
1041 906 914 915 907 
1042 907 915 916 908 
1043 908 916 917 909 
1044 909 917 918 910 
1045 910 918 218 217 
1046 240 10 26 911 
1047 911 26 25 912 
1048 912 25 24 913 
1049 913 24 23 914 
1050 914 23 22 915 
1051 915 22 21 916 
1052 916 21 20 917 
1053 917 20 19 918 
1054 918 19 5 218 
$EndElements
